<svg id="Icons" height="512" viewBox="0 0 74 74" width="512" xmlns="http://www.w3.org/2000/svg"><path d="m42.562 59.1a15.812 15.812 0 0 1 -8.46-2.455l-21.859-13.763a24.576 24.576 0 0 1 -3.634-2.948 22.713 22.713 0 0 1 7.937-37.217 1 1 0 0 1 .716 1.867 20.713 20.713 0 0 0 -7.243 33.931 22.488 22.488 0 0 0 3.312 2.685l21.837 13.753a13.859 13.859 0 0 0 14.39.26 14.231 14.231 0 0 0 2.806-2.178 13.467 13.467 0 0 0 2.4-3.249 13.815 13.815 0 0 0 .04-13.042l-11.522-21.744a1 1 0 1 1 1.767-.937l11.521 21.744a15.816 15.816 0 0 1 -.03 14.893 15.462 15.462 0 0 1 -2.762 3.749 16.226 16.226 0 0 1 -3.21 2.489 15.958 15.958 0 0 1 -8.006 2.162z"/><path d="m60.278 71.347a5.616 5.616 0 0 1 -4.84-8.486l-6.095-6.095a1 1 0 1 1 1.414-1.414l6.692 6.691a1 1 0 0 1 .058 1.352 3.593 3.593 0 0 0 .193 4.885 3.633 3.633 0 0 0 5.134.012 3.6 3.6 0 0 0 1.028-2.235 1 1 0 0 1 1.2-.886 4.1 4.1 0 0 0 3.747-1.1 4.065 4.065 0 0 0 -5.453-6.018 1 1 0 0 1 -1.346-.062l-6.923-6.923a1.006 1.006 0 0 1 -.14-.115.987.987 0 0 1 -.011-1.4l.024-.024a1 1 0 0 1 .707-.293 1 1 0 0 1 .707.293l6.454 6.455a6.068 6.068 0 1 1 2.845 11.276 5.484 5.484 0 0 1 -1.423 2.453 5.6 5.6 0 0 1 -3.972 1.634z"/><path d="m30.839 17.184a6.834 6.834 0 0 1 -2-.3 6.946 6.946 0 0 1 -4.906-5.873 6.944 6.944 0 0 1 -8.021-7.448 1 1 0 0 1 1.992.175 4.957 4.957 0 0 0 3.512 5.154 4.873 4.873 0 0 0 3.135-.108 1 1 0 0 1 1.349 1.016 4.959 4.959 0 0 0 9.289 2.805 1 1 0 0 1 1.691-.1 4.8 4.8 0 0 0 2.552 1.826 4.911 4.911 0 0 0 4.172-.628 1 1 0 0 1 1.117 1.659 6.907 6.907 0 0 1 -8.556-.658 6.992 6.992 0 0 1 -5.326 2.48z"/></svg>