<svg height="512pt" viewBox="-43 0 512 512.00101" width="512pt" xmlns="http://www.w3.org/2000/svg"><path d="m99.054688 346.605469c-1.429688 3.945312.609374 8.308593 4.558593 9.738281s8.308594-.609375 9.738281-4.558594c15.699219-43.339844 23.660157-88.714844 23.660157-134.859375 0-75.027343-21.460938-148.808593-62.070313-213.371093-1.390625-2.210938-3.820312-3.554688-6.433594-3.554688-2.613281 0-5.042968 1.34375-6.4375 3.554688-40.605468 64.5625-62.070312 138.34375-62.070312 213.371093 0 66.914063 16.335938 130.910157 48.566406 190.28125-16.457031 30.339844-28.917968 62.40625-37.050781 95.367188-.84375 3.425781.777344 6.980469 3.914063 8.589843 1.101562.5625 2.289062.835938 3.464843.835938 2.175781 0 4.3125-.933594 5.796875-2.675781 12.691406-14.917969 27.40625-29.65625 43.804688-43.867188 16.402344 14.207031 31.125 28.933594 43.820312 43.847657 2.285156 2.6875 6.117188 3.449218 9.257813 1.839843 3.136719-1.609375 4.757812-5.164062 3.914062-8.589843-8.132812-32.945313-20.589843-65.003907-37.042969-95.347657 4.757813-8.785156 9.210938-17.746093 13.25-26.699219 1.726563-3.824218.027344-8.328124-3.800781-10.058593-3.828125-1.726563-8.332031-.023438-10.058593 3.800781-4.4375 9.828125-9.390626 19.675781-14.714844 29.265625-1.273438 2.296875-1.273438 5.089844 0 7.386719 11.558594 20.808594 21.15625 42.472656 28.667968 64.699218-8.851562-8.808593-18.339843-17.484374-28.394531-25.957031-2.832031-2.386719-6.96875-2.386719-9.800781 0-10.050781 8.472657-19.53125 17.152344-28.378906 25.964844 7.515625-22.238281 17.109375-43.902344 28.671875-64.707031 1.277343-2.296875 1.277343-5.089844 0-7.386719-24.445313-43.984375-39.761719-90.632813-45.769531-139.191406 24.109374-25.8125 28.945312-56.042969 29.144531-57.359375.628906-4.152344-2.226563-8.027344-6.378907-8.660156-4.152343-.632813-8.027343 2.226562-8.65625 6.378906-.035156.230468-3.003906 18.785156-16.167968 37.953125-.5625-8.515625-.851563-17.085938-.851563-25.707031 0-18.445313 1.359375-36.808594 4.023438-54.964844 15.855469 5.066406 32.386719 7.644531 49.269531 7.644531s33.414062-2.578125 49.28125-7.648437c2.664062 18.160156 4.023438 36.523437 4.023438 54.96875 0 44.371093-7.65625 88-22.75 129.675781zm-30.550782-192.207031c-16.054687 0-31.746094-2.558594-46.742187-7.605469 8.179687-43.515625 23.933593-85.628907 46.746093-124.542969 22.8125 38.914062 38.566407 81.027344 46.746094 124.542969-15.007812 5.046875-30.703125 7.605469-46.75 7.605469zm0 0"/><path d="m43.832031 110.511719c0 13.605469 11.066407 24.675781 24.671875 24.675781 13.605469 0 24.675782-11.070312 24.675782-24.675781s-11.070313-24.675781-24.675782-24.675781c-13.605468 0-24.671875 11.070312-24.671875 24.675781zm34.140625 0c0 5.21875-4.246094 9.464843-9.46875 9.464843-5.21875 0-9.464844-4.246093-9.464844-9.464843s4.246094-9.464844 9.464844-9.464844c5.222656 0 9.46875 4.246094 9.46875 9.464844zm0 0"/><path d="m269.804688 9.445312c.847656-3.421874-.773438-6.980468-3.914063-8.585937-3.132813-1.609375-6.972656-.8476562-9.257813 1.835937-12.707031 14.929688-27.425781 29.660157-43.8125 43.851563-16.382812-14.191406-31.101562-28.929687-43.808593-43.871094-2.285157-2.6835935-6.121094-3.449219-9.257813-1.839843-3.140625 1.609374-4.761718 5.164062-3.917968 8.589843 8.132812 32.964844 20.589843 65.03125 37.050781 95.371094-32.234375 59.371094-48.570313 123.363281-48.570313 190.273437 0 75.035157 21.464844 148.820313 62.074219 213.375 1.390625 2.210938 3.820313 3.554688 6.4375 3.554688 2.613281 0 5.042969-1.34375 6.433594-3.554688 40.609375-64.554687 62.074219-138.335937 62.074219-213.375 0-66.914062-16.335938-130.90625-48.570313-190.277343 16.457031-30.339844 28.914063-62.394531 37.039063-95.347657zm-56.980469 480.308594c-22.8125-38.910156-38.566407-81.027344-46.75-124.542968 15-5.046876 30.695312-7.605469 46.746093-7.605469 16.050782 0 31.746094 2.558593 46.757813 7.605469-8.183594 43.515624-23.941406 85.632812-46.753906 124.542968zm53.300781-194.683594c0 18.445313-1.359375 36.8125-4.019531 54.972657-15.867188-5.070313-32.402344-7.648438-49.285157-7.648438-16.882812 0-33.414062 2.578125-49.273437 7.648438-2.660156-18.164063-4.019531-36.527344-4.019531-54.972657 0-8.609374.289062-17.171874.851562-25.679687 13.039063 19.054687 16.121094 37.632813 16.171875 37.945313.578125 3.757812 3.816407 6.449218 7.503907 6.449218.382812 0 .765624-.027344 1.152343-.085937 4.152344-.632813 7.007813-4.507813 6.375-8.660157-.199219-1.316406-5.03125-31.546874-29.148437-57.363281 6.011718-48.554687 21.332031-95.203125 45.777344-139.179687 1.273437-2.300782 1.273437-5.09375 0-7.390625-11.566407-20.804688-21.164063-42.472657-28.675782-64.710938 8.855469 8.820313 18.339844 17.5 28.386719 25.96875 2.832031 2.382813 6.96875 2.386719 9.800781 0 10.050782-8.46875 19.539063-17.148437 28.390625-25.964843-7.511719 22.230468-17.105469 43.898437-28.671875 64.703124-1.277344 2.296876-1.277344 5.089844 0 7.386719 32.304688 58.117188 48.683594 120.894531 48.683594 186.582031zm0 0"/><path d="m212.824219 376.816406c-13.605469 0-24.671875 11.066406-24.671875 24.671875s11.066406 24.675781 24.671875 24.675781 24.675781-11.066406 24.675781-24.675781c0-13.601562-11.070312-24.671875-24.675781-24.671875zm0 34.140625c-5.21875 0-9.464844-4.246093-9.464844-9.46875 0-5.21875 4.246094-9.464843 9.464844-9.464843 5.222656 0 9.46875 4.246093 9.46875 9.464843 0 5.222657-4.246094 9.46875-9.46875 9.46875zm0 0"/><path d="m377.082031 407.207031c32.234375-59.363281 48.566407-123.355469 48.566407-190.28125 0-49.769531-9.226563-98.523437-27.421876-144.898437-1.535156-3.910156-5.945312-5.835938-9.855468-4.304688-3.910156 1.535156-5.835938 5.949219-4.300782 9.855469 8.839844 22.539063 15.472657 45.660156 19.878907 69.195313-15.023438 5.058593-30.738281 7.625-46.808594 7.625-16.050781 0-31.746094-2.558594-46.746094-7.609376 8.183594-43.511718 23.9375-85.625 46.75-124.539062 5.386719 9.183594 10.402344 18.558594 14.960938 27.992188 1.828125 3.78125 6.375 5.363281 10.15625 3.535156s5.363281-6.375 3.535156-10.15625c-6.574219-13.597656-14.046875-27.078125-22.214844-40.066406-1.394531-2.210938-3.824219-3.554688-6.4375-3.554688s-5.046875 1.34375-6.4375 3.554688c-40.609375 64.566406-62.070312 138.347656-62.070312 213.371093 0 66.914063 16.335937 130.90625 48.566406 190.28125-16.457031 30.335938-28.917969 62.402344-37.050781 95.367188-.847656 3.425781.777344 6.980469 3.914062 8.589843 1.101563.566407 2.289063.835938 3.464844.835938 2.175781 0 4.3125-.933594 5.796875-2.675781 12.695313-14.929688 27.414063-29.664063 43.8125-43.867188 16.382813 14.191407 31.101563 28.917969 43.808594 43.847657 2.285156 2.683593 6.117187 3.449218 9.257812 1.839843s4.761719-5.164062 3.917969-8.589843c-8.125-32.945313-20.578125-65-37.042969-95.347657zm-15.039062 42.433594c-2.832031-2.382813-6.96875-2.382813-9.800781 0-10.050782 8.472656-19.539063 17.152344-28.390626 25.96875 7.515626-22.238281 17.113282-43.902344 28.675782-64.707031 1.273437-2.296875 1.273437-5.089844 0-7.386719-24.445313-43.984375-39.761719-90.632813-45.773438-139.191406 24.113282-25.8125 28.949219-56.042969 29.148438-57.359375.632812-4.152344-2.222656-8.03125-6.375-8.660156-4.152344-.636719-8.03125 2.222656-8.660156 6.375-.035157.230468-3.003907 18.792968-16.167969 37.960937-.566407-8.519531-.855469-17.089844-.855469-25.714844 0-18.441406 1.363281-36.804687 4.023438-54.964843 15.859374 5.070312 32.390624 7.644531 49.273437 7.644531 16.898437 0 33.445313-2.578125 49.324219-7.660157 2.636718 18.132813 3.976562 36.480469 3.976562 54.980469 0 65.699219-16.378906 128.476563-48.679687 186.585938-1.277344 2.296875-1.277344 5.089843 0 7.390625 11.566406 20.808594 21.160156 42.472656 28.667969 64.703125-8.851563-8.816407-18.339844-17.496094-28.386719-25.964844zm0 0"/><path d="m357.144531 85.835938c-13.605469 0-24.671875 11.070312-24.671875 24.675781s11.066406 24.675781 24.671875 24.675781 24.675781-11.070312 24.675781-24.675781-11.070312-24.675781-24.675781-24.675781zm0 34.140624c-5.21875 0-9.464843-4.246093-9.464843-9.464843s4.246093-9.464844 9.464843-9.464844c5.222657 0 9.46875 4.246094 9.46875 9.464844s-4.246093 9.464843-9.46875 9.464843zm0 0"/></svg>