<?xml version="1.0" encoding="iso-8859-1"?>
<!-- Generator: Adobe Illustrator 19.0.0, SVG Export Plug-In . SVG Version: 6.00 Build 0)  -->
<svg version="1.1" id="Capa_1" xmlns="http://www.w3.org/2000/svg" xmlns:xlink="http://www.w3.org/1999/xlink" x="0px" y="0px"
	 viewBox="0 0 479.352 479.352" style="enable-background:new 0 0 479.352 479.352;" xml:space="preserve">
<g>
	<g>
		<path d="M456.354,271.38c-0.23-0.019-0.461-0.028-0.692-0.028h-160c-4.418-0.015-8.012,3.554-8.028,7.972
			c-0.001,0.231,0.008,0.462,0.028,0.692l14.784,177.328c1.095,12.418,11.47,21.957,23.936,22.008h98.56
			c12.457-0.063,22.818-9.599,23.912-22.008l14.808-177.328C464.029,275.613,460.757,271.746,456.354,271.38z M432.91,456.016
			c-0.368,4.146-3.837,7.327-8,7.336h-98.528c-4.163-0.009-7.632-3.19-8-7.336l-10.024-120.664h134.608L432.91,456.016z
			 M444.302,319.352h-137.28l-2.664-32h142.608L444.302,319.352z"/>
	</g>
</g>
<g>
	<g>
		<path d="M199.662,83.8V62.864c17.081-4.396,27.364-21.807,22.968-38.888C218.994,9.849,206.249-0.018,191.662,0h-96
			C78.024-0.022,63.708,14.259,63.686,31.896c-0.018,14.587,9.849,27.332,23.976,30.968V83.8
			c-45.866,42.154-71.979,101.593-72,163.888v175.664c0.035,30.913,25.087,55.965,56,56h144c30.913-0.035,55.965-25.087,56-56
			V247.688C271.641,185.393,245.528,125.954,199.662,83.8z M79.662,32c0-8.837,7.163-16,16-16h96
			c8.833,0.25,15.791,7.614,15.54,16.447c-0.217,7.666-5.844,14.1-13.412,15.337c-0.685-0.245-1.402-0.39-2.128-0.432h-96
			c-0.726,0.042-1.443,0.187-2.128,0.432C85.619,46.722,79.699,39.986,79.662,32z M100.982,93.336
			c1.707-1.52,2.683-3.698,2.68-5.984V64h80v23.352c-0.003,2.286,0.973,4.464,2.68,5.984c25.223,22.45,44.556,50.743,56.304,82.4
			c-31.306,11.826-66.255,9.078-95.328-7.496c-28.351-16.242-61.847-21.003-93.6-13.304
			C65.431,131.596,81.47,110.692,100.982,93.336z M255.662,423.352c-0.026,22.08-17.92,39.974-40,40h-144
			c-22.08-0.026-39.974-17.92-40-40V247.688c0.017-25.138,4.626-50.062,13.6-73.544c31.019-11.358,65.471-8.43,94.128,8
			c32.98,18.901,72.663,22.141,108.272,8.84c5.294,18.437,7.987,37.522,8,56.704V423.352z"/>
	</g>
</g>
<g>
	<g>
		<path d="M231.662,271.352c-4.418,0-8,3.582-8,8v8c0,4.418,3.582,8,8,8s8-3.582,8-8v-8
			C239.662,274.934,236.08,271.352,231.662,271.352z"/>
	</g>
</g>
<g>
	<g>
		<path d="M231.662,311.352c-4.418,0-8,3.582-8,8v56c0,4.418,3.582,8,8,8s8-3.582,8-8v-56
			C239.662,314.934,236.08,311.352,231.662,311.352z"/>
	</g>
</g>
<g>
</g>
<g>
</g>
<g>
</g>
<g>
</g>
<g>
</g>
<g>
</g>
<g>
</g>
<g>
</g>
<g>
</g>
<g>
</g>
<g>
</g>
<g>
</g>
<g>
</g>
<g>
</g>
<g>
</g>
</svg>
