<?xml version="1.0" encoding="iso-8859-1"?>
<!-- Generator: Adobe Illustrator 19.0.0, SVG Export Plug-In . SVG Version: 6.00 Build 0)  -->
<svg version="1.1" id="Capa_1" xmlns="http://www.w3.org/2000/svg" xmlns:xlink="http://www.w3.org/1999/xlink" x="0px" y="0px"
	 viewBox="0 0 512.001 512.001" style="enable-background:new 0 0 512.001 512.001;" xml:space="preserve">
<g>
	<g>
		<path d="M336.023,265.998c-5.519,0-9.999,4.479-9.999,9.999c0,5.519,4.479,9.999,9.999,9.999c5.519,0,9.999-4.479,9.999-9.999
			C346.022,270.477,341.542,265.998,336.023,265.998z"/>
	</g>
</g>
<g>
	<g>
		<path d="M430.275,373.337c-8.855-32.266-27.499-61.201-53.916-83.679c-4.205-3.58-10.517-3.07-14.095,1.136
			c-3.579,4.206-3.07,10.517,1.136,14.095c23.347,19.864,39.803,45.364,47.591,73.74c1.464,5.333,6.969,8.455,12.288,6.996
			C428.604,384.163,431.735,378.662,430.275,373.337z"/>
	</g>
</g>
<g>
	<g>
		<path d="M510.818,411.262c-1.74-3.252-5.128-5.281-8.816-5.281h-26.245c-5.364-110-100.542-200.378-220.467-199.965
			c-24.912-25.713-51.54-31.37-80.005-35.817c-25.347-3.959-47.237-7.379-69.987-33.575c-6.47-7.459-6.362-17.657-5.724-23.062
			c0.954-8.007,1.25-19.622-7.148-28.019c-11.595-11.597-30.982-9.711-45.098,4.392c-8.179,8.185-10.914,16.833-11.422,23.928
			c-7.096,0.51-15.746,3.247-23.934,11.427c-14.097,14.111-15.982,33.497-4.386,45.093c8.417,8.415,20.047,8.098,28.067,7.124
			c5.407-0.659,15.589-0.798,23.022,5.675c26.153,22.766,29.569,44.641,33.525,69.97c0.977,6.254,1.985,12.676,3.372,19.208
			c-36.028,36.625-56.813,83.562-59.259,133.62H10.066c-3.688,0-7.076,2.03-8.816,5.281c-1.74,3.251-1.549,7.196,0.497,10.265
			l28.122,42.179c9.282,13.941,24.833,22.265,41.599,22.265h369.131c16.766,0,32.317-8.324,41.596-22.26l28.126-42.184
			C512.367,418.459,512.558,414.513,510.818,411.262z M71.804,168.099c-8.195-7.136-19.069-10.902-31.161-10.902
			c-7.209,0-15.748,2.217-18.919-0.957c-2.985-2.985-2.154-10.264,4.388-16.812c7.788-7.782,15.79-5.477,17.266-4.955
			c3.648,1.567,8.039,0.858,11.019-2.122c2.952-2.952,3.669-7.291,2.158-10.921c-0.478-1.309-2.993-9.446,4.912-17.357
			c6.554-6.548,13.834-7.38,16.819-4.393c0.62,0.619,2.505,2.504,1.431,11.523c-1.774,15.008,1.947,28.688,10.479,38.526
			c27.545,31.717,55.23,36.041,82.002,40.225c28.983,4.527,50.564,9.633,71.35,32.782c5.466,6.112,10.028,12.86,13.56,20.063
			c14.207,28.919,10.158,61.949-10.073,82.187c-27.292,27.284-74.868,24.109-106.064-7.086
			c-20.414-20.363-24.957-41.859-29.015-67.836C107.778,223.314,103.458,195.653,71.804,168.099z M102.162,294.642
			c5.61,14.083,14.058,26.814,24.678,37.408c38.521,38.521,98.848,42.555,134.336,7.078c27.723-27.734,31.101-70.094,13.884-105.139
			c-1.244-2.536-2.602-5.018-4.047-7.454c99.831,7.056,179.486,84.048,184.718,179.444H56.339
			C58.574,364.869,74.571,326.11,102.162,294.642z M465.553,452.621c-5.565,8.36-14.894,13.35-24.954,13.35H71.469
			c-10.06,0-19.387-4.99-24.957-13.355l-17.762-26.639h454.567L465.553,452.621z"/>
	</g>
</g>
<g>
	<g>
		<path d="M212.086,114.34c9.49-6.324,15.155-16.91,15.155-28.317s-5.666-21.994-15.155-28.317
			c-4.595-3.063-10.803-1.819-13.865,2.776c-3.063,4.595-1.82,10.803,2.776,13.865c3.97,2.646,6.247,6.902,6.247,11.677
			c0,4.775-2.277,9.031-6.247,11.677c-9.49,6.324-15.155,16.91-15.155,28.317c0,11.407,5.666,21.994,15.155,28.317
			c4.575,3.05,10.79,1.839,13.865-2.776c3.063-4.595,1.82-10.803-2.776-13.865c-3.97-2.646-6.247-6.902-6.247-11.677
			C205.838,121.241,208.115,116.986,212.086,114.34z"/>
	</g>
</g>
<g>
	<g>
		<path d="M282.076,84.344c9.49-6.324,15.155-16.91,15.155-28.317c0-11.408-5.666-21.994-15.155-28.317
			c-4.595-3.063-10.803-1.819-13.865,2.776c-3.063,4.595-1.82,10.803,2.776,13.865c3.97,2.646,6.247,6.902,6.247,11.677
			s-2.277,9.031-6.247,11.677c-9.49,6.324-15.155,16.91-15.155,28.317s5.666,21.994,15.155,28.317
			c4.575,3.05,10.79,1.839,13.865-2.776c3.063-4.595,1.82-10.803-2.776-13.865c-3.971-2.646-6.247-6.902-6.247-11.677
			C275.829,91.246,278.106,86.99,282.076,84.344z"/>
	</g>
</g>
<g>
	<g>
		<path d="M332.07,154.335c9.49-6.324,15.155-16.91,15.155-28.317s-5.666-21.994-15.155-28.317
			c-4.594-3.063-10.803-1.819-13.865,2.776c-3.063,4.595-1.82,10.803,2.776,13.865c3.97,2.646,6.247,6.902,6.247,11.677
			c0,4.775-2.277,9.031-6.247,11.677c-9.49,6.324-15.155,16.91-15.155,28.317c0,11.408,5.666,21.994,15.155,28.317
			c4.575,3.05,10.79,1.839,13.865-2.776c3.063-4.595,1.82-10.803-2.776-13.865c-3.97-2.646-6.247-6.902-6.247-11.677
			S328.099,156.98,332.07,154.335z"/>
	</g>
</g>
<g>
</g>
<g>
</g>
<g>
</g>
<g>
</g>
<g>
</g>
<g>
</g>
<g>
</g>
<g>
</g>
<g>
</g>
<g>
</g>
<g>
</g>
<g>
</g>
<g>
</g>
<g>
</g>
<g>
</g>
</svg>
