<?xml version="1.0" encoding="utf-8"?>
<!-- Generator: Adobe Illustrator 19.1.0, SVG Export Plug-In . SVG Version: 6.00 Build 0)  -->
<svg version="1.1" xmlns="http://www.w3.org/2000/svg" xmlns:xlink="http://www.w3.org/1999/xlink" x="0px" y="0px"
	 viewBox="6 -116 512 512" style="enable-background:new 6 -116 512 512;" xml:space="preserve">
<style type="text/css">
	.st0{display:none;}
	.st1{display:inline;}
	.st2{fill:none;stroke:#000000;stroke-width:10;stroke-miterlimit:10;}
	.st3{fill:#FFFFFF;}
	.st4{stroke:#000000;stroke-width:5;stroke-miterlimit:10;}
	.st5{fill:#FFFFFF;stroke:#000000;stroke-width:5;stroke-miterlimit:10;}
	.st6{fill:#F9F5F2;}
	.st7{fill:#F7EDE7;}
	.st8{fill:#FCFCFC;}
	.st9{stroke:#000000;stroke-width:1.5;stroke-miterlimit:10;}
</style>
<g id="Layer_1" class="st0">
	<g id="Layer_1_1_" class="st1">
		<path d="M450.7-136.4c-29.9-29.9-70.6-44.1-114.7-40.2c-16.7,1.5-33.1,5.6-48.6,11.8c-26.5-24.3-59-37.2-94.4-37.2
			c-89.3,0-149.3,82.7-149.3,160c0,159.5,105,288,192,288c32.8,0,61.7-13.4,81.6-37.7L443.2,82.4C497.8,27.7,513.9-73.2,450.7-136.4
			L450.7-136.4z M65-42c0-67,51.4-138.7,128-138.7c32.3,0,56.6,12.5,73.4,25.8c-12.7,7.2-24.3,15.9-34.4,26
			c-3.7,3.7,2.6-2.5-10.7,11.5C204-107.7,160-25.9,160-25.9c-33.3,71.2-39.3,145.1-20.6,196C97.2,121.4,65,44.7,65-42L65-42z
			 M428.1,67.3L299.9,195.5c-25.1,25.1-79.1,41.6-120.7,0c-54.7-54.7-36.6-204.8,67.9-309.2c47.3-47.3,134.4-61.7,188.6-7.6
			C489.8-67.2,475.5,19.9,428.1,67.3z"/>
	</g>
	<g id="Layer_2">
		<g class="st1">
			<path class="st3" d="M49,14.5C49,1.4,49,1.4,62,1.2c6.1-0.1,9.6,3,9.8,9.3c0.2,4.8,0.2,9.6-0.1,14.4c-0.1,1.2-1.6,2.3-2.5,3.5
				c-1-1.1-2.7-2.1-2.9-3.3c-0.4-4.1-0.2-8.3-0.3-12.5c0-2.8-0.4-5.4-4-5.8c-3.8-0.4-6.4,1.1-6.9,4.8c-0.5,3.8,0,7.7-0.5,11.4
				c-0.2,1.7-1.8,3.2-2.8,4.8c-1-1.6-2.5-3.1-2.8-4.8C48.6,20.2,49,17.4,49,14.5z"/>
			<path class="st3" d="M99.8,29.8c-5.8-0.4-8.9-2.6-9.5-7.2c-0.4-3.3,0-6.7-0.4-9.9c-0.3-2.1-1.5-4-2-6.1c-0.3-1.1-0.1-2.4,0.3-3.4
				c0.5-1.1,1.6-2,2.5-3c1-1.1,2.1-2.2,3.2-3.3c0.7,1.2,1.2,2.6,2.1,3.4c1.1,0.9,2.8,1.3,4.1,2.1c1.1,0.7,2.1,1.7,3.1,2.6
				c-1.1,0.7-2.2,2-3.3,2c-3.5,0-4.2,1.8-4.1,4.7c0.1,2.7-0.4,5.4,0.2,7.9c0.4,1.7,2.3,3.1,3.7,4.5c1.1,1.1,2.4,2,3.5,3
				C101.9,28.2,100.5,29.3,99.8,29.8z"/>
		</g>
	</g>
</g>
<g id="Layer_2_1_" class="st0">
	<g class="st1">
		<g>
			<path d="M375.6-46.8c-4,4-7.4,9-12.1,11.7c-3.7,2.2-5.2,4.1-5.8,8.1c-0.6,3.8-2.5,7.5-3.9,11.5c4.6,4.9,5.4,11.4,5.6,18.2
				c0.1,3.7-2,6.2-5.1,6.2c-3,0-4.8-2.3-5.2-5.9c-0.3-3.6-0.9-7.2-1.4-11c-5.2,2.8-9.5,5.1-14.1,7.6c1,1.8,2.2,3.9,3.3,6
				c2.1,3.9,1.3,7.6-2,9.4c-3.2,1.8-6.7,0.6-8.9-2.9c-0.5-0.8-1-1.6-1.4-2.4c-2.9-6-6.2-11.1-13.7-12.3c-3-0.5-5.7-3-9-4.8
				C296.5-3,290.1,0,282.1,0.3c0,3.4,0,6.8,0,10.1c-0.1,4.7-2.5,7.6-6.4,7.6c-3.8,0-6.3-3-6.4-7.7c0-3-0.1-6.1,0-9.1
				c0.1-2-0.6-3.1-2.6-3.3c-0.3,0-0.7-0.2-1-0.3c-3.6-1-7.4-3.4-10.6-2.8c-3.2,0.7-5.8,4.4-8.9,6.9c1.4,1.7,2.8,3.3,4.1,5.1
				c2.3,3.1,2,6.9-0.7,9.1c-2.7,2.2-6.8,2.2-8.7-0.9c-4-6.4-8.8-7.6-15.9-5.5c-4.6,1.3-9.9,0.2-15.2,0.2c0,3.5,0,7.3,0,11.2
				c-0.1,4.5-2.5,7.3-6.3,7.2c-3.8,0-6.2-2.8-6.3-7.3c-0.1-3.6-0.5-7.3,0-10.8c0.7-5.2-1.6-7.7-6.5-9.1C185.4,8,178.7,13.7,169.6,17
				c1.3,3,2.6,5.8,3.8,8.7c1.9,4.3,0.8,7.9-2.8,9.5c-3.5,1.5-6.7,0-8.7-4.2c-1.4-3.1-2.9-6.1-4.2-9.2c-1.6-4-5-1.8-7.6-2.1
				c-0.6-0.1-1.9,1.8-2.3,2.9c-1.3,3.4-2.1,6.9-3.4,10.3c-1.3,3.2-3.1,6.2-4.9,9.6c2,1.8,4,3.6,6.1,5.5c3.6,3.3,4.1,6.8,1.5,9.8
				c-2.5,2.9-6.4,2.8-9.9-0.2c-2.1-1.8-4.2-3.7-6.3-5.6c-0.2-0.2-0.4-0.2-0.5-0.3c-3,1.6-6.1,3.1-8.9,4.9c-0.7,0.4-1.2,1.8-1.2,2.7
				c0.1,5.1,0.4,10.2,0.7,16.1c3,1.8,7,4,10.8,6.3c4.3,2.5,5.6,6.1,3.5,9.5c-2,3.3-5.7,3.8-9.8,1.5c-3.3-1.9-6.6-3.8-10.1-5.8
				c-0.8,1.2-1.5,2.3-1.9,2.9c2.1,4.3,4.4,8.2,5.8,12.3c1.4,4,1.7,8.4,2.6,12.8c2.6-0.8,5.4-1.7,8.2-2.4c4.1-1.1,7.3,0.5,8.4,4.1
				c1.1,3.5-0.7,6.7-4.8,8c-3.6,1.2-7.4,2.2-11,3.3c-1.2,0.4-2.3,0.9-3.4,1.3c-0.2,0.4-0.4,0.8-0.6,1.2c0.8,0.4,1.8,0.6,2.4,1.3
				c3.8,4.2,7.7,8.4,11,12.9c1.3,1.7,2.2,2.4,4.2,1.7c1.3-0.5,2.7-0.8,4.1-1.1c3.7-0.7,6.8,1.2,7.7,4.4c0.9,3.5-0.9,6.7-4.6,7.9
				c-2.1,0.7-4.3,1.2-7,1.9c0,4.2-0.2,8.5,0.1,12.7c0.1,1.3,1.8,2.6,2.9,4c3.7-2.2,7-4.2,10.4-6.2c3.9-2.3,7.5-1.7,9.5,1.5
				c2,3.3,0.9,6.9-3.1,9.4c-2.8,1.7-5.5,3.4-8.3,5c7.5,17.7,7.9,21.2,3.8,35.4c2.7,1.6,5.5,3.2,8.3,4.9c3.7,2.3,4.8,6,2.8,9.2
				c-1.9,3.1-5.4,3.8-9.2,1.7c-3-1.6-5.9-3.4-8.9-5.1c-2,1.6-4.1,3.1-5.9,4.9c-0.6,0.5-0.7,1.9-0.5,2.7c0.5,2.4,1.2,4.7,1.9,7.1
				c1.5,5.7,1.1,7-3.4,10.5c-1.4,0-2.8,0-4.2,0c-5.5-3.1-4.5-9.3-6.9-14.2c-2.6,0.3-5.2,0.8-7.9,0.8c-16.6-0.1-27.8-8.7-34.4-23.2
				C80.8,214.1,77.2,210,71,207c-11.7-5.7-20.1-14.7-22.6-28.1c-1.4-7.6-0.3-15.1,1.8-22.4c-2.1-1.5-4.2-2.8-6.1-4.3
				c-9.1-6.8-15.3-15.7-15.9-27.1c-0.4-7,1-14.1,2-21.1c0.3-2.3,0.1-3.7-1.1-5.7c-3.5-5.6-6.6-11.4-9.5-17.4c-1.2-2.4-1.5-5.3-2.3-8
				c0-4,0-7.9,0-11.9c0.4-1.4,0.8-2.9,1.1-4.3c3.2-15,11.7-26.7,22.2-37.3c1.5-1.5,2.1-3,2-5.2c-0.2-5.6-0.6-11.2,0-16.8
				C44.3-20.9,53.4-34.3,71-40.5c6.9-2.5,14.5-3.3,21.8-4.6c2.2-0.4,3-1.1,3.9-3c3.2-6.6,6.2-13.4,10.2-19.4
				c7.5-11.3,18.2-18.2,31.8-20.3c12.1-1.9,23.7,0.4,35,4.6c2.1,0.8,3.5,0.6,5.2-1.1c6.3-6,13.4-10.9,21.6-13.9
				c3.5-1.3,7.1-2.1,10.6-3.1c3.7,0,7.5,0,11.2,0c12.1,2.2,22.6,7.5,32.1,15.2c0.7,0.6,2.3,0.3,3.4,0c5.8-1.2,11.5-3.4,17.3-3.7
				c16.1-0.8,27.6,7.4,36.3,20.3c1.3,1.9,2.2,2.5,4.7,2c17.4-4.1,34.2,5.1,40.4,21.8c0.3,0.8,0.7,1.6,1.4,3.3
				c2.7-2.9,5.2-5.1,7.3-7.7c3.7-4.5,6.6-4.7,10.3-0.1C375.6-49.2,375.6-48,375.6-46.8z M293.1-17c-1.2-6.1-2.6-11.3-3.2-16.7
				c-0.5-3.9,2.4-6.6,6-6.8c3.5-0.1,6,2.1,6.6,5.9c0.1,0.8,0.2,1.6,0.2,2.4c0.9,9.7,7.7,17.3,17.5,19.3c9.2,1.9,18.8-2.7,23.2-11.2
				c4.3-8.2,2.9-18.2-3.4-25c-6.2-6.6-16-8.7-24.4-5c-6.5,2.8-8.2,2.2-11.8-4c-1.6-2.7-3.3-5.4-5.2-7.8c-5.5-7-12.6-11.9-21.8-11.3
				c-5.8,0.4-11.7,2.1-17.1,4.2c-4.5,1.8-7.7,1.4-11.4-1.7c-4.4-3.6-9.1-7-14.1-9.6c-12.3-6.5-24.8-6-36.5,1.6
				c-4.7,3-9.1,6.6-13,10.5c-3.5,3.5-6.7,4.2-11.2,2.3c-4.7-1.9-9.7-3.5-14.6-4.6c-20.6-4.7-35.6,2.1-45.5,20.7
				c-2.6,4.8-4.4,10-6.4,15.1c-1.7,4.5-3.2,5.6-7.9,5.9c-4.8,0.3-9.6,0.6-14.3,1.4c-17,2.8-26.9,11.9-29.2,27.9
				c-0.9,6.4-0.3,13,0.2,19.5c0.3,3.9-0.4,6.8-3.4,9.7c-4.3,4.2-8.5,8.7-12.1,13.5c-7.3,9.9-12,20.8-9.6,33.6
				c1.4,7.4,4.8,14,10,19.3c3.7,3.9,4.8,7.6,2.6,12.6c-1,2.3-1.5,4.9-1.9,7.4c-2.7,15.3,1.5,24.6,14.7,32.7c1.3,0.8,2.6,1.5,3.9,2.2
				c4.3,2.4,5.2,4.8,3.6,9.6c-0.4,1.1-0.8,2.2-1.1,3.3c-5.1,16.3-0.4,27.9,14.7,36c2.4,1.3,4.7,2.7,7.3,3.4c4.4,1.3,6.7,4.1,7.8,8.4
				c1.9,7.1,5.4,13.4,11.2,18.1c7.5,6.1,17.7,6.6,26.5,1.4c8.8-5.2,13.2-14.4,11.4-23.9c-1.6-8.6-6.5-15.3-12.9-20.6
				c-4.3-3.6-5.4-7.4-4.5-12.5c0.4-2.3,0.4-4.7,0.3-7c-0.4-9.5-3.8-17.5-12.3-22.6c-6.6-4-6.8-4.5-5.1-12.1c0.2-0.8,0.4-1.6,0.5-2.4
				c2.5-11.6,2.3-22.5-7.1-31.4c-2.3-2.2-2.1-5.1-0.4-7.7c1.4-2.1,3-4.2,4.3-6.4c4.6-7.3,5.3-15,2.5-23.1c-2.3-6.8-1.2-9,5.6-11.2
				c10.4-3.3,17.6-9.9,21.2-20.2c1.6-4.5,2.4-9.2,3.4-13.9c0.9-4.3,2.5-5.8,6.9-5.8c2.6,0,5.1,0.2,7.7,0.3
				c13.6,0.7,24-4.6,31.2-16.1c0.3-0.5,0.6-1,1-1.5c2.9-4.3,6-4.9,10.4-2c2.2,1.4,4.2,2.9,6.4,4.2c15.1,8.8,28.9,7.9,42.5-3
				c2.1-1.7,4-3.5,6-5.4c3.8-3.7,5.3-3.8,10.3-1.8c5.7,2.3,11.5,4.6,17.4,6C282.8-11.4,288.7-12.8,293.1-17z"/>
			<path class="st3" d="M17.2,72.9c0.7,2.7,1,5.5,2.3,8c2.9,5.9,6.1,11.7,9.5,17.4c1.2,2,1.4,3.5,1.1,5.7c-1,7-2.4,14.1-2,21.1
				c0.6,11.5,6.8,20.3,15.9,27.1c1.9,1.5,4,2.8,6.1,4.3c-2.2,7.4-3.3,14.8-1.8,22.4c2.5,13.3,11,22.4,22.6,28.1
				c6.3,3.1,9.8,7.1,12.7,13.4c6.5,14.5,17.8,23.1,34.4,23.2c2.6,0,5.3-0.5,7.9-0.8c2.4,4.9,1.4,11.1,6.9,14.2c-38.5,0-77,0-115.5,0
				C17.2,195.6,17.2,134.2,17.2,72.9z"/>
			<path class="st3" d="M293.1-17c-4.4,4.2-10.3,5.6-16.6,4.1c-6-1.5-11.7-3.8-17.4-6c-5-2-6.5-1.9-10.3,1.8c-1.9,1.9-3.9,3.7-6,5.4
				c-13.6,10.8-27.4,11.8-42.5,3c-2.2-1.3-4.3-2.8-6.4-4.2c-4.4-2.9-7.5-2.3-10.4,2c-0.3,0.5-0.6,1-1,1.5
				c-7.2,11.5-17.6,16.9-31.2,16.1c-2.6-0.1-5.1-0.3-7.7-0.3c-4.4,0-6,1.5-6.9,5.8c-1,4.7-1.8,9.4-3.4,13.9
				c-3.6,10.3-10.8,16.9-21.2,20.2c-6.7,2.1-7.9,4.4-5.6,11.2c2.8,8.1,2,15.8-2.5,23.1c-1.4,2.2-2.9,4.2-4.3,6.4
				c-1.8,2.6-1.9,5.5,0.4,7.7c9.4,9,9.6,19.9,7.1,31.4c-0.2,0.8-0.4,1.6-0.5,2.4c-1.7,7.6-1.5,8.1,5.1,12.1
				c8.5,5.2,11.9,13.1,12.3,22.6c0.1,2.3,0.1,4.7-0.3,7c-0.9,5.1,0.2,9,4.5,12.5c6.5,5.3,11.3,12.1,12.9,20.6
				c1.8,9.6-2.6,18.7-11.4,23.9c-8.8,5.2-19,4.7-26.5-1.4c-5.8-4.7-9.3-11-11.2-18.1c-1.2-4.4-3.4-7.1-7.8-8.4
				c-2.5-0.7-4.9-2.1-7.3-3.4c-15-8.1-19.7-19.7-14.7-36c0.3-1.1,0.8-2.2,1.1-3.3c1.6-4.7,0.7-7.2-3.6-9.6c-1.3-0.7-2.7-1.5-3.9-2.2
				c-13.2-8.1-17.5-17.5-14.7-32.7c0.5-2.5,0.9-5.1,1.9-7.4c2.1-4.9,1.1-8.7-2.6-12.6c-5.2-5.4-8.6-11.9-10-19.3
				c-2.3-12.8,2.3-23.7,9.6-33.6c3.6-4.9,7.8-9.3,12.1-13.5c2.9-2.8,3.7-5.7,3.4-9.7c-0.5-6.5-1.1-13.1-0.2-19.5
				c2.3-16,12.1-25.1,29.2-27.9c4.7-0.8,9.5-1.1,14.3-1.4c4.8-0.3,6.2-1.4,7.9-5.9c1.9-5.1,3.8-10.3,6.4-15.1
				c10-18.6,24.9-25.4,45.5-20.7c5,1.1,9.9,2.7,14.6,4.6c4.5,1.9,7.7,1.2,11.2-2.3c3.9-3.9,8.3-7.5,13-10.5
				c11.7-7.6,24.2-8.1,36.5-1.6c5,2.6,9.7,6,14.1,9.6c3.7,3.1,6.9,3.5,11.4,1.7c5.5-2.1,11.3-3.8,17.1-4.2
				c9.2-0.6,16.2,4.2,21.8,11.3c1.9,2.5,3.6,5.1,5.2,7.8c3.6,6.1,5.3,6.8,11.8,4c8.5-3.6,18.2-1.6,24.4,5c6.3,6.8,7.7,16.9,3.4,25
				c-4.4,8.4-14.1,13.1-23.2,11.2c-9.7-2-16.6-9.6-17.5-19.3c-0.1-0.8-0.1-1.6-0.2-2.4c-0.6-3.8-3.1-6-6.6-5.9
				c-3.5,0.2-6.4,2.9-6,6.8C290.5-28.4,291.9-23.1,293.1-17z"/>
		</g>
	</g>
	<g class="st1">
		<g>
			<path d="M144.5,328.7c4-4,7.4-9,12.1-11.7c3.7-2.2,5.2-4.1,5.8-8.1c0.6-3.8,2.5-7.5,3.9-11.5c-4.6-4.9-5.4-11.4-5.6-18.2
				c-0.1-3.7,2-6.2,5.1-6.2c3,0,4.8,2.3,5.2,5.9c0.3,3.6,0.9,7.2,1.4,11c5.2-2.8,9.5-5.1,14.1-7.6c-1-1.8-2.2-3.9-3.3-6
				c-2.1-3.9-1.3-7.6,2-9.4c3.2-1.8,6.7-0.6,8.9,2.9c0.5,0.8,1,1.6,1.4,2.4c2.9,6,6.2,11.1,13.7,12.3c3,0.5,5.7,3,9,4.8
				c5.3-4.5,11.7-7.5,19.7-7.8c0-3.4,0-6.8,0-10.1c0.1-4.7,2.5-7.6,6.4-7.6c3.8,0,6.3,3,6.4,7.7c0,3,0.1,6.1,0,9.1
				c-0.1,2,0.6,3.1,2.6,3.3c0.3,0,0.7,0.2,1,0.3c3.6,1,7.4,3.4,10.6,2.8c3.2-0.7,5.8-4.4,8.9-6.9c-1.4-1.7-2.8-3.3-4.1-5.1
				c-2.3-3.1-2-6.9,0.7-9.1c2.7-2.2,6.8-2.2,8.7,0.9c4,6.4,8.8,7.6,15.9,5.5c4.6-1.3,9.9-0.2,15.2-0.2c0-3.5,0-7.3,0-11.2
				c0.1-4.5,2.5-7.3,6.3-7.2c3.8,0,6.2,2.8,6.3,7.3c0.1,3.6,0.5,7.3,0,10.8c-0.7,5.2,1.6,7.7,6.5,9.1c5.4-7.1,12.2-12.9,21.3-16.1
				c-1.3-3-2.6-5.8-3.8-8.7c-1.9-4.3-0.8-7.9,2.8-9.5c3.5-1.5,6.7,0,8.7,4.2c1.4,3.1,2.9,6.1,4.2,9.2c1.6,4,5,1.8,7.6,2.1
				c0.6,0.1,1.9-1.8,2.3-2.9c1.3-3.4,2.1-6.9,3.4-10.3c1.3-3.2,3.1-6.2,4.9-9.6c-2-1.8-4-3.6-6.1-5.5c-3.6-3.3-4.1-6.8-1.5-9.8
				c2.5-2.9,6.4-2.8,9.9,0.2c2.1,1.8,4.2,3.7,6.3,5.6c0.2,0.2,0.4,0.2,0.5,0.3c3-1.6,6.1-3.1,8.9-4.9c0.7-0.4,1.2-1.8,1.2-2.7
				c-0.1-5.1-0.4-10.2-0.7-16.1c-3-1.8-7-4-10.8-6.3c-4.3-2.5-5.6-6.1-3.5-9.5c2-3.3,5.7-3.8,9.8-1.5c3.3,1.9,6.6,3.8,10.1,5.8
				c0.8-1.2,1.5-2.3,1.9-2.9c-2.1-4.3-4.4-8.2-5.8-12.3c-1.4-4-1.7-8.4-2.6-12.8c-2.6,0.8-5.4,1.7-8.2,2.4c-4.1,1.1-7.3-0.5-8.4-4.1
				c-1.1-3.5,0.7-6.7,4.8-8c3.6-1.2,7.4-2.2,11-3.3c1.2-0.4,2.3-0.9,3.4-1.3c0.2-0.4,0.4-0.8,0.6-1.2c-0.8-0.4-1.8-0.6-2.4-1.3
				c-3.8-4.2-7.7-8.4-11-12.9c-1.3-1.7-2.2-2.4-4.2-1.7c-1.3,0.5-2.7,0.8-4.1,1.1c-3.7,0.7-6.8-1.2-7.7-4.4
				c-0.9-3.5,0.9-6.7,4.6-7.9c2.1-0.7,4.3-1.2,7-1.9c0-4.2,0.2-8.5-0.1-12.7c-0.1-1.3-1.8-2.6-2.9-4c-3.7,2.2-7,4.2-10.4,6.2
				c-3.9,2.3-7.5,1.7-9.5-1.5c-2-3.3-0.9-6.9,3.1-9.4c2.8-1.7,5.5-3.4,8.3-5c-7.5-17.7-7.9-21.2-3.8-35.4c-2.7-1.6-5.5-3.2-8.3-4.9
				c-3.7-2.3-4.8-6-2.8-9.2c1.9-3.1,5.4-3.8,9.2-1.7c3,1.6,5.9,3.4,8.9,5.1c2-1.6,4.1-3.1,5.9-4.9c0.6-0.5,0.7-1.9,0.5-2.7
				c-0.5-2.4-1.2-4.7-1.9-7.1c-1.5-5.7-1.1-7,3.4-10.5c1.4,0,2.8,0,4.2,0c5.5,3.1,4.5,9.3,6.9,14.2c2.6-0.3,5.2-0.8,7.9-0.8
				c16.6,0.1,27.8,8.7,34.4,23.2c2.8,6.3,6.4,10.3,12.7,13.4c11.7,5.7,20.1,14.7,22.6,28.1c1.4,7.6,0.3,15.1-1.8,22.4
				c2.1,1.5,4.2,2.8,6.1,4.3c9.1,6.8,15.3,15.7,15.9,27.1c0.4,7-1,14.1-2,21.1c-0.3,2.3-0.1,3.7,1.1,5.7c3.5,5.6,6.6,11.4,9.5,17.4
				c1.2,2.4,1.5,5.3,2.3,8c0,4,0,7.9,0,11.9c-0.4,1.4-0.8,2.9-1.1,4.3c-3.2,15-11.7,26.7-22.2,37.3c-1.5,1.5-2.1,3-2,5.2
				c0.2,5.6,0.6,11.2,0,16.8c-1.8,18.3-10.9,31.6-28.5,37.9c-6.9,2.5-14.5,3.3-21.8,4.6c-2.2,0.4-3,1.1-3.9,3
				c-3.2,6.6-6.2,13.4-10.2,19.4c-7.5,11.3-18.2,18.2-31.8,20.3c-12.1,1.9-23.7-0.4-35-4.6c-2.1-0.8-3.5-0.6-5.2,1.1
				c-6.3,6-13.4,10.9-21.6,13.9c-3.5,1.3-7.1,2.1-10.6,3.1c-3.7,0-7.5,0-11.2,0c-12.1-2.2-22.6-7.5-32.1-15.2
				c-0.7-0.6-2.3-0.3-3.4,0c-5.8,1.2-11.5,3.4-17.3,3.7c-16.1,0.8-27.6-7.4-36.3-20.3c-1.3-1.9-2.2-2.5-4.7-2
				c-17.4,4.1-34.2-5.1-40.4-21.8c-0.3-0.8-0.7-1.6-1.4-3.3c-2.7,2.9-5.2,5.1-7.3,7.7c-3.7,4.5-6.6,4.7-10.3,0.1
				C144.5,331.1,144.5,329.9,144.5,328.7z M227,298.9c1.2,6.1,2.6,11.3,3.2,16.7c0.5,3.9-2.4,6.6-6,6.8c-3.5,0.1-6-2.1-6.6-5.9
				c-0.1-0.8-0.2-1.6-0.2-2.4c-0.9-9.7-7.7-17.3-17.5-19.3c-9.2-1.9-18.8,2.7-23.2,11.2c-4.3,8.2-2.9,18.2,3.4,25
				c6.2,6.6,16,8.7,24.4,5c6.5-2.8,8.2-2.2,11.8,4c1.6,2.7,3.3,5.4,5.2,7.8c5.5,7,12.6,11.9,21.8,11.3c5.8-0.4,11.7-2.1,17.1-4.2
				c4.5-1.8,7.7-1.4,11.4,1.7c4.4,3.6,9.1,7,14.1,9.6c12.3,6.5,24.8,6,36.5-1.6c4.7-3,9.1-6.6,13-10.5c3.5-3.5,6.7-4.2,11.2-2.3
				c4.7,1.9,9.7,3.5,14.6,4.6c20.6,4.7,35.6-2.1,45.5-20.7c2.6-4.8,4.4-10,6.4-15.1c1.7-4.5,3.2-5.6,7.9-5.9
				c4.8-0.3,9.6-0.6,14.3-1.4c17-2.8,26.9-11.9,29.2-27.9c0.9-6.4,0.3-13-0.2-19.5c-0.3-3.9,0.4-6.8,3.4-9.7
				c4.3-4.2,8.5-8.7,12.1-13.5c7.3-9.9,12-20.8,9.6-33.6c-1.4-7.4-4.8-14-10-19.3c-3.7-3.9-4.8-7.6-2.6-12.6c1-2.3,1.5-4.9,1.9-7.4
				c2.7-15.3-1.5-24.6-14.7-32.7c-1.3-0.8-2.6-1.5-3.9-2.2c-4.3-2.4-5.2-4.8-3.6-9.6c0.4-1.1,0.8-2.2,1.1-3.3
				c5.1-16.3,0.4-27.9-14.7-36c-2.4-1.3-4.7-2.7-7.3-3.4c-4.4-1.3-6.7-4.1-7.8-8.4c-1.9-7.1-5.4-13.4-11.2-18.1
				c-7.5-6.1-17.7-6.6-26.5-1.4c-8.8,5.2-13.2,14.4-11.4,23.9c1.6,8.6,6.5,15.3,12.9,20.6c4.3,3.6,5.4,7.4,4.5,12.5
				c-0.4,2.3-0.4,4.7-0.3,7c0.4,9.5,3.8,17.5,12.3,22.6c6.6,4,6.8,4.5,5.1,12.1c-0.2,0.8-0.4,1.6-0.5,2.4
				c-2.5,11.6-2.3,22.5,7.1,31.4c2.3,2.2,2.1,5.1,0.4,7.7c-1.4,2.1-3,4.2-4.3,6.4c-4.6,7.3-5.3,15-2.5,23.1c2.3,6.8,1.2,9-5.6,11.2
				c-10.4,3.3-17.6,9.9-21.2,20.2c-1.6,4.5-2.4,9.2-3.4,13.9c-0.9,4.3-2.5,5.8-6.9,5.8c-2.6,0-5.1-0.2-7.7-0.3
				c-13.6-0.7-24,4.6-31.2,16.1c-0.3,0.5-0.6,1-1,1.5c-2.9,4.3-6,4.9-10.4,2c-2.2-1.4-4.2-2.9-6.4-4.2c-15.1-8.8-28.9-7.9-42.5,3
				c-2.1,1.7-4,3.5-6,5.4c-3.8,3.7-5.3,3.8-10.3,1.8c-5.7-2.3-11.5-4.6-17.4-6C237.3,293.3,231.4,294.7,227,298.9z"/>
			<path class="st3" d="M502.9,209c-0.7-2.7-1-5.5-2.3-8c-2.9-5.9-6.1-11.7-9.5-17.4c-1.2-2-1.4-3.5-1.1-5.7c1-7,2.4-14.1,2-21.1
				c-0.6-11.5-6.8-20.3-15.9-27.1c-1.9-1.5-4-2.8-6.1-4.3c2.2-7.4,3.3-14.8,1.8-22.4c-2.5-13.3-11-22.4-22.6-28.1
				c-6.3-3.1-9.8-7.1-12.7-13.4c-6.5-14.5-17.8-23.1-34.4-23.2c-2.6,0-5.3,0.5-7.9,0.8c-2.4-4.9-1.4-11.1-6.9-14.2
				c38.5,0,77,0,115.5,0C502.9,86.3,502.9,147.7,502.9,209z"/>
			<path class="st3" d="M227,298.9c4.4-4.2,10.3-5.6,16.6-4.1c6,1.5,11.7,3.8,17.4,6c5,2,6.5,1.9,10.3-1.8c1.9-1.9,3.9-3.7,6-5.4
				c13.6-10.8,27.4-11.8,42.5-3c2.2,1.3,4.3,2.8,6.4,4.2c4.4,2.9,7.5,2.3,10.4-2c0.3-0.5,0.6-1,1-1.5c7.2-11.5,17.6-16.9,31.2-16.1
				c2.6,0.1,5.1,0.3,7.7,0.3c4.4,0,6-1.5,6.9-5.8c1-4.7,1.8-9.4,3.4-13.9c3.6-10.3,10.8-16.9,21.2-20.2c6.7-2.1,7.9-4.4,5.6-11.2
				c-2.8-8.1-2-15.8,2.5-23.1c1.4-2.2,2.9-4.2,4.3-6.4c1.8-2.6,1.9-5.5-0.4-7.7c-9.4-9-9.6-19.9-7.1-31.4c0.2-0.8,0.4-1.6,0.5-2.4
				c1.7-7.6,1.5-8.1-5.1-12.1c-8.5-5.2-11.9-13.1-12.3-22.6c-0.1-2.3-0.1-4.7,0.3-7c0.9-5.1-0.2-9-4.5-12.5
				c-6.5-5.3-11.3-12.1-12.9-20.6c-1.8-9.6,2.6-18.7,11.4-23.9c8.8-5.2,19-4.7,26.5,1.4c5.8,4.7,9.3,11,11.2,18.1
				c1.2,4.4,3.4,7.1,7.8,8.4c2.5,0.7,4.9,2.1,7.3,3.4c15,8.1,19.7,19.7,14.7,36c-0.3,1.1-0.8,2.2-1.1,3.3c-1.6,4.7-0.7,7.2,3.6,9.6
				c1.3,0.7,2.7,1.5,3.9,2.2c13.2,8.1,17.5,17.5,14.7,32.7c-0.5,2.5-0.9,5.1-1.9,7.4c-2.1,4.9-1.1,8.7,2.6,12.6
				c5.2,5.4,8.6,11.9,10,19.3c2.3,12.8-2.3,23.7-9.6,33.6c-3.6,4.9-7.8,9.3-12.1,13.5c-2.9,2.8-3.7,5.7-3.4,9.7
				c0.5,6.5,1.1,13.1,0.2,19.5c-2.3,16-12.1,25.1-29.2,27.9c-4.7,0.8-9.5,1.1-14.3,1.4c-4.8,0.3-6.2,1.4-7.9,5.9
				c-1.9,5.1-3.8,10.3-6.4,15.1c-10,18.6-24.9,25.4-45.5,20.7c-5-1.1-9.9-2.7-14.6-4.6c-4.5-1.9-7.7-1.2-11.2,2.3
				c-3.9,3.9-8.3,7.5-13,10.5c-11.7,7.6-24.2,8.1-36.5,1.6c-5-2.6-9.7-6-14.1-9.6c-3.7-3.1-6.9-3.5-11.4-1.7
				c-5.5,2.1-11.3,3.8-17.1,4.2c-9.2,0.6-16.2-4.2-21.8-11.3c-1.9-2.5-3.6-5.1-5.2-7.8c-3.6-6.1-5.3-6.8-11.8-4
				c-8.5,3.6-18.2,1.6-24.4-5c-6.3-6.8-7.7-16.9-3.4-25c4.4-8.4,14.1-13.1,23.2-11.2c9.7,2,16.6,9.6,17.5,19.3
				c0.1,0.8,0.1,1.6,0.2,2.4c0.6,3.8,3.1,6,6.6,5.9c3.5-0.2,6.4-2.9,6-6.8C229.6,310.3,228.2,305,227,298.9z"/>
		</g>
	</g>
	<g class="st1">
		<g>
			<path d="M381.2,194.4c-2.1,2.5-3.7,2.5-5.8-0.1c-1.2-1.4-2.5-2.7-4.1-4.3c-0.4,1-0.6,1.4-0.8,1.9c-3.5,9.3-12.9,14.5-22.6,12.2
				c-1.4-0.3-1.9,0-2.6,1.1c-4.8,7.2-11.3,11.8-20.3,11.4c-3.3-0.2-6.5-1.4-9.7-2.1c-0.6-0.1-1.5-0.3-1.9,0
				c-5.3,4.3-11.2,7.3-18,8.5c-2.1,0-4.2,0-6.3,0c-2-0.6-4-1-6-1.7c-4.6-1.7-8.6-4.4-12.1-7.8c-0.9-0.9-1.7-1-2.9-0.6
				c-6.3,2.3-12.8,3.6-19.6,2.6c-7.6-1.2-13.6-5.1-17.8-11.4c-2.3-3.4-4-7.2-5.7-10.9c-0.5-1.1-1-1.5-2.2-1.7
				c-4.1-0.7-8.3-1.2-12.2-2.6c-9.9-3.5-14.9-11-16-21.2c-0.3-3.1-0.1-6.3,0-9.4c0.1-1.2-0.3-2-1.1-2.9
				c-5.9-5.9-10.6-12.5-12.4-20.9c-0.2-0.8-0.4-1.6-0.6-2.4c0-2.2,0-4.4,0-6.7c0.4-1.5,0.6-3.1,1.3-4.5c1.6-3.3,3.4-6.6,5.3-9.7
				c0.7-1.1,0.8-1.9,0.6-3.2c-0.6-3.9-1.3-7.9-1.1-11.8c0.3-6.4,3.8-11.4,8.9-15.2c1.1-0.8,2.2-1.6,3.4-2.4c-1.2-4.1-1.8-8.3-1-12.6
				c1.4-7.5,6.1-12.5,12.7-15.7c3.5-1.7,5.5-4,7.1-7.5c3.7-8.1,10-12.9,19.2-13c1.5,0,3,0.3,4.4,0.4c1.3-2.7,0.8-6.2,3.8-7.9
				c0.8,0,1.6,0,2.4,0c2.5,1.9,2.7,2.7,1.9,5.9c-0.4,1.3-0.8,2.6-1.1,4c-0.1,0.5,0,1.2,0.3,1.5c1,1,2.2,1.8,3.3,2.7
				c1.7-1,3.3-2,5-2.9c2.1-1.2,4.1-0.8,5.2,1c1.1,1.8,0.5,3.9-1.6,5.1c-1.5,0.9-3.1,1.8-4.7,2.7c2.3,8,2.1,9.9-2.1,19.8
				c1.5,0.9,3.1,1.9,4.6,2.8c2.2,1.4,2.9,3.4,1.7,5.3c-1.1,1.8-3.1,2.1-5.3,0.9c-1.9-1.1-3.8-2.2-5.8-3.5c-0.6,0.8-1.5,1.5-1.6,2.3
				c-0.2,2.4-0.1,4.8-0.1,7.1c1.5,0.4,2.8,0.7,3.9,1.1c2.1,0.7,3.1,2.5,2.6,4.4c-0.5,1.8-2.2,2.8-4.3,2.5c-0.8-0.1-1.5-0.3-2.3-0.6
				c-1.1-0.4-1.6,0-2.3,0.9c-1.9,2.5-4.1,4.9-6.2,7.2c-0.3,0.4-0.9,0.5-1.3,0.7c0.1,0.2,0.2,0.5,0.4,0.7c0.6,0.2,1.3,0.5,1.9,0.7
				c2.1,0.6,4.1,1.2,6.2,1.8c2.3,0.7,3.3,2.5,2.7,4.5c-0.6,2-2.4,2.9-4.7,2.3c-1.6-0.4-3.1-0.9-4.6-1.3c-0.5,2.5-0.7,4.9-1.4,7.1
				c-0.8,2.3-2.1,4.5-3.3,6.9c0.2,0.3,0.6,0.9,1,1.6c1.9-1.1,3.8-2.2,5.7-3.3c2.3-1.3,4.4-1,5.5,0.8c1.2,1.9,0.5,3.9-1.9,5.3
				c-2.2,1.3-4.4,2.5-6.1,3.5c-0.2,3.3-0.3,6.2-0.4,9c0,0.5,0.3,1.3,0.7,1.5c1.6,1,3.3,1.8,5,2.7c0.1,0,0.2-0.1,0.3-0.2
				c1.2-1,2.3-2.1,3.5-3.1c1.9-1.7,4.1-1.7,5.5-0.1c1.5,1.7,1.1,3.7-0.9,5.5c-1.1,1-2.3,2.1-3.4,3.1c1,1.9,2,3.6,2.8,5.4
				c0.8,1.9,1.2,3.9,1.9,5.7c0.2,0.6,0.9,1.7,1.3,1.6c1.4-0.2,3.3,1.1,4.2-1.2c0.7-1.8,1.5-3.5,2.3-5.2c1.1-2.3,2.9-3.2,4.8-2.3
				c2,0.9,2.6,2.9,1.6,5.3c-0.7,1.6-1.4,3.2-2.1,4.9c5.1,1.8,8.9,5,11.9,9c2.7-0.8,4-2.2,3.6-5.1c-0.3-2-0.1-4,0-6.1
				c0.1-2.5,1.4-4.1,3.6-4.1c2.1,0,3.5,1.5,3.5,4.1c0,2.1,0,4.3,0,6.3c3,0,5.9-0.6,8.5,0.1c4,1.1,6.7,0.5,8.9-3.1
				c1.1-1.7,3.4-1.7,4.9-0.5c1.5,1.2,1.7,3.3,0.4,5.1c-0.7,1-1.5,1.9-2.3,2.8c1.7,1.4,3.2,3.5,5,3.9c1.8,0.4,4-1,5.9-1.5
				c0.2-0.1,0.4-0.2,0.6-0.2c1.1-0.1,1.5-0.7,1.4-1.9c-0.1-1.7,0-3.4,0-5.1c0-2.6,1.4-4.3,3.6-4.3c2.2,0,3.5,1.6,3.6,4.3
				c0,1.9,0,3.7,0,5.7c4.5,0.2,8.1,1.8,11,4.4c1.8-1,3.4-2.4,5-2.7c4.2-0.7,6-3.6,7.6-6.9c0.2-0.5,0.5-0.9,0.8-1.4
				c1.2-2,3.2-2.6,5-1.7c1.9,1,2.3,3.1,1.1,5.3c-0.6,1.2-1.3,2.3-1.8,3.4c2.6,1.4,5,2.7,7.9,4.2c0.3-2.1,0.6-4.1,0.8-6.1
				c0.2-2,1.2-3.3,2.9-3.3c1.7,0,2.9,1.4,2.9,3.5c-0.1,3.8-0.5,7.4-3.1,10.2c0.8,2.3,1.8,4.3,2.2,6.5c0.4,2.2,1.2,3.3,3.3,4.5
				c2.6,1.5,4.6,4.3,6.8,6.6C381.2,193.1,381.2,193.8,381.2,194.4z M325.7,173.5c-3.3,0.8-6.6,2.1-9.8,3.4c-2.8,1.1-3.6,1-5.8-1
				c-1.1-1-2.2-2.1-3.3-3c-7.6-6.1-15.3-6.6-23.8-1.7c-1.2,0.7-2.4,1.6-3.6,2.4c-2.5,1.6-4.2,1.3-5.8-1.1c-0.2-0.3-0.4-0.5-0.5-0.8
				c-4-6.5-9.9-9.5-17.5-9c-1.4,0.1-2.9,0.2-4.3,0.2c-2.4,0-3.3-0.9-3.9-3.3c-0.6-2.6-1-5.3-1.9-7.8c-2-5.7-6-9.5-11.8-11.3
				c-3.8-1.2-4.4-2.5-3.1-6.2c1.6-4.5,1.1-8.9-1.4-13c-0.8-1.2-1.6-2.4-2.4-3.6c-1-1.5-1.1-3.1,0.2-4.3c5.3-5,5.4-11.1,4-17.6
				c-0.1-0.4-0.2-0.9-0.3-1.3c-0.9-4.3-0.9-4.5,2.9-6.8c4.8-2.9,6.6-7.3,6.9-12.7c0.1-1.3,0-2.6-0.2-3.9c-0.5-2.9,0.1-5,2.5-7
				c3.6-3,6.3-6.8,7.2-11.6c1-5.4-1.5-10.5-6.4-13.4c-4.9-2.9-10.6-2.6-14.9,0.8c-3.3,2.6-5.2,6.2-6.3,10.2c-0.7,2.4-1.9,4-4.4,4.7
				c-1.4,0.4-2.8,1.2-4.1,1.9c-8.4,4.5-11.1,11.1-8.2,20.2c0.2,0.6,0.4,1.2,0.6,1.9c0.9,2.6,0.4,4-2,5.4c-0.7,0.4-1.5,0.8-2.2,1.3
				c-7.4,4.6-9.8,9.8-8.2,18.3c0.3,1.4,0.5,2.9,1.1,4.2c1.2,2.8,0.6,4.9-1.5,7c-2.9,3-4.8,6.6-5.6,10.8c-1.3,7.2,1.3,13.3,5.4,18.8
				c2,2.7,4.3,5.2,6.8,7.6c1.6,1.6,2.1,3.2,1.9,5.4c-0.3,3.6-0.6,7.4-0.1,10.9c1.3,9,6.8,14.1,16.3,15.6c2.6,0.4,5.3,0.6,8,0.8
				c2.7,0.2,3.5,0.8,4.4,3.3c1.1,2.9,2.1,5.8,3.6,8.5c5.6,10.4,14,14.2,25.5,11.6c2.8-0.6,5.6-1.5,8.2-2.6c2.5-1,4.3-0.7,6.3,1.3
				c2.2,2.2,4.7,4.2,7.3,5.9c6.6,4.3,13.5,4.5,20.4,0.9c2.8-1.5,5.5-3.4,7.9-5.4c2.1-1.7,3.9-1.9,6.4-0.9c3.1,1.2,6.4,2.1,9.6,2.3
				c5.1,0.4,9.1-2.4,12.2-6.3c1.1-1.4,2-2.9,2.9-4.4c2-3.4,3-3.8,6.6-2.2c4.7,2,10.2,0.9,13.7-2.8c3.5-3.8,4.3-9.4,1.9-14
				c-2.5-4.7-7.9-7.3-13-6.3c-5.4,1.1-9.3,5.4-9.8,10.8c0,0.5-0.1,0.9-0.1,1.4c-0.3,2.1-1.7,3.4-3.7,3.3c-2-0.1-3.6-1.6-3.3-3.8
				c0.3-3,1.1-6,1.8-9.4C332.6,173.4,329.2,172.6,325.7,173.5z"/>
			<path class="st3" d="M180.5,125.4c0.4-1.5,0.6-3.1,1.3-4.5c1.6-3.3,3.4-6.6,5.3-9.7c0.7-1.1,0.8-1.9,0.6-3.2
				c-0.6-3.9-1.3-7.9-1.1-11.8c0.3-6.4,3.8-11.4,8.9-15.2c1.1-0.8,2.2-1.6,3.4-2.4c-1.2-4.1-1.8-8.3-1-12.6
				c1.4-7.5,6.1-12.5,12.7-15.7c3.5-1.7,5.5-4,7.1-7.5c3.7-8.1,10-12.9,19.2-13c1.5,0,3,0.3,4.4,0.4c1.3-2.7,0.8-6.2,3.8-7.9
				c-21.6,0-43.1,0-64.7,0C180.5,56.7,180.5,91.1,180.5,125.4z"/>
			<path class="st3" d="M335,175.8c-2.4-2.3-5.8-3.2-9.3-2.3c-3.3,0.8-6.6,2.1-9.8,3.4c-2.8,1.1-3.6,1-5.8-1c-1.1-1-2.2-2.1-3.3-3
				c-7.6-6.1-15.3-6.6-23.8-1.7c-1.2,0.7-2.4,1.6-3.6,2.4c-2.5,1.6-4.2,1.3-5.8-1.1c-0.2-0.3-0.4-0.5-0.5-0.8c-4-6.5-9.9-9.5-17.5-9
				c-1.4,0.1-2.9,0.2-4.3,0.2c-2.4,0-3.3-0.9-3.9-3.3c-0.6-2.6-1-5.3-1.9-7.8c-2-5.7-6-9.5-11.8-11.3c-3.8-1.2-4.4-2.5-3.1-6.2
				c1.6-4.5,1.1-8.9-1.4-13c-0.8-1.2-1.6-2.4-2.4-3.6c-1-1.5-1.1-3.1,0.2-4.3c5.3-5,5.4-11.1,4-17.6c-0.1-0.4-0.2-0.9-0.3-1.3
				c-0.9-4.3-0.9-4.5,2.9-6.8c4.8-2.9,6.6-7.3,6.9-12.7c0.1-1.3,0-2.6-0.2-3.9c-0.5-2.9,0.1-5,2.5-7c3.6-3,6.3-6.8,7.2-11.6
				c1-5.4-1.5-10.5-6.4-13.4c-4.9-2.9-10.6-2.6-14.9,0.8c-3.3,2.6-5.2,6.2-6.3,10.2c-0.7,2.4-1.9,4-4.4,4.7
				c-1.4,0.4-2.8,1.2-4.1,1.9c-8.4,4.5-11.1,11.1-8.2,20.2c0.2,0.6,0.4,1.2,0.6,1.9c0.9,2.6,0.4,4-2,5.4c-0.7,0.4-1.5,0.8-2.2,1.3
				c-7.4,4.6-9.8,9.8-8.2,18.3c0.3,1.4,0.5,2.9,1.1,4.2c1.2,2.8,0.6,4.9-1.5,7c-2.9,3-4.8,6.6-5.6,10.8c-1.3,7.2,1.3,13.3,5.4,18.8
				c2,2.7,4.3,5.2,6.8,7.6c1.6,1.6,2.1,3.2,1.9,5.4c-0.3,3.6-0.6,7.4-0.1,10.9c1.3,9,6.8,14.1,16.3,15.6c2.6,0.4,5.3,0.6,8,0.8
				c2.7,0.2,3.5,0.8,4.4,3.3c1.1,2.9,2.1,5.8,3.6,8.5c5.6,10.4,14,14.2,25.5,11.6c2.8-0.6,5.6-1.5,8.2-2.6c2.5-1,4.3-0.7,6.3,1.3
				c2.2,2.2,4.7,4.2,7.3,5.9c6.6,4.3,13.5,4.5,20.4,0.9c2.8-1.5,5.5-3.4,7.9-5.4c2.1-1.7,3.9-1.9,6.4-0.9c3.1,1.2,6.4,2.1,9.6,2.3
				c5.1,0.4,9.1-2.4,12.2-6.3c1.1-1.4,2-2.9,2.9-4.4c2-3.4,3-3.8,6.6-2.2c4.7,2,10.2,0.9,13.7-2.8c3.5-3.8,4.3-9.4,1.9-14
				c-2.5-4.7-7.9-7.3-13-6.3c-5.4,1.1-9.3,5.4-9.8,10.8c0,0.5-0.1,0.9-0.1,1.4c-0.3,2.1-1.7,3.4-3.7,3.3c-2-0.1-3.6-1.6-3.3-3.8
				C333.6,182.1,334.4,179.2,335,175.8z"/>
		</g>
	</g>
</g>
<g id="Layer_3" class="st0">
	<g id="VUNKWALA" class="st1">
		<g>
			<g id="_x34_drmx3.tif_8_">
				<g>
					<path class="st4" d="M363,170.3c0,1-0.2,1.7-1.2,2.2c-2.9,1.7-6,3.4-8.8,4.9c-0.5,0.3-0.7,0.7-0.7,1.2c0.3,2.2,0,4.2-1,6.3
						c-0.5,1-0.3,1.5,0.3,2.4c2,2.4,3.9,4.8,5.8,7.1c0.7,0.7,0.7,1.5-0.2,2.2c-0.7,0.7-1.7,0.5-2.4,0c-0.3-0.3-0.5-0.7-0.8-1
						c-1.5-2-3.2-3.9-4.8-5.9c-0.2-0.2-0.3-0.3-0.7-0.7c-0.5,0.3-1,0.9-1.5,1.2c-4.1,3.1-9.7,3.2-13.9,0.5c-0.8-0.5-1.4-0.5-2,0.2
						c-4.4,3.6-9.5,4.4-15,2.6c-0.7-0.2-1,0-1.4,0.3c-3.1,3.2-7,4.9-11.4,4.9c-0.7,0-0.9,0.2-1.2,0.9c-1.4,3.9-3.9,7-7.6,8.8
						c-0.3,0.2-0.7,0.7-0.5,0.9c0.3,3.7-0.5,7-2.7,10c-0.2,0.2-0.2,0.7,0,1c1.7,2.6,2.7,5.3,2.9,8.3c1.4,0.3,2.6,0.5,3.7,1
						c1.2,0.5,2.4,1,3.2,1.7c1.2,1,2.2,1,3.7,0.7c5.8-1.5,13.4,1.4,17,6.3c3.2,4.6,3.1,10.4-0.7,14.4c-2,2.4-4.9,3.7-8,4.4
						c-4.2,1-8.3,1.4-12.4-0.9c-0.3-0.2-0.9,0-1.2,0.2c-7.5,3.9-16.5,1.2-20.4-6.3c-1-1.9-1.4-4.2-2.2-6.5c0.2,0,0,0-0.2,0
						c-11.2-1.9-16.5-13.8-10.2-23.1c0.5-0.7,0.3-1.2-0.2-1.7c-4.9-7-2.2-17.7,5.4-21.4c0.9-0.3,1-0.9,0.9-1.7
						c-0.5-8.3,6.5-15.8,14.8-15.6c0.9,0,1.4-0.3,1.5-1.2c2.5-7.3,10.2-11.6,17.7-9.5c1.9,0.5,2.9,0.3,4.4-1
						c5.9-5.4,14.6-5.1,20.6,0.5c0.5,0.5,0.9,0.5,1.5,0.2c4.4-2.6,10-2.2,13.9,1c1.5,1.2,2.6,2.9,3.9,4.4c0,0,0.2,0,0.3-0.2
						c2.6-1.4,5.1-2.9,7.6-4.4c0.9-0.5,1.7-0.9,2.7-0.5C362.6,169.8,362.8,170,363,170.3z M318.8,239.5c-3.2-3.6-7.3-4.9-12.1-4.4
						c-0.9,0.2-1.9,0.5-2.7,1c-1.2,0.7-2,0.7-3.1-0.3c-2.4-2.2-5.1-3.4-8.2-3.4c-1.4,0-1.9-0.7-1.9-2c0.2-3.2-0.8-5.9-2.9-8.3
						c-1.2-1.4-1.2-1.9,0-3.2c2.4-2.7,3.1-6,2.5-9.5c-0.3-2-0.2-2.2,1.7-3.1c3.9-1.5,6.3-4.4,7.1-8.5c0.5-2,0.9-2.2,2.9-2
						c4.4,0.5,8-1.2,10.7-4.6c1.4-1.7,1.5-1.7,3.4-0.9c4.8,2.2,10.4,1,13.8-2.7c1.4-1.4,1.9-1.5,3.4-0.2c3.6,3.2,8.5,3.2,12.4,0
						c3.4-2.9,4.1-8.2,1.5-12.2c-2.2-3.6-7.3-5.1-11.4-3.2c-0.7,0.3-1.4,0.8-2,1.4c-1,0.9-1.9,0.7-2.7-0.3
						c-3.7-4.9-9.3-6.1-14.8-3.6c-1.7,0.9-3.1,2.2-4.2,3.7c-1,1.4-1.4,1.4-2.9,0.7c-7-3.6-15.1,0.3-16.7,8c-0.5,2-0.9,2.4-2.9,2
						c-7.5-0.8-13.9,6-12.8,13.4c0.3,2,0.2,2.4-1.7,3.1c-7.1,2.9-9.5,11.4-5.3,17.7c1.7,2.4,1.7,2.4,0,4.9
						c-2.5,3.7-2.7,7.7-0.9,11.7c2,4.1,5.4,6.3,10,6.5c2,0.2,2.2,0.3,2.2,2.6c0,4.8,2.2,8.3,6.3,10.5s8.2,1.9,11.9-0.7
						c1.2-0.9,1.5-0.7,2.9,0.2c1.2,0.7,2.5,1.2,3.7,1.4c4.1,0.5,8-0.5,10.9-2.4C322,248.7,322.5,243.4,318.8,239.5z"/>
					<path class="st5" d="M317.2,252.2c4.6-3.6,5.1-8.7,1.5-12.8c-3.2-3.6-7.3-4.9-12.1-4.4c-0.9,0.2-1.9,0.5-2.7,1
						c-1.2,0.7-2,0.7-3.1-0.3c-2.4-2.2-5.1-3.4-8.2-3.4c-1.4,0-1.9-0.7-1.9-2c0.2-3.2-0.8-5.9-2.9-8.3c-1.2-1.4-1.2-1.9,0-3.2
						c2.4-2.7,3.1-6,2.5-9.5c-0.3-2-0.2-2.2,1.7-3.1c3.9-1.5,6.3-4.4,7.1-8.5c0.5-2,0.9-2.2,2.9-2c4.4,0.5,8-1.2,10.7-4.6
						c1.4-1.7,1.5-1.7,3.4-0.9c4.8,2.2,10.4,1,13.8-2.7c1.4-1.4,1.9-1.5,3.4-0.2c3.6,3.2,8.5,3.2,12.4,0c3.4-2.9,4.1-8.2,1.5-12.2
						c-2.2-3.6-7.3-5.1-11.4-3.2c-0.7,0.3-1.4,0.8-2,1.4c-1,0.9-1.9,0.7-2.7-0.3c-3.7-4.9-9.3-6.1-14.8-3.6
						c-1.7,0.9-3.1,2.2-4.2,3.7c-1,1.4-1.4,1.4-2.9,0.7c-7-3.6-15.1,0.3-16.7,8c-0.5,2-0.9,2.4-2.9,2c-7.5-0.8-13.9,6-12.8,13.4
						c0.3,2,0.2,2.4-1.7,3.1c-7.1,2.9-9.5,11.4-5.3,17.7c1.7,2.4,1.7,2.4,0,4.9c-2.5,3.7-2.7,7.7-0.9,11.7c2,4.1,5.4,6.3,10,6.5
						c2,0.2,2.2,0.3,2.2,2.6c0,4.8,2.2,8.3,6.3,10.5s8.2,1.9,11.9-0.7c1.2-0.9,1.5-0.7,2.9,0.2c1.2,0.7,2.5,1.2,3.7,1.4
						C310.6,255.1,314.5,254.1,317.2,252.2z"/>
				</g>
			</g>
			<g id="_x34_drmx3.tif_9_">
				<g>
					<path class="st4" d="M294.8-34.4c0.7,0.7,1,1.4,0.7,2.4c-1,3.2-1.9,6.5-2.9,9.7c-0.2,0.7-0.2,1,0.3,1.4
						c1.7,1.4,3.1,3.1,3.6,5.1c0.3,1,0.9,1.4,1.9,1.4c3.1,0.3,6.1,0.7,9.2,1.2c1,0.2,1.5,0.7,1.5,1.7c0,0.8-0.9,1.5-1.7,1.5
						c-0.3,0-0.9-0.2-1.2-0.2c-2.6-0.3-5.1-0.7-7.7-1c-0.3,0-0.5,0-0.8,0c-0.2,0.7-0.2,1.4-0.3,1.9c-0.9,5.1-4.8,9-9.7,10
						c-1,0.2-1.2,0.5-1.4,1.5c-0.9,5.6-3.7,9.9-9,12.2c-0.7,0.3-0.7,0.7-0.7,1.2c0,4.4-1.5,8.3-4.8,11.4c-0.5,0.5-0.5,0.9-0.2,1.4
						c1.9,3.7,2,7.7,0.7,11.7c-0.2,0.3,0,0.8,0.2,1c2.9,2.4,4.4,5.4,5.1,9c0,0.3,0.3,0.7,0.7,0.7c2.9,0.7,5.6,2,7.8,3.9
						c1.2-0.7,2.2-1.4,3.4-1.9c1.2-0.5,2.4-1,3.6-1c1.5-0.2,2.2-0.8,3.1-2c3.1-5.1,10.5-8.3,16.5-7.3c5.6,1,9.4,5.3,9.7,10.9
						c0.2,3.2-0.8,6.1-2.7,8.7c-2.4,3.6-5.1,6.8-9.5,8c-0.3,0-0.5,0.5-0.7,0.8c-2.7,8-10.9,12.2-19,9.7c-2-0.7-3.9-2-6-3.2
						c0.2,0,0,0-0.2,0.2c-9.2,6.5-21.4,1.5-23.5-9.5c-0.2-0.8-0.5-1-1.2-1.2c-8.3-1.5-13.8-11.2-10.9-19.2c0.3-0.9,0.2-1.4-0.5-1.9
						c-6.3-5.6-6.3-15.8-0.2-21.6c0.7-0.7,0.7-1,0.3-1.9c-3.2-7-0.7-15.5,6.1-19.2c1.7-0.8,2.4-1.7,2.4-3.7
						c0.5-8.2,7-13.8,15.1-13.8c0.7,0,1-0.2,1.2-0.8c1.4-4.8,5.8-8.5,10.7-8.8c1.9-0.2,3.9,0.2,5.8,0.3c0,0,0.2-0.2,0.2-0.3
						c0.9-2.9,1.7-5.6,2.6-8.5c0.3-1,0.5-1.7,1.5-2.2C294.1-34.5,294.4-34.4,294.8-34.4z M310.9,46c-4.8-0.3-8.7,1.5-11.7,5.1
						c-0.5,0.7-0.9,1.7-1.2,2.5c-0.5,1.4-1,1.9-2.4,1.9c-3.2,0-6,1-8.3,3.2c-1,0.8-1.9,0.8-2.7-0.2c-2-2.4-4.8-3.7-7.8-4.1
						c-1.9-0.2-2-0.5-2.2-2.4c-0.3-3.6-1.9-6.5-4.8-8.7c-1.5-1.2-1.7-1.5-0.9-3.4c1.7-3.9,1.5-7.5-0.7-11c-1-1.7-1-2.2,0.7-3.6
						c3.6-2.7,4.9-6.5,4.4-10.7c-0.2-2-0.2-2.2,1.9-2.9c4.9-1.7,8.2-6.5,8-11.6c0-1.9,0.3-2.4,2.4-2.6c4.8-0.2,8.3-3.7,8.8-8.7
						c0.5-4.4-2.7-8.7-7.3-9.7c-4.1-1-8.8,1.5-10.5,5.6c-0.3,0.9-0.5,1.5-0.5,2.4c-0.2,1.4-0.8,1.9-2.2,1.7c-6.1-0.9-11,2-13.1,7.8
						c-0.7,1.9-0.9,3.7-0.5,5.6c0.2,1.7,0,2-1.5,2.6c-7.5,2.2-10.5,10.7-6.5,17.3c1.2,1.9,1,2.2-0.7,3.6c-5.9,4.6-5.9,13.9,0.2,18.5
						c1.5,1.2,1.7,1.5,0.9,3.4c-3.1,7,1,14.8,8.5,16.3c2.9,0.5,2.9,0.5,3.4,3.6c0.9,4.4,3.4,7.5,7.5,9c4.2,1.7,8.2,0.7,11.7-2.2
						c1.5-1.4,1.9-1.4,3.4,0.2c3.2,3.4,7.3,4.4,11.7,3.2c4.4-1.2,7.1-4.2,8.2-8.8c0.3-1.5,0.5-1.5,2-1.9c1.4-0.3,2.7-0.8,3.7-1.5
						c3.4-2.5,5.4-6,6.1-9.2C319.6,50.5,316.4,46.4,310.9,46z"/>
					<path class="st5" d="M318.8,56.2c0.8-5.8-2.4-9.9-7.8-10.2c-4.8-0.3-8.7,1.5-11.7,5.1c-0.5,0.7-0.9,1.7-1.2,2.5
						c-0.5,1.4-1,1.9-2.4,1.9c-3.2,0-6,1-8.3,3.2c-1,0.8-1.9,0.8-2.7-0.2c-2-2.4-4.8-3.7-7.8-4.1c-1.9-0.2-2-0.5-2.2-2.4
						c-0.3-3.6-1.9-6.5-4.8-8.7c-1.5-1.2-1.7-1.5-0.9-3.4c1.7-3.9,1.5-7.5-0.7-11c-1-1.7-1-2.2,0.7-3.6c3.6-2.7,4.9-6.5,4.4-10.7
						c-0.2-2-0.2-2.2,1.9-2.9c4.9-1.7,8.2-6.5,8-11.6c0-1.9,0.3-2.4,2.4-2.6c4.8-0.2,8.3-3.7,8.8-8.7c0.5-4.4-2.7-8.7-7.3-9.7
						c-4.1-1-8.8,1.5-10.5,5.6c-0.3,0.9-0.5,1.5-0.5,2.4c-0.2,1.4-0.9,1.9-2.2,1.7c-6.1-0.9-11,2-13.1,7.8c-0.7,1.9-0.8,3.7-0.5,5.6
						c0.2,1.7,0,2-1.5,2.6c-7.5,2.2-10.5,10.7-6.5,17.3c1.2,1.9,1,2.2-0.7,3.6c-5.9,4.6-5.9,13.9,0.2,18.5c1.5,1.2,1.7,1.5,0.8,3.4
						c-3.1,7,1,14.8,8.5,16.3c2.9,0.5,2.9,0.5,3.4,3.6c0.9,4.4,3.4,7.5,7.5,9c4.2,1.7,8.2,0.7,11.7-2.2c1.5-1.4,1.9-1.4,3.4,0.2
						c3.2,3.4,7.3,4.4,11.7,3.2c4.4-1.2,7.1-4.2,8.2-8.8c0.3-1.5,0.5-1.5,2-1.9c1.4-0.3,2.7-0.8,3.7-1.5
						C315.9,63,318.1,59.6,318.8,56.2z"/>
				</g>
			</g>
			<g id="_x34_drmx3.tif_1_">
				<g>
					<path class="st4" d="M232.4,98.1c-1.4-0.3-2.2-1.4-3.1-2.6c-2.2-3.6-4.6-7-6.8-10.5c-0.2-0.2-0.3-0.3-0.3-0.3
						c-2.7,1-5.3,2.4-7.8,3.1c-7,1.5-14.4-1.7-18.4-7.7c-0.5-0.8-1-1-2-0.7c-11.2,3.4-22.4-1.7-26.4-12.6c-1-2.7-2.2-3.6-4.9-4.1
						c-10.7-2.2-17.8-12.8-16.3-23.6c0.2-1.4-0.2-1.9-1.4-2.5c-10.7-5.4-14.8-19.4-8.7-29.6c0.7-1,0.7-1.7-0.2-2.7
						c-7.3-9.7-3.7-25.2,7-30.8c0.9-0.5,1.4-0.8,1.2-2c-1.7-16,12.8-27.7,28.1-22.8c0.2,0,0.3,0.2,0.2,0c2.4-2.4,4.4-5.1,7-6.8
						c9.9-7,22.9-4.6,29.9,5.3c0.3,0.3,0.9,0.8,1.4,0.8c6.5-0.2,11.6,2.9,16.3,7c3.4,2.9,6.1,6.5,7.1,10.9c2,7.8-1.5,15.1-8.7,18.9
						c-7.7,3.9-19.2,2.7-25.7-3.1c-1.7-1.5-2.9-2-5.1-1.5c-1.7,0.3-3.6,0.2-5.3,0c-1.7-0.2-3.6-0.7-5.3-1c-2.2,3.7-5.3,6.6-9,8.7
						c-0.3,0.2-0.7,0.9-0.5,1.4c0.7,5.3-0.3,10-3.2,14.4c-0.2,0.3-0.2,1.2,0.2,1.5c3.4,4.9,4.8,10.4,3.9,16.1
						c-0.2,0.9,0,1.4,0.8,1.7c5.6,2.9,9.5,7.5,11.2,13.6c0.2,0.8,0.5,1.2,1.5,1.4c8.2,1,13.9,5.4,17.3,12.9c0.5,1.2,1,1.5,2.6,1.5
						c7.1-0.9,14.1,3.2,17.3,9.7c0.3,0.8,0.7,1.5,1.2,2.4c0.3-0.2,0.9-0.2,1.2-0.3c3.4-1.5,6.6-3.1,10-4.4c0.5-0.2,1-0.5,1.7-0.7
						c1.4-0.3,2.7,0.2,3.1,1.4c0.5,1.4,0,2.4-1.4,2.9c-4.1,1.9-8,3.6-12.1,5.3c-1.4,0.5-1.9,1.2-1.9,2.7c0,3.1-1,5.9-2.9,8.5
						c-0.5,0.7-0.5,1.2,0,2c2.7,4.1,5.3,8.2,8,12.1c0.9,1.4,0.7,2.4,0,3.6C233.4,97.7,232.9,97.9,232.4,98.1z M229-36.4
						c-2.4-4.2-6.6-8.2-12.2-10c-1.7-0.7-3.9-0.8-5.8-0.7c-2.2,0.2-2.6,0.2-3.6-1.7c-3.2-5.8-8.2-8.8-14.8-8.7
						c-6.6,0.2-11.7,3.2-14.8,9.2c-1.4,2.7-1.9,2.9-4.4,1.7c-5.9-2.5-11.7-2.2-17,1.9c-4.9,3.9-7.3,9-6.5,15.5
						c0.5,4.2,0.5,4.2-3.2,6.3c-9.7,5.1-12.1,17.5-4.9,25.8c1.9,2,1.9,2.7,0.2,4.9c-6.5,8.7-2.7,21.6,7.5,25.3
						c2.9,1,3.2,1.7,2.4,4.6c-2.9,10.7,4.9,20.9,16,20.9c2.4,0,2.9,0.5,3.2,2.7c0.3,2.7,1.4,5.3,3.1,7.5c5.3,7,13.3,8.8,21.2,5.1
						c1.7-0.8,2.9-0.3,3.7,1.4c0.5,1,1,2.2,1.9,3.1c3.9,4.9,11.4,6.5,16.7,3.4c5.9-3.4,8.5-10.5,6.1-16.3c-2.7-6.6-9-9.9-15.6-8.2
						c-2.7,0.7-3.6,0.2-4.2-2.4c-1.9-7.1-8.3-12.2-15.8-12.4c-3.1-0.2-3.2-0.3-3.7-3.2c-1.2-6.1-4.6-10.5-10.5-12.9
						c-2.7-1-3.1-1.7-2.4-4.6c1.5-5.8,0.3-11.1-3.6-15.5c-1.9-2.2-1.9-2.6-0.2-4.9c3.1-4.1,4.1-8.7,2.9-13.8c-0.5-2.6-0.3-3.1,2-4.1
						c4.1-1.7,7.1-4.6,9-8.7c0.9-1.9,1.9-2.2,3.6-1.4c4.1,2,8.3,2.4,12.8,1c1.9-0.5,2.9,0,4.1,1.5c0.8,1,1.7,2.2,2.7,2.9
						c5.6,3.7,11.9,4.6,18.2,2C229.8-22,232.6-28.9,229-36.4z"/>
					<path class="st5" d="M229-36.4c3.6,7.5,0.9,14.5-6.3,17.2c-6.3,2.4-12.6,1.7-18.2-2c-1-0.7-1.9-1.9-2.7-2.9
						c-1.2-1.5-2.2-2-4.1-1.5c-4.4,1.4-8.5,1-12.8-1c-1.7-0.9-2.9-0.5-3.6,1.4c-1.9,4.1-4.9,7-9,8.7c-2.4,1-2.7,1.5-2,4.1
						c1.2,5.1,0,9.5-2.9,13.8c-1.7,2.2-1.7,2.7,0.2,4.9c3.9,4.6,5.1,9.7,3.6,15.5c-0.7,2.9-0.3,3.4,2.4,4.6
						c5.9,2.4,9.4,6.6,10.5,12.9c0.5,2.9,0.7,3.2,3.7,3.2c7.5,0.3,13.8,5.4,15.8,12.4c0.7,2.7,1.5,3.1,4.2,2.4
						c6.6-1.7,12.9,1.5,15.6,8.2c2.4,6-0.2,12.9-6.1,16.3c-5.3,3.1-12.8,1.7-16.7-3.4c-0.7-0.8-1.2-2-1.9-3.1
						c-0.9-1.7-1.9-2.2-3.7-1.4c-8,3.7-16,1.9-21.2-5.1c-1.7-2.2-2.5-4.8-3.1-7.5c-0.3-2.4-0.9-2.7-3.2-2.7
						c-11.2,0-18.9-10.2-16-20.9c0.8-2.9,0.5-3.6-2.4-4.6c-10-3.9-13.8-16.7-7.5-25.3c1.7-2.2,1.7-2.9-0.2-4.9
						c-7.1-8.3-4.8-20.7,4.9-25.8c3.7-2,3.7-2,3.2-6.3c-0.9-6.5,1.5-11.6,6.5-15.5c5.3-4.1,10.9-4.4,17-1.9c2.7,1.2,3.2,1,4.4-1.7
						c3.1-6.1,8.2-9.2,14.8-9.2c6.6-0.2,11.6,2.9,14.8,8.7c1,1.9,1.4,1.9,3.6,1.7c1.9-0.2,3.9,0,5.8,0.7
						C222.4-44.6,226.6-40.8,229-36.4z"/>
				</g>
			</g>
			<g id="_x34_drmx3.tif_2_">
				<g>
					<path class="st4" d="M237.2,298.3c0.5-1.4,1.4-2.2,2.9-2.2c4.8-0.5,9.7-1,14.4-1.5c0.9-0.2,1.4-0.3,1.5-1.2
						c0.9-3.1,2.4-5.6,4.8-7.6c1.2-1,1.4-1.9,0.9-3.2c-1.4-4.2-2.5-8.5-3.7-12.8c-0.3-1.4,0-2.4,1.4-2.9c1.2-0.5,2.6,0.2,3.1,1.4
						c0.2,0.5,0.3,1.2,0.5,1.7c1,3.6,2,7,3.1,10.5c0.2,0.3,0.3,0.7,0.5,1.2c1-0.2,1.9-0.5,2.7-0.7c7.1-1.7,14.6,1,18.5,7.1
						c0.8,1.2,1.4,1.4,2.7,1c7.8-2.2,15-0.7,21.1,4.9c0.7,0.7,1.2,0.5,2,0.2c6-2.6,11.7-2.6,17.7-0.2c0.9,0.3,1.4,0.2,1.9-0.5
						c3.9-4.4,9-7,15-7.5c0.5,0,1.2-0.5,1.2-0.9c1.5-5.1,4.6-9,9-11.7c0.3-0.2,0.7-0.8,0.7-1.2c-0.9-4.2-0.5-8.5,0.9-12.4
						c-1.5-1.2-3.1-2.2-4.2-3.4c-1.2-1.2-2.6-2.5-3.4-4.1c-1-1.9-2.4-2.6-4.4-2.9c-8.5-1.2-17-9.2-18.9-17.7
						c-1.7-7.8,1.7-15.3,8.8-18.7c4.1-2,8.5-2.2,12.9-1.4c6.1,1,11.7,2.9,15.8,8c0.3,0.3,1,0.5,1.5,0.3c12.1-0.9,22.3,7.5,23.3,19.6
						c0.3,3.1-0.5,6.3-0.9,9.7c-0.2-0.2,0,0,0.2,0.2c13.6,8.5,13.9,27.2,0.5,36.2c-1,0.7-1,1.4-0.7,2.2c2.7,11.9-7,24.5-19,25.2
						c-1.2,0-1.7,0.5-2.2,1.7c-3.9,11.4-17.2,17.2-28.2,12.4c-1.2-0.5-1.9-0.3-2.7,0.7c-7.3,8.3-19.9,9.5-28.6,2.7
						c-2.2-1.7-3.6-2-6.3-1c-10.9,3.9-22.1-1.4-26.7-12.1c-0.3-0.9-0.7-1.2-1.9-1c-7.1,0.9-14.5-2.7-17.7-9.2
						c-1.2-2.4-1.9-5.1-2.7-8c0,0-0.3,0-0.5,0c-4.1,0.5-8.3,0.9-12.4,1.5c-1.4,0.2-2.7,0.2-3.9-0.7
						C237.5,299.3,237.3,298.8,237.2,298.3z M333.7,232c2.2,6.5,6.8,10.7,13.3,12.6c1.2,0.3,2.7,0.3,4.1,0.2
						c1.9-0.2,2.9,0.3,3.7,2.2c1.9,4.2,4.8,7.1,8.8,9c1.9,0.9,2.2,1.9,1.2,3.7c-2,4.1-2.2,8.2-0.8,12.6c0.8,2.5,0.5,3.1-1.9,4.2
						c-4.6,2.4-7.5,6.1-8.7,11c-0.7,2.7-1,3.1-3.9,3.1c-6,0-10.7,2.4-14.1,7.1c-1.7,2.4-2.4,2.5-4.9,1.2c-5.6-3.1-11.2-2.9-16.7,0.2
						c-2.5,1.5-2.9,1.5-4.9-0.7c-4.9-5.4-12.9-7.1-19.7-4.1c-2.5,1.2-3.4,0.8-4.6-1.7c-2.9-6.1-9.5-9-16.3-6.8
						c-6.1,1.9-9.9,8.5-8.7,15.1c1,6,7,10.7,13.3,10.5c1.2,0,2.4-0.3,3.6-0.7c1.9-0.5,2.9,0,3.4,1.9c2.2,8.5,8.8,13.4,17.5,12.9
						c2.7-0.2,5.3-1,7.7-2.5c2-1.2,2.7-1.2,4.1,0.7c7.1,8.5,20.1,8,26.4-1.2c1.7-2.5,2.4-2.7,5.1-1.2c9.4,5.3,21.8-0.2,24.1-10.7
						c0.7-2.7,1-3.1,3.9-3.1c11.1,0,18.9-9.7,16.7-20.4c-0.8-4.1-0.8-4.1,2.7-6.5c5.4-3.6,8-8.7,7.6-15c-0.3-6.5-3.6-11.2-9.5-14.1
						c-2.5-1.4-2.7-1.9-1.5-4.6c2.7-6.3,1.9-12.1-2.4-17.3c-4.1-5.1-9.7-7-16.1-5.6c-2,0.3-2.4,0.2-3.7-1.7
						c-1.2-1.5-2.6-3.1-4.2-3.9c-5.1-3.1-10.7-3.7-15.6-2.9C334.7,218.1,331.3,224.7,333.7,232z"/>
					<path class="st5" d="M342.9,216c-8.2,2-11.6,8.7-9.2,16c2.2,6.5,6.8,10.7,13.3,12.6c1.2,0.3,2.7,0.3,4.1,0.2
						c1.9-0.2,2.9,0.3,3.7,2.2c1.9,4.2,4.8,7.1,8.8,9c1.9,0.9,2.2,1.9,1.2,3.7c-2,4.1-2.2,8.2-0.8,12.6c0.8,2.5,0.5,3.1-1.9,4.2
						c-4.6,2.4-7.5,6.1-8.7,11c-0.7,2.7-1,3.1-3.9,3.1c-6,0-10.7,2.4-14.1,7.1c-1.7,2.4-2.4,2.5-4.9,1.2c-5.6-3.1-11.2-2.9-16.7,0.2
						c-2.5,1.5-2.9,1.5-4.9-0.7c-4.9-5.4-12.9-7.1-19.7-4.1c-2.5,1.2-3.4,0.8-4.6-1.7c-2.9-6.1-9.5-9-16.3-6.8
						c-6.1,1.9-9.9,8.5-8.7,15.1c1,6,7,10.7,13.3,10.5c1.2,0,2.4-0.3,3.6-0.7c1.9-0.5,2.9,0,3.4,1.9c2.2,8.5,8.8,13.4,17.5,12.9
						c2.7-0.2,5.3-1,7.7-2.5c2-1.2,2.7-1.2,4.1,0.7c7.1,8.5,20.1,8,26.4-1.2c1.7-2.5,2.4-2.7,5.1-1.2c9.4,5.3,21.8-0.2,24.1-10.7
						c0.7-2.7,1-3.1,3.9-3.1c11.1,0,18.9-9.7,16.7-20.4c-0.8-4.1-0.8-4.1,2.7-6.5c5.4-3.6,8-8.7,7.6-15c-0.3-6.5-3.6-11.2-9.5-14.1
						c-2.5-1.4-2.7-1.9-1.5-4.6c2.7-6.3,1.9-12.1-2.4-17.3c-4.1-5.1-9.7-7-16.1-5.6c-2,0.3-2.4,0.2-3.7-1.7
						c-1.2-1.5-2.6-3.1-4.2-3.9C353.3,215.9,347.7,215,342.9,216z"/>
				</g>
			</g>
			<g id="_x34_drmx3.tif_3_">
				<g>
					<path class="st4" d="M301.9-39.5c1.2-0.8,2.4-0.8,3.9-0.7c4.1,0.5,8.3,1,12.4,1.5c0.3,0,0.5,0,0.5,0c0.9-2.7,1.5-5.4,2.7-8
						c3.2-6.3,10.5-10,17.7-9.2c1,0.2,1.5-0.2,1.9-1c4.6-10.7,15.8-16,26.7-12.1c2.7,1,4.2,0.7,6.3-1c8.7-6.8,21.2-5.4,28.6,2.7
						c0.9,1,1.5,1.2,2.7,0.7c11.1-4.8,24.3,1,28.2,12.4c0.3,1.2,0.8,1.5,2.2,1.7c12.1,0.7,21.6,13.3,19,25.2c-0.2,1-0.3,1.5,0.7,2.2
						c13.4,8.8,13.1,27.7-0.5,36.2c-0.2,0.2-0.3,0.2-0.2,0.2c0.3,3.4,1,6.6,0.8,9.7c-1,12.1-11.2,20.6-23.3,19.5
						c-0.5,0-1.4,0-1.5,0.3c-4.1,5.1-9.7,7-15.8,8c-4.4,0.7-8.8,0.5-12.9-1.4c-7.1-3.6-10.7-10.9-8.8-18.7
						c1.9-8.5,10.4-16.5,18.9-17.7c2.2-0.3,3.4-1,4.4-2.9c0.8-1.5,2-2.9,3.4-4.1c1.2-1.2,2.7-2.2,4.2-3.4c-1.4-4.1-1.7-8.2-0.9-12.4
						c0-0.3-0.3-1-0.7-1.2c-4.4-2.7-7.5-6.6-9-11.7c-0.2-0.3-0.9-0.9-1.2-0.9c-6-0.5-10.9-2.9-15-7.5c-0.5-0.7-1-0.8-1.9-0.5
						c-5.9,2.4-11.9,2.6-17.7-0.2c-0.7-0.3-1.4-0.5-2,0.2c-6.1,5.6-13.1,7.1-21.1,4.9c-1.4-0.3-1.9-0.2-2.7,1
						c-4.1,5.9-11.6,8.8-18.5,7.1c-0.9-0.2-1.7-0.5-2.7-0.7c-0.2,0.3-0.3,0.8-0.5,1.2c-1,3.6-2,7-3.1,10.5c-0.2,0.5-0.3,1.2-0.5,1.7
						c-0.5,1.4-1.9,1.9-3.1,1.4c-1.4-0.5-1.7-1.5-1.4-2.9c1.2-4.2,2.4-8.5,3.7-12.8c0.5-1.4,0.3-2.2-0.9-3.2c-2.4-2-3.9-4.8-4.8-7.6
						c-0.2-0.8-0.7-1.2-1.5-1.2c-4.8-0.5-9.5-1.2-14.5-1.5c-1.5-0.2-2.4-1-2.9-2.2C301.6-38.3,301.8-38.8,301.9-39.5z M407.2,44.5
						c4.8,1,10.4,0.2,15.6-2.9c1.7-1,3.1-2.4,4.2-3.9c1.4-1.9,1.5-2,3.7-1.7c6.5,1.4,12.1-0.7,16.1-5.6c4.2-5.1,5.1-11,2.4-17.3
						c-1.2-2.7-1-3.2,1.5-4.6c5.8-2.9,9.2-7.7,9.5-14.1c0.3-6.3-2.2-11.4-7.6-15c-3.6-2.4-3.6-2.4-2.7-6.5
						c2.2-10.7-5.8-20.4-16.7-20.4c-2.7,0-3.2-0.3-3.9-3.1c-2.4-10.5-14.8-15.8-24.1-10.7c-2.7,1.5-3.4,1.4-5.1-1.2
						c-6.5-9.2-19.2-9.7-26.4-1.2c-1.5,1.7-2.2,1.9-4.1,0.7c-2.4-1.5-4.9-2.4-7.6-2.5c-8.7-0.5-15.3,4.4-17.5,12.9
						c-0.5,1.9-1.5,2.4-3.4,1.9c-1.2-0.3-2.4-0.5-3.6-0.7c-6.3-0.2-12.2,4.6-13.3,10.5c-1.2,6.8,2.5,13.3,8.7,15.1
						c6.8,2.2,13.4-0.7,16.3-6.8c1.2-2.5,2-2.9,4.6-1.7c6.6,3.1,14.8,1.5,19.7-4.1c2-2.2,2.4-2.2,4.9-0.7c5.4,3.1,11,3.2,16.7,0.2
						c2.5-1.4,3.2-1.2,4.9,1.2c3.4,4.9,8.2,7.3,14.1,7.1c2.9,0,3.2,0.2,3.9,3.1c1.2,4.9,4.1,8.7,8.7,11.1c2.4,1.2,2.5,1.7,1.9,4.2
						c-1.4,4.3-1.2,8.5,0.9,12.6c0.9,1.9,0.5,2.9-1.2,3.7c-4.2,1.9-7.1,4.9-8.8,9c-0.9,1.9-1.9,2.2-3.7,2.2c-1.4,0-2.7-0.2-4.1,0.2
						c-6.5,2-11.1,6.1-13.3,12.6C395.6,35.8,399.2,42.5,407.2,44.5z"/>
					<path class="st5" d="M407.2,44.5c-8.2-2-11.6-8.7-9.2-16c2.2-6.5,6.8-10.7,13.3-12.6c1.2-0.3,2.7-0.3,4.1-0.2
						c1.9,0.2,2.9-0.3,3.7-2.2c1.9-4.2,4.8-7.1,8.8-9c1.9-0.8,2.2-1.9,1.2-3.7c-2-4.1-2.2-8.2-0.8-12.6c0.8-2.6,0.5-3.1-1.9-4.2
						c-4.6-2.4-7.5-6.1-8.7-11c-0.7-2.7-1-3.1-3.9-3.1c-6,0-10.7-2.4-14.1-7.1c-1.7-2.4-2.4-2.6-4.9-1.2c-5.6,3.1-11.2,2.9-16.7-0.2
						c-2.5-1.5-2.9-1.5-4.9,0.7c-4.9,5.4-12.9,7.1-19.7,4.1c-2.5-1.2-3.4-0.9-4.6,1.7c-2.9,6.1-9.5,9-16.3,6.8
						c-6.1-1.9-9.9-8.5-8.7-15.1c1-5.9,7-10.7,13.3-10.5c1.2,0,2.4,0.3,3.6,0.7c1.9,0.5,2.9,0,3.4-1.9c2.2-8.5,8.8-13.4,17.5-12.9
						c2.7,0.2,5.3,1,7.7,2.6c2,1.2,2.7,1.2,4.1-0.7c7.1-8.5,20.1-8,26.4,1.2c1.7,2.5,2.4,2.7,5.1,1.2c9.4-5.3,21.8,0.2,24.1,10.7
						c0.7,2.7,1,3.1,3.9,3.1c11,0,18.9,9.7,16.7,20.4c-0.9,4.1-0.9,4.1,2.7,6.5c5.4,3.6,8,8.7,7.6,15c-0.3,6.5-3.6,11.2-9.5,14.1
						c-2.6,1.4-2.7,1.9-1.5,4.6c2.7,6.3,1.9,12.1-2.4,17.3c-4.1,5.1-9.7,7-16.2,5.6c-2-0.3-2.4-0.2-3.7,1.7
						c-1.2,1.5-2.5,3.1-4.2,3.9C417.7,44.7,412.1,45.4,407.2,44.5z"/>
				</g>
			</g>
			<g id="_x34_drmx3.tif_4_">
				<g>
					<path class="st4" d="M401.2,64.4c1.4,0.2,2.4,0.9,2.9,2.4c1.4,4.6,3.1,9.2,4.4,13.8c0.3,0.8,0.7,1.2,1.5,1.2
						c3.1,0.2,6,1.2,8.5,3.1c1.2,0.8,2,0.8,3.4,0.2c3.9-2.2,7.8-4.1,11.7-6.1c1.2-0.7,2.4-0.5,3.1,0.8c0.7,1,0.3,2.6-0.9,3.2
						c-0.5,0.3-1,0.5-1.5,0.8c-3.2,1.7-6.5,3.4-9.7,5.1c-0.3,0.2-0.7,0.5-1,0.7c0.5,0.8,0.9,1.7,1.2,2.4c3.1,6.6,1.9,14.5-3.2,19.7
						c-1,1-1,1.7-0.3,2.9c3.7,7.3,3.6,14.4-0.5,21.6c-0.5,0.8-0.3,1.4,0.2,2c3.7,5.3,4.9,11.1,3.7,17.3c-0.2,0.8,0,1.4,0.8,1.9
						c5.3,3.1,8.7,7.3,10.4,13.1c0.2,0.5,0.7,1,1.2,1c5.3,0.5,9.7,2.7,13.3,6.5c0.3,0.3,1,0.5,1.4,0.3c4.1-1.7,8.2-2.2,12.4-1.7
						c0.9-1.7,1.5-3.4,2.6-4.9s2-3.1,3.4-4.1c1.7-1.4,2-2.7,1.9-4.9c-0.7-8.7,5.6-18.4,13.4-22.1c7.3-3.4,15.3-1.5,20.2,4.9
						c2.7,3.6,3.9,7.8,4.1,12.4c0.2,6.1-0.5,12.1-4.6,17c-0.3,0.3-0.2,1.2-0.2,1.5c3.4,11.7-2.7,23.3-14.4,26.9
						c-3.1,0.9-6.3,0.9-9.7,1.2c0-0.2,0,0-0.2,0.2c-5.6,15.1-23.8,19.2-35.4,8c-0.9-0.9-1.5-0.7-2.4-0.3
						c-11.1,4.9-25.3-1.7-28.6-13.4c-0.3-1.2-0.8-1.5-2-1.7c-11.9-1.5-20.4-13.4-17.9-25.2c0.3-1.4,0-1.9-1.2-2.6
						c-9.5-5.4-13.4-17.5-8.5-27.4c1.2-2.4,1.2-3.9-0.2-6.5c-6-9.9-3.1-21.9,6.5-28.6c0.7-0.5,1-1,0.7-2c-2.4-6.8-0.2-14.8,5.3-19.2
						c2-1.7,4.8-2.9,7.1-4.2c0,0,0-0.3,0-0.5c-1.4-3.9-2.5-8-3.9-11.9c-0.5-1.4-0.7-2.5-0.2-3.9C400.2,64.9,400.7,64.7,401.2,64.4z
						 M485.9,145.7c-5.8,3.4-9,8.8-9.7,15.6c-0.2,1.4,0.2,2.7,0.7,3.9c0.5,1.9,0.3,2.9-1.4,4.1c-3.7,2.5-6.1,6.1-7.1,10.5
						c-0.3,1.9-1.4,2.5-3.4,2c-4.4-1.2-8.5-0.5-12.4,1.7c-2.2,1.2-2.9,1-4.6-0.9c-3.2-3.9-7.5-5.9-12.6-6.3
						c-2.9-0.2-3.2-0.5-3.7-3.2c-1.2-6-4.4-10-9.9-12.4c-2.7-1.2-2.9-1.9-2.2-4.6c1.9-6.1,0.5-11.6-3.6-16.3c-2-2.2-2-2.5-0.2-4.9
						c4.4-6,4.4-14.1,0-20.1c-1.7-2.2-1.5-3.1,0.7-4.8c5.4-4.1,6.8-11.2,3.4-17.3c-3.1-5.6-10.2-7.8-16.7-5.4
						c-5.6,2.2-9.2,9-7.7,15.1c0.3,1.2,0.9,2.2,1.4,3.4c0.9,1.7,0.5,2.9-1.2,3.7c-7.8,3.9-11.2,11.4-9.2,19.9c0.7,2.7,2.2,4.9,4.1,7
						c1.7,1.7,1.7,2.4,0.2,4.2c-7,8.8-3.7,21.2,6.5,25.5c2.7,1.2,3.1,1.9,2.2,4.8c-3.2,10.4,4.6,21.2,15.3,21.6
						c2.9,0,3.2,0.5,3.7,3.1c2.2,10.7,13.3,16.7,23.3,12.2c3.9-1.7,3.9-1.7,6.8,1.4c4.6,4.6,10,6,16.1,4.4
						c6.3-1.5,10.2-5.8,11.9-12.2c0.7-2.9,1.2-3.1,4.1-2.6c6.6,1.4,12.2-0.7,16.5-5.9c4.1-5.1,4.9-10.9,2.2-17
						c-0.9-2-0.5-2.2,0.9-3.9c1.4-1.4,2.4-3.1,3.1-4.9c1.9-5.6,1.5-11.4-0.3-15.8C499.6,143.8,492.5,141.7,485.9,145.7z"/>
					<path class="st5" d="M503.2,151.3c-3.7-7.5-10.9-9.7-17.5-5.6c-5.8,3.4-9,8.8-9.7,15.6c-0.2,1.4,0.2,2.7,0.7,3.9
						c0.5,1.9,0.3,2.9-1.4,4.1c-3.7,2.5-6.1,6.1-7.1,10.5c-0.3,1.9-1.4,2.5-3.4,2c-4.4-1.2-8.5-0.5-12.4,1.7c-2.2,1.2-2.9,1-4.6-0.9
						c-3.2-3.9-7.5-5.9-12.6-6.3c-2.9-0.2-3.2-0.5-3.7-3.2c-1.2-6-4.4-10-9.9-12.4c-2.7-1.2-2.9-1.9-2.2-4.6
						c1.9-6.1,0.5-11.6-3.6-16.3c-2-2.2-2-2.5-0.2-4.9c4.4-6,4.4-14.1,0-20.1c-1.7-2.2-1.5-3.1,0.7-4.8c5.4-4.1,6.8-11.2,3.4-17.3
						c-3.1-5.6-10.2-7.8-16.7-5.4c-5.6,2.2-9.2,9-7.6,15.1c0.3,1.2,0.8,2.2,1.4,3.4c0.9,1.7,0.5,2.9-1.2,3.7
						c-7.8,3.9-11.2,11.4-9.2,19.9c0.7,2.7,2.2,4.9,4.1,7c1.7,1.7,1.7,2.4,0.2,4.2c-7,8.8-3.7,21.2,6.5,25.5
						c2.7,1.2,3.1,1.9,2.2,4.8c-3.2,10.4,4.6,21.2,15.3,21.6c2.9,0,3.2,0.5,3.7,3.1c2.2,10.7,13.3,16.7,23.3,12.2
						c3.9-1.7,3.9-1.7,6.8,1.4c4.6,4.6,10,6,16.1,4.4c6.3-1.5,10.2-5.8,11.9-12.2c0.7-2.9,1.2-3.1,4.1-2.6
						c6.6,1.4,12.2-0.7,16.5-5.9c4.1-5.1,4.9-10.9,2.2-17c-0.8-2-0.5-2.2,0.9-3.9c1.4-1.4,2.4-3.1,3.1-4.9
						C505.6,161.5,505.2,155.9,503.2,151.3z"/>
				</g>
			</g>
			<g id="_x34_drmx3.tif_7_">
				<g>
					<path class="st4" d="M246.3,126.3c0-1.4,0.3-2.4,1.7-3.2c4.2-2.2,8.5-4.8,12.8-7c0.9-0.5,1-0.9,1-1.7c-0.3-3.1,0-6.1,1.4-8.8
						c0.7-1.4,0.5-2.2-0.5-3.2c-2.9-3.4-5.4-6.8-8.3-10.4c-0.8-1-0.8-2.2,0.2-3.2c1-0.8,2.4-0.8,3.4,0.2c0.5,0.3,0.7,0.8,1.2,1.4
						c2.2,2.9,4.6,5.8,6.8,8.5c0.2,0.3,0.5,0.5,0.9,0.8c0.8-0.7,1.5-1.2,2.2-1.7c6-4.2,13.9-4.6,19.9-0.5c1.2,0.8,1.9,0.7,2.9-0.2
						c6.5-5.1,13.6-6.3,21.3-3.4c0.8,0.3,1.4,0,1.9-0.5c4.4-4.6,9.9-7,16.3-6.8c1,0,1.4-0.3,1.5-1.2c2-5.6,5.6-9.9,10.9-12.6
						c0.3-0.2,0.9-0.8,0.9-1.4c-0.5-5.3,0.9-10,3.9-14.3c0.2-0.3,0.3-1,0.2-1.4c-2.4-3.6-3.7-7.6-3.9-11.9c-1.9-0.5-3.6-0.9-5.3-1.5
						c-1.7-0.7-3.4-1.4-4.8-2.5c-1.7-1.4-3.1-1.5-5.3-1c-8.3,2.2-19.2-2-24.1-9c-4.6-6.6-4.2-14.8,1-20.7c3.1-3.4,7-5.3,11.4-6.3
						c6-1.4,11.9-1.7,17.7,1.4c0.3,0.2,1.2,0,1.5-0.2c10.9-5.4,23.5-1.7,29.1,9.2c1.4,2.7,2,5.9,3.1,9.3c-0.2,0,0,0,0.2,0
						c15.8,2.7,23.3,19.9,14.5,33.2c-0.7,1-0.3,1.5,0.2,2.4c7,9.9,2.9,25.2-8,30.4c-1.2,0.5-1.4,1.2-1.4,2.4
						c0.7,11.9-9.4,22.4-21.4,22.3c-1.4,0-1.9,0.3-2.2,1.5c-3.6,10.4-14.8,16.5-25.3,13.4c-2.6-0.7-4.1-0.5-6.3,1.4
						c-8.7,7.8-20.9,7.1-29.2-1c-0.7-0.7-1.2-0.8-2-0.3c-6.3,3.6-14.4,2.9-19.9-1.7c-2-1.7-3.7-4.1-5.6-6.3c0,0-0.3,0-0.5,0.2
						c-3.7,2-7.3,4.1-10.9,6.1c-1.2,0.7-2.4,1.2-3.7,0.8C247,127.3,246.7,126.8,246.3,126.3z M310.3,28.2c4.4,5.1,10.4,7.3,17.2,6.6
						c1.4-0.2,2.5-0.7,3.7-1.4c1.7-0.9,2.9-0.9,4.2,0.5c3.2,3.2,7.1,4.9,11.7,4.9c1.9,0,2.7,0.8,2.5,2.9c-0.3,4.6,1.2,8.5,3.9,11.9
						c1.7,2,1.7,2.7,0,4.6c-3.2,3.9-4.6,8.5-3.7,13.6c0.3,2.7,0.2,3.2-2.4,4.2c-5.6,2.2-9,6.3-10.4,12.1c-0.7,2.9-1.2,3.2-4.1,2.9
						c-6.3-0.7-11.4,1.5-15.3,6.6c-1.9,2.4-2,2.6-4.8,1.2c-6.6-3.2-14.8-1.7-19.7,3.7c-1.9,2-2.7,2-4.9,0.2
						c-5.1-4.6-12.2-4.6-17.7,0c-4.9,4.1-5.8,11.6-2.2,17.3c3.2,5.1,10.5,7.3,16.3,4.8c1-0.5,2-1.2,3.1-1.9c1.5-1.2,2.7-1,3.9,0.5
						c5.4,7,13.3,9,21.1,5.3c2.5-1.2,4.4-3.1,6.1-5.3c1.4-1.9,2-2,4.1-1c9.9,5.1,21.6-0.3,24-11.2c0.7-2.9,1.2-3.4,4.2-3.1
						c10.7,1.2,20.1-8.5,18.4-19c-0.5-2.7-0.2-3.2,2.4-4.4c10.2-4.1,13.8-16.1,7.6-25.2c-2.4-3.6-2.4-3.4,0.2-7
						c3.6-5.3,4.1-11,1.4-16.7c-2.7-6-7.6-9-14.1-9.5c-2.9-0.2-3.2-0.5-3.2-3.6c0.2-6.8-2.9-11.9-8.8-15c-5.8-3.1-11.6-2.7-17.2,0.8
						c-1.9,1.2-2.2,1-4.1-0.2c-1.7-1-3.6-1.9-5.4-2c-5.9-0.8-11.4,0.5-15.5,3.2C306,14.9,305.2,22.4,310.3,28.2z"/>
					<path class="st5" d="M312.6,10c-6.6,4.9-7.5,12.4-2.4,18.2c4.4,5.1,10.4,7.3,17.2,6.6c1.4-0.2,2.6-0.7,3.7-1.4
						c1.7-0.8,2.9-0.8,4.2,0.5c3.2,3.2,7.1,4.9,11.7,4.9c1.9,0,2.7,0.8,2.5,2.9c-0.3,4.6,1.2,8.5,3.9,11.9c1.7,2,1.7,2.7,0,4.6
						c-3.2,3.9-4.6,8.5-3.7,13.6c0.3,2.7,0.2,3.2-2.4,4.2c-5.6,2.2-9,6.3-10.4,12.1c-0.7,2.9-1.2,3.2-4.1,2.9
						c-6.3-0.7-11.4,1.5-15.3,6.6c-1.9,2.4-2,2.6-4.8,1.2c-6.6-3.2-14.8-1.7-19.7,3.7c-1.9,2-2.7,2-4.9,0.2
						c-5.1-4.6-12.2-4.6-17.7,0c-4.9,4.1-5.8,11.6-2.2,17.3c3.2,5.1,10.5,7.3,16.3,4.8c1-0.5,2-1.2,3.1-1.9c1.5-1.2,2.7-1,3.9,0.5
						c5.4,7,13.3,9,21.1,5.3c2.6-1.2,4.4-3.1,6.1-5.3c1.4-1.9,2-2,4.1-1c9.9,5.1,21.6-0.3,24-11.2c0.7-2.9,1.2-3.4,4.2-3.1
						c10.7,1.2,20.1-8.5,18.4-19c-0.5-2.7-0.2-3.2,2.4-4.4c10.2-4.1,13.8-16.2,7.6-25.2c-2.4-3.6-2.4-3.4,0.2-7
						c3.6-5.3,4.1-11.1,1.4-16.7c-2.7-5.9-7.7-9-14.1-9.5c-2.9-0.2-3.2-0.5-3.2-3.6c0.2-6.8-2.9-11.9-8.8-15
						c-5.8-3.1-11.6-2.7-17.2,0.9c-1.9,1.2-2.2,1-4.1-0.2c-1.7-1-3.6-1.9-5.4-2C322.3,5.7,316.7,7.3,312.6,10z"/>
				</g>
			</g>
			<g id="_x34_drmx3.tif_5_">
				<g>
					<path class="st4" d="M114.4,102c1.4-0.5,2.6,0,3.7,0.7c3.7,2,7.3,3.9,11,5.8c0.2,0.2,0.5,0.2,0.5,0.2c1.9-2.2,3.4-4.6,5.4-6.5
						c5.3-4.8,13.4-5.6,19.9-2.2c1,0.5,1.4,0.3,2-0.3c8.2-8.3,20.4-9.3,29.2-1.7c2.2,1.9,3.7,2,6.3,1.2c10.5-3.2,21.8,2.6,25.7,12.9
						c0.5,1.2,1,1.5,2.4,1.5c12.1-0.5,22.3,9.7,21.9,21.8c0,1.2,0.3,1.9,1.4,2.4c11.1,4.9,15.5,20.2,8.7,30.3
						c-0.5,0.9-0.8,1.4-0.2,2.4c9.4,13.1,2.2,30.4-13.6,33.5c-0.2,0-0.3,0.2-0.2,0c-1,3.2-1.4,6.5-2.7,9.3
						c-5.3,10.9-17.8,15.1-28.7,9.9c-0.5-0.2-1.2-0.3-1.5-0.2c-5.6,3.2-11.6,3.1-17.5,1.9c-4.4-0.9-8.5-2.7-11.6-6
						c-5.4-5.8-5.9-13.9-1.5-20.7c4.8-7.1,15.5-11.7,24-9.7c2.2,0.5,3.6,0.3,5.3-1c1.4-1.2,3.1-1.9,4.6-2.6c1.7-0.7,3.4-1,5.3-1.7
						c0.2-4.2,1.4-8.3,3.7-11.9c0.2-0.3,0.2-1-0.2-1.4c-3.2-4.2-4.6-9-4.2-14.3c0-0.3-0.5-1-0.9-1.4c-5.4-2.6-9.2-6.6-11.2-12.2
						c-0.3-0.9-0.7-1.2-1.7-1.2c-6.5,0.2-11.9-2-16.5-6.5c-0.5-0.5-1-0.8-2-0.5c-7.7,3.1-14.8,1.9-21.4-2.9c-1-0.9-1.7-0.9-2.9,0
						c-5.9,4.1-13.9,4.1-19.9,0c-0.7-0.5-1.4-1-2.2-1.5c-0.3,0.3-0.7,0.5-0.9,0.9c-2.2,2.9-4.4,5.8-6.6,8.7c-0.3,0.5-0.7,1-1,1.4
						c-1,1-2.4,1-3.4,0.2c-1-1-1-2-0.2-3.2c2.7-3.6,5.3-7.1,8-10.5c0.8-1.2,1-2,0.3-3.2c-1.5-2.7-1.9-5.8-1.7-8.8
						c0.2-0.8-0.2-1.4-1-1.7c-4.2-2.2-8.5-4.4-12.9-6.6c-1.4-0.7-1.9-1.7-1.9-3.2C113.7,103,114.1,102.5,114.4,102z M182.4,218.1
						c4.2,2.6,9.7,3.9,15.6,2.9c1.9-0.3,3.7-1.2,5.3-2.2c1.9-1.2,2.2-1.4,4.1-0.3c5.6,3.6,11.4,3.7,17.2,0.5
						c5.8-3.2,8.7-8.5,8.5-15.3c-0.2-3.1,0.2-3.4,3.1-3.6c6.5-0.7,11.4-3.7,13.9-9.7c2.6-5.8,2-11.4-1.7-16.7
						c-2.6-3.4-2.6-3.4-0.3-7c5.9-9.2,2-21.1-8.3-25c-2.6-1-2.9-1.5-2.6-4.2c1.5-10.7-8-20.1-18.7-18.7c-3.1,0.5-3.6,0-4.4-2.9
						c-2.7-10.9-14.4-16-24.1-10.5c-2,1.2-2.7,1-4.1-0.8c-1.7-2.2-3.7-4.1-6.3-5.1c-8-3.6-15.8-1.4-21.1,5.8
						c-1.2,1.5-2.4,1.7-3.9,0.5c-1-0.7-2-1.4-3.1-1.9c-5.8-2.4-13.1-0.2-16.1,5.1c-3.4,6-2.4,13.3,2.6,17.3
						c5.6,4.4,12.8,4.3,17.7-0.5c2-1.9,2.9-1.9,4.9,0.2c5.1,5.3,13.3,6.6,19.9,3.2c2.7-1.4,2.9-1.2,4.9,1c4.1,4.9,9.2,7,15.5,6.1
						c2.9-0.3,3.6,0,4.2,2.9c1.5,5.8,5.1,9.7,10.7,11.9c2.7,1,2.9,1.4,2.6,4.2c-0.7,5.1,0.7,9.5,4.1,13.4c1.7,1.9,1.9,2.5,0.2,4.6
						c-2.7,3.6-4.1,7.5-3.7,12.1c0.2,2-0.5,2.9-2.6,3.1c-4.6,0.2-8.3,2-11.6,5.3c-1.4,1.4-2.5,1.5-4.2,0.7c-1.2-0.5-2.5-1.2-3.7-1.2
						c-6.8-0.5-12.6,1.7-17,7C174.8,205.8,175.6,213.3,182.4,218.1z"/>
					<path class="st5" d="M182.4,218.1c-6.8-4.9-7.6-12.2-2.7-18.2c4.4-5.3,10.2-7.5,17-7c1.4,0.2,2.6,0.7,3.7,1.2
						c1.7,0.8,2.9,0.7,4.2-0.7c3.2-3.2,7-5.1,11.6-5.3c1.9-0.2,2.7-1,2.6-3.1c-0.3-4.6,0.9-8.5,3.7-12.1c1.7-2,1.5-2.7-0.2-4.6
						c-3.4-3.9-4.8-8.3-4.1-13.4c0.3-2.9,0.2-3.2-2.5-4.2c-5.6-2-9.2-5.9-10.7-11.9c-0.7-2.9-1.4-3.2-4.2-2.9
						c-6.3,0.9-11.4-1.4-15.5-6.1c-1.9-2.4-2.2-2.4-4.9-1c-6.6,3.4-14.6,2-19.9-3.2c-1.9-2-2.9-2-4.9-0.2
						c-4.9,4.8-12.1,4.9-17.7,0.5c-4.9-3.9-6.1-11.4-2.6-17.3c3.1-5.3,10.4-7.5,16.2-5.1c1,0.5,2,1.2,3.1,1.9c1.5,1.2,2.7,1,3.9-0.5
						c5.3-7.1,13.1-9.3,21.1-5.8c2.6,1.2,4.6,2.9,6.3,5.1c1.4,1.9,2,2,4.1,0.9c9.9-5.4,21.6-0.2,24.1,10.5c0.7,2.9,1.4,3.4,4.4,2.9
						c10.7-1.5,20.2,8,18.7,18.7c-0.3,2.9-0.2,3.2,2.6,4.2c10.2,3.9,14.3,15.8,8.3,25c-2.2,3.6-2.2,3.6,0.3,7
						c3.7,5.3,4.2,10.9,1.7,16.7c-2.5,5.9-7.5,9.2-13.9,9.7c-2.9,0.3-3.2,0.7-3.1,3.6c0.3,6.8-2.7,11.9-8.5,15.3
						c-5.8,3.2-11.6,3.1-17.2-0.5c-1.9-1.2-2.2-1-4.1,0.3c-1.5,1-3.4,1.9-5.3,2.2C192.1,222.2,186.7,220.8,182.4,218.1z"/>
				</g>
			</g>
			<g id="_x34_drmx3.tif_6_">
				<g>
					<path class="st4" d="M114.8,167.4c1.4,0.2,2.4,0.7,3.1,2c1.9,4.4,3.9,8.8,5.6,13.3c0.3,0.9,0.7,1.2,1.7,1.2
						c3.1,0,6.1,0.7,8.7,2.2c1.2,0.9,2.2,0.7,3.4-0.2c3.6-2.6,7.3-4.8,11.1-7.1c1.2-0.7,2.4-0.7,3.2,0.5c0.8,1,0.5,2.4-0.5,3.4
						c-0.5,0.3-1,0.7-1.5,1c-3.1,2-6.1,3.9-9.2,6c-0.3,0.2-0.7,0.5-1,0.8c0.5,0.9,1,1.5,1.4,2.4c3.7,6.3,3.2,14.3-1.4,19.9
						c-0.8,1-0.8,1.7-0.2,2.9c4.4,7,4.9,14.1,1.4,21.6c-0.5,0.8-0.2,1.4,0.3,2c4.2,4.9,5.9,10.5,5.3,17c-0.2,1,0.2,1.4,1,1.7
						c5.4,2.6,9.2,6.6,11.4,12.1c0.2,0.3,0.9,1,1.2,1c5.3,0,9.9,1.9,13.8,5.3c0.3,0.3,1,0.5,1.4,0.3c3.9-2,8-2.9,12.2-2.7
						c0.7-1.7,1.2-3.6,2-5.1c0.8-1.5,1.7-3.2,2.9-4.4c1.5-1.5,1.9-2.9,1.5-5.1c-1.4-8.5,3.9-18.9,11.4-23.1c7-3.9,15.1-2.9,20.6,3.1
						c3.1,3.4,4.6,7.5,5.1,11.9c0.9,6.1,0.5,12.1-3.1,17.3c-0.2,0.3-0.2,1.2,0,1.5c4.4,11.4-0.7,23.5-12.1,27.9
						c-2.9,1.2-6.1,1.4-9.5,2c0-0.2,0,0,0,0.2c-4.2,15.5-22.1,21.2-34.5,11c-1-0.9-1.5-0.5-2.4,0c-10.5,6-25.3,0.5-29.6-10.9
						c-0.3-1.2-1-1.5-2.2-1.5c-12.1-0.5-21.4-11.6-20.1-23.5c0.2-1.4-0.2-1.9-1.4-2.4c-10-4.6-15-16.3-10.9-26.5
						c1-2.5,0.9-4.1-0.8-6.3c-6.8-9.3-5.1-21.4,3.9-29.1c0.7-0.7,0.9-1,0.5-2c-2.9-6.6-1.5-14.6,3.6-19.6c2-1.9,4.4-3.2,6.8-4.9
						c0,0,0-0.3-0.2-0.5c-1.7-3.9-3.2-7.7-4.9-11.6c-0.5-1.4-1-2.6-0.5-3.9C113.9,168.1,114.4,167.8,114.8,167.4z M206.2,240.9
						c-5.4,3.9-8.2,9.5-8.2,16.3c0,1.4,0.5,2.7,1,3.9c0.7,1.9,0.5,2.9-1,4.2c-3.6,2.9-5.6,6.6-6.1,11.2c-0.2,1.9-1.2,2.5-3.2,2.2
						c-4.4-0.7-8.5,0.3-12.2,2.7c-2.2,1.5-2.7,1.4-4.6-0.5c-3.6-3.7-8-5.3-13.1-5.1c-2.9,0.2-3.2-0.2-3.9-2.9
						c-1.7-5.8-5.3-9.7-11.1-11.6c-2.7-0.8-3.1-1.5-2.6-4.4c1.4-6.3-0.5-11.6-4.9-15.8c-2.2-2-2.2-2.4-0.7-4.9
						c3.9-6.3,3.1-14.5-1.9-20.1c-1.9-2-1.7-3.1,0.3-4.9c5.1-4.6,5.8-11.7,1.9-17.5c-3.6-5.3-10.9-7-17-3.9
						c-5.4,2.7-8.3,9.7-6.3,15.8c0.3,1.2,1,2.2,1.5,3.2c1,1.7,0.8,2.7-0.8,3.9c-7.5,4.6-10.2,12.4-7.3,20.6c0.8,2.6,2.5,4.8,4.6,6.6
						c1.7,1.5,1.9,2.2,0.5,4.1c-6.1,9.4-1.9,21.4,8.7,24.8c2.9,1,3.2,1.5,2.5,4.6c-2.4,10.5,6.5,20.7,17.2,20.1
						c2.9-0.2,3.2,0.2,4.1,2.7c3.1,10.5,14.6,15.3,24.3,10c3.7-2,3.7-2,7,0.9c4.9,4.1,10.5,5.1,16.5,3.1c6.1-2.2,9.7-6.8,10.7-13.1
						c0.5-2.9,0.9-3.2,3.9-2.9c6.8,0.8,12.1-1.7,15.8-7.3c3.7-5.4,3.9-11.2,0.9-17.2c-1-1.9-0.9-2.2,0.5-3.9
						c1.2-1.5,2.2-3.2,2.6-5.1c1.4-5.8,0.5-11.4-1.7-15.8C219.8,237.8,212.5,236.3,206.2,240.9z"/>
					<path class="st5" d="M224.1,244.9c-4.2-7.1-11.6-8.7-17.8-4.1c-5.4,3.9-8.2,9.5-8.2,16.3c0,1.4,0.5,2.7,1,3.9
						c0.7,1.9,0.5,2.9-1,4.2c-3.6,2.9-5.6,6.6-6.1,11.2c-0.2,1.9-1.2,2.5-3.2,2.2c-4.4-0.7-8.5,0.3-12.2,2.7
						c-2.2,1.5-2.7,1.4-4.6-0.5c-3.6-3.7-8-5.3-13.1-5.1c-2.9,0.2-3.2-0.2-3.9-2.9c-1.7-5.8-5.3-9.7-11.1-11.6
						c-2.7-0.9-3.1-1.5-2.6-4.4c1.4-6.3-0.5-11.6-4.9-15.8c-2.2-2-2.2-2.4-0.7-4.9c3.9-6.3,3.1-14.4-1.9-20.1
						c-1.9-2-1.7-3.1,0.3-4.9c5.1-4.6,5.8-11.7,1.9-17.5c-3.6-5.3-10.9-7-17-3.9c-5.4,2.7-8.3,9.7-6.3,15.8c0.3,1.2,1,2.2,1.5,3.2
						c1,1.7,0.8,2.7-0.8,3.9c-7.5,4.6-10.2,12.4-7.3,20.6c0.8,2.5,2.5,4.8,4.6,6.6c1.7,1.5,1.9,2.2,0.5,4.1
						c-6.1,9.3-1.9,21.4,8.7,24.8c2.9,1,3.2,1.5,2.5,4.6c-2.4,10.5,6.5,20.7,17.2,20.1c2.9-0.2,3.2,0.2,4.1,2.7
						c3.1,10.5,14.6,15.3,24.3,10c3.7-2,3.7-2,7,0.8c4.9,4.1,10.5,5.1,16.5,3.1c6.1-2.2,9.7-6.8,10.7-13.1c0.5-2.9,0.9-3.2,3.9-2.9
						c6.8,0.9,12.1-1.7,15.8-7.3c3.7-5.4,3.9-11.2,0.9-17.2c-1-1.9-0.9-2.2,0.5-3.9c1.2-1.5,2.2-3.2,2.6-5.1
						C227.3,255,226.4,249.4,224.1,244.9z"/>
				</g>
			</g>
			<g id="_x34_drmx3.tif_19_">
				<g>
					<path class="st4" d="M85.2,187.6c-1.4-0.7-1.9-1.9-2.2-3.2c-1.2-4.1-2.6-8-3.7-11.9c0-0.2-0.2-0.5-0.2-0.5
						c-2.9,0.3-5.6,0.8-8.3,0.7c-7.1-0.3-13.4-5.6-15.6-12.4c-0.3-1-0.8-1.2-1.7-1.2c-11.7,0.2-21.1-7.8-21.9-19.4
						c-0.2-2.9-1.2-4.1-3.6-5.3c-9.7-5.1-13.6-17.2-9.2-27.2c0.5-1.2,0.3-1.9-0.5-2.7c-8.8-8.2-9-22.6-0.2-30.9
						c0.9-0.9,1-1.5,0.7-2.7c-4.2-11.4,3.4-25.2,15.1-27.7c1-0.2,1.5-0.3,1.7-1.7c2.7-15.8,19.9-23.3,33.3-14.3
						c0.2,0.2,0.3,0.2,0.2,0.2c3.1-1.7,5.6-3.6,8.5-4.8c11.4-4.1,23.3,1.9,27.4,13.3c0.2,0.5,0.5,1.2,1,1.2c6.3,1.5,10.4,6,13.8,11
						c2.6,3.7,4.1,7.8,3.9,12.4c-0.2,8-5.6,14.1-13.4,15.8c-8.5,1.7-19.2-2.7-23.8-10c-1.2-1.9-2.2-2.7-4.4-2.9
						c-1.7-0.2-3.6-0.7-5.1-1.4c-1.7-0.7-3.2-1.7-4.9-2.6c-3.1,2.9-6.8,4.9-11.1,6c-0.3,0.2-0.8,0.7-0.8,1c-0.7,5.3-3.1,9.5-7,13.1
						c-0.3,0.3-0.5,1-0.3,1.5c2,5.6,1.7,11.2-0.7,16.7c-0.3,0.8-0.3,1.4,0.3,2c4.6,4.4,7.1,9.9,7.1,16.1c0,0.8,0.2,1.4,1,1.7
						c7.5,3.2,11.9,9,13.1,17.2c0.2,1.4,0.7,1.9,2,2c7.1,1.2,12.8,7,14.1,14.1c0.2,0.9,0.3,1.7,0.5,2.7c0.5,0,0.8,0,1.2,0
						c3.6-0.5,7.1-1,10.9-1.5c0.5-0.2,1.2-0.2,1.7-0.2c1.4,0,2.6,0.9,2.6,2.2c0,1.4-0.7,2.2-2,2.4c-4.4,0.7-8.7,1.4-13.1,1.9
						c-1.4,0.2-2.2,0.7-2.6,2c-0.8,3.1-2.7,5.4-5.1,7.5c-0.7,0.5-0.8,1-0.5,1.9c1.5,4.6,2.9,9.2,4.4,13.8c0.5,1.5,0,2.6-0.8,3.6
						C86.4,187.5,85.7,187.5,85.2,187.6z M118.8,57.3c-1-4.8-4.1-9.7-9-13.1c-1.5-1-3.4-1.9-5.3-2.2c-2.2-0.5-2.5-0.5-3.1-2.7
						c-1.5-6.5-5.4-10.7-11.7-12.4c-6.5-1.7-12.2-0.2-16.8,4.9c-2,2.2-2.6,2.2-4.8,0.3c-5.1-4.1-10.7-5.3-16.8-2.9
						c-6,2.4-9.5,6.8-10.5,13.1c-0.7,4.2-0.7,4.2-4.8,5.1C25.3,49.8,19.7,61,24.3,71c1.2,2.6,1,3.1-1.2,4.8
						c-8.5,6.5-8.5,19.9,0.2,26.4c2.5,1.9,2.5,2.5,1,5.1c-5.8,9.5-1,21.4,9.7,24.5c2.2,0.7,2.5,1.2,2.2,3.6c-0.3,2.7-0.2,5.4,0.9,8
						c3.1,8.2,10.4,12.1,19,10.7c1.9-0.3,2.9,0.3,3.2,2.4c0.2,1.2,0.3,2.4,0.8,3.4c2.4,5.9,9.2,9.3,15.1,7.8
						c6.6-1.7,11-7.8,10.4-14.1c-0.8-7.1-5.9-11.9-12.9-12.1c-2.7,0-3.4-0.7-3.4-3.6c0.2-7.3-4.6-13.9-11.7-16.3
						c-2.9-1-3.1-1.2-2.7-4.2c0.5-6.3-1.5-11.4-6.6-15.3c-2.4-1.7-2.5-2.4-1-4.9c3.1-5.1,3.2-10.5,0.8-16c-1.2-2.5-1-3.1,1.2-4.8
						c4.1-3.2,6.3-7.3,6.6-12.4c0.2-2.6,0.5-3.1,3.1-3.4c4.4-0.5,8.2-2.4,11.1-6c1.4-1.5,2.4-1.7,3.9-0.3c3.4,3.1,7.3,4.6,11.9,4.4
						c2,0,2.7,0.7,3.4,2.6c0.5,1.2,1,2.5,1.9,3.6c4.4,5.1,10.2,7.7,17,7C115.6,71.4,120.2,65.4,118.8,57.3z"/>
					<path class="st5" d="M118.8,57.3c1.4,8.3-3.2,14.1-10.9,14.8c-6.8,0.7-12.4-1.9-17-7c-0.8-1-1.4-2.4-1.9-3.6
						c-0.7-1.9-1.5-2.5-3.4-2.5c-4.6,0-8.5-1.4-11.9-4.4c-1.5-1.4-2.6-1.2-3.9,0.3c-2.9,3.6-6.6,5.4-11.1,6
						c-2.5,0.3-3.1,0.9-3.1,3.4c-0.3,5.1-2.5,9.2-6.6,12.4c-2.2,1.7-2.4,2.2-1.2,4.8c2.5,5.4,2.2,10.7-0.9,16
						c-1.5,2.6-1.4,3.2,1,4.9c5.1,3.9,7.1,9,6.6,15.3c-0.3,3.1-0.2,3.2,2.7,4.2c7.1,2.2,11.9,9,11.7,16.3c0,2.7,0.7,3.4,3.4,3.6
						c6.8,0.2,12.1,5.1,12.9,12.1c0.7,6.3-3.7,12.4-10.4,14.1c-6,1.5-12.6-1.9-15.1-7.8c-0.5-1-0.7-2.2-0.8-3.4
						c-0.3-1.9-1.2-2.6-3.2-2.4c-8.7,1.4-15.8-2.7-19-10.7c-1-2.6-1.2-5.3-0.8-8c0.3-2.4,0-2.9-2.2-3.6c-10.7-3.1-15.5-15-9.7-24.5
						c1.5-2.6,1.4-3.2-1-5.1C14.5,96,14.5,82.6,23,76.1c2.2-1.7,2.4-2.2,1.2-4.8c-4.6-10,1-21.2,11.7-23.6c4.1-0.8,4.1-0.8,4.8-5.1
						c1-6.3,4.6-10.7,10.5-13.1c6.1-2.4,11.7-1.2,16.8,2.9c2.2,1.9,2.7,1.9,4.8-0.3c4.6-4.9,10.4-6.6,16.8-4.9
						c6.3,1.7,10.4,6,11.7,12.4c0.5,2,0.8,2.2,3.1,2.7c1.9,0.3,3.7,1,5.3,2.2C114.6,47.6,117.6,52.5,118.8,57.3z"/>
				</g>
			</g>
		</g>
	</g>
</g>
<g id="Layer_4">
	<g id="Lines_1_">
		<g>
			<g>
				<g>
					<path class="st6" d="M140.1-94.4c0,0-80.7,21.3-107,99.3C6.9,82.9,54.9,131,173,131h19.3c118.1,0,166.2-48.1,139.9-126.1
						c-26.2-78.1-107-99.3-107-99.3S190.4-109.2,140.1-94.4z"/>
				</g>
			</g>
			<g>
				<g>
					<path class="st7" d="M32.3,7.4c0,0-30,103.2,150.4,103.2S330.2-0.9,330.2-0.9S398.2,131,181.5,131
						C-21.7,131.3,32.3,7.4,32.3,7.4"/>
				</g>
			</g>
			<g>
				<g>
					<path class="st8" d="M253-83.2c0,0-141-44.1-224.2,103.9c0,0,7.7-64.1,81.9-102.5C184.8-120.2,253-83.2,253-83.2z"/>
				</g>
			</g>
			<g>
				<g>
					<path class="st9" d="M192.3,136H173c-68.2,0-115.9-16.2-137.9-46.9C19,66.7,16.7,37.8,28.4,3.3c14-41.7,43.3-67.4,65.4-81.5
						c23.4-15,43.4-20.6,45-21c15.3-4.5,30.7-6.7,45.8-6.7c24.2,0,39.9,5.8,42.4,6.8c2.8,0.8,22.2,6.5,44.7,20.9
						C293.7-64.1,323-38.4,337,3.3c11.6,34.6,9.3,63.5-6.8,85.9C308.2,119.8,260.5,136,192.3,136z M184.5-96
						c-14.2,0-28.7,2.1-43,6.4c0,0-0.1,0-0.1,0c-0.2,0.1-19.9,5.4-42.5,19.9c-20.6,13.3-47.9,37.3-61,76.1
						c-10.5,31.3-8.7,57.2,5.4,76.9c20.1,27.9,65,42.7,129.8,42.7h19.3c64.8,0,109.7-14.8,129.8-42.7c14.1-19.7,16-45.5,5.4-76.8
						c-13-38.8-40.4-62.8-61-76.1c-22.6-14.6-42.3-19.9-42.5-19.9c-0.2-0.1-0.5-0.1-0.7-0.2C223.2-89.9,208.3-96,184.5-96z"/>
				</g>
			</g>
		</g>
		<g>
			<g>
				<g>
					<path class="st6" d="M300.1,1.4c0,0-80.7,21.3-107,99.4C166.9,178.9,214.9,227,333,227h19.3c118.1,0,166.2-48.1,139.9-126.2
						c-26.2-78.1-107-99.3-107-99.3S350.4-13.3,300.1,1.4z"/>
				</g>
			</g>
			<g>
				<g>
					<path class="st7" d="M192.3,103.3c0,0-30,103.2,150.4,103.2S490.2,94.9,490.2,94.9s68.1,131.9-148.7,131.9
						C138.3,227.1,192.3,103.3,192.3,103.3"/>
				</g>
			</g>
			<g>
				<g>
					<path class="st8" d="M413,12.7c0,0-141-44.1-224.2,103.9c0,0,7.7-64.1,81.9-102.5C344.8-24.3,413,12.7,413,12.7z"/>
				</g>
			</g>
			<g>
				<g>
					<path class="st9" d="M352.3,232H333c-68.2,0-115.8-16.2-137.9-46.9c-16.1-22.4-18.4-51.3-6.8-85.9c14-41.7,43.3-67.4,65.4-81.6
						c23.4-15,43.4-20.6,45-21c15.2-4.5,30.6-6.7,45.7-6.7c24.3,0,39.9,5.8,42.5,6.8c2.8,0.8,22.2,6.5,44.7,20.9
						C453.7,31.9,483,57.5,497,99.2c11.6,34.6,9.3,63.5-6.8,85.9C468.2,215.8,420.5,232,352.3,232z M344.5-0.1
						c-14.2,0-28.6,2.1-43,6.4c0,0-0.1,0-0.1,0c-0.2,0.1-19.9,5.4-42.5,20c-20.6,13.3-47.9,37.3-61,76.2
						c-10.5,31.3-8.7,57.2,5.4,76.9c20.1,27.9,65,42.7,129.8,42.7h19.3c64.8,0,109.7-14.8,129.8-42.7c14.1-19.7,16-45.5,5.4-76.9
						c-13-38.8-40.4-62.8-61-76.1C404,11.7,384.2,6.4,384,6.3c-0.2-0.1-0.5-0.1-0.7-0.2C383.2,6,368.3-0.1,344.5-0.1z"/>
				</g>
			</g>
		</g>
		<g>
			<g>
				<g>
					<path class="st6" d="M137.1,152.6c0,0-80.7,21.2-107,99.3C3.9,330,51.9,378,170,378h19.3c118.1,0,166.2-48.1,139.9-126.1
						c-26.2-78.1-107-99.3-107-99.3S187.4,137.9,137.1,152.6z"/>
				</g>
			</g>
			<g>
				<g>
					<path class="st7" d="M29.3,254.5c0,0-30,103.2,150.4,103.2s147.5-111.5,147.5-111.5s68.1,131.9-148.7,131.9
						C-24.7,378.3,29.3,254.5,29.3,254.5"/>
				</g>
			</g>
			<g>
				<g>
					<path class="st8" d="M250,163.8c0,0-141-44.1-224.2,103.9c0,0,7.7-64.1,81.9-102.5S250,163.8,250,163.8z"/>
				</g>
			</g>
			<g>
				<g>
					<path class="st9" d="M189.3,383H170c-68.2,0-115.9-16.2-137.9-46.9c-16.1-22.4-18.4-51.3-6.8-85.9c14-41.7,43.3-67.3,65.4-81.5
						c23.4-15,43.4-20.6,45-21c15.3-4.5,30.7-6.7,45.8-6.7c24.2,0,39.9,5.8,42.4,6.8c2.8,0.8,22.2,6.5,44.7,20.9
						c22.1,14.2,51.3,39.8,65.4,81.5c11.6,34.6,9.3,63.4-6.8,85.9C305.2,366.8,257.5,383,189.3,383z M181.5,151.1
						c-14.2,0-28.7,2.1-43.1,6.4c0,0-0.1,0-0.1,0c-0.2,0.1-19.9,5.4-42.5,19.9c-20.6,13.3-47.9,37.3-61,76.1
						c-10.5,31.3-8.7,57.2,5.4,76.8c20.1,27.9,65,42.7,129.8,42.7h19.3c64.8,0,109.7-14.8,129.8-42.7c14.1-19.6,15.9-45.5,5.4-76.8
						c-13-38.8-40.4-62.8-61-76.1c-22.6-14.5-42.3-19.9-42.5-19.9c-0.2-0.1-0.5-0.1-0.7-0.2C220.2,157.2,205.3,151.1,181.5,151.1z"
						/>
				</g>
			</g>
		</g>
	</g>
	<g>
		<g>
			<g>
				<path d="M444,69.5c-2.7-0.5-5.3,1.3-5.9,4s1.3,5.3,4,5.9c2.7,0.5,5.3-1.3,5.9-4C448.5,72.7,446.8,70.1,444,69.5z"/>
			</g>
		</g>
		<g>
			<g>
				<path class="st9" d="M480.2,131.1c-1.3-16.7-7.7-32.6-18.6-46.2c-1.7-2.2-4.9-2.5-7-0.8c-2.2,1.7-2.5,4.9-0.8,7
					c9.6,12,15.3,26.1,16.4,40.7c0.2,2.7,2.6,4.8,5.4,4.6C478.3,136.3,480.4,133.9,480.2,131.1z"/>
			</g>
		</g>
	</g>
</g>
</svg>
