<?xml version="1.0" encoding="utf-8"?>
<!-- Generator: Adobe Illustrator 19.1.0, SVG Export Plug-In . SVG Version: 6.00 Build 0)  -->
<svg version="1.1" xmlns="http://www.w3.org/2000/svg" xmlns:xlink="http://www.w3.org/1999/xlink" x="0px" y="0px"
	 viewBox="6 -116 512 512" style="enable-background:new 6 -116 512 512;" xml:space="preserve">
<style type="text/css">
	.st0{fill:none;stroke:#000000;stroke-width:7;stroke-miterlimit:10;}
</style>
<g id="Layer_1">
	<path d="M199.6,294.8c1.7,0,3.4-0.5,4.9-1.6c70.5-49.6,128.4-112.3,172.1-186.4c2.4-4.1,1-9.3-3-11.7c-4.1-2.4-9.3-1-11.7,3
		c-42.5,72-98.7,133-167.2,181.1C187.8,284.1,191.3,294.8,199.6,294.8L199.6,294.8z"/>
	<path d="M155.2,304.7c-1.7,1-3.3,2-5,2.9c-4.1,2.4-5.5,7.6-3.1,11.7c2.4,4.1,7.6,5.5,11.7,3.1c1.7-1,3.4-2,5.2-3
		c4.1-2.4,5.4-7.6,3-11.7C164.5,303.7,159.2,302.3,155.2,304.7L155.2,304.7z"/>
	<path d="M516.6-86.1c-1.1-14.2-10.9-24.5-23.5-27.2c-39-8.6-79.1,3.4-106.5,34.3c-1.3-0.5-2.7-1-4-1.4
		c-30.4-10.1-63.6,3.1-79.1,31.5C224.2,96,126.9,222.7,18.7,330.6c-24.9,24.8-6.1,67.3,29,65.3c163.1-9.2,310.5-100.4,385.3-257.3
		c2-4.3,0.2-9.3-4-11.4c-4.3-2-9.3-0.2-11.4,4C346.9,279.8,206.8,369.9,46.8,378.9c-19.4,1.1-29.8-22.4-16-36.2
		C139.9,233.9,238.2,105.9,318.4-40.7c11.5-21.1,36.3-31,58.8-23.5c28.4,9.5,52.3,27.5,69,52.2c7.3,10.7,9.9,24.3,7.2,37.3
		c-2.4,11.5-5.3,23.2-8.7,34.8c-28.2-28.1-58.5-51-90.1-69.5c-4.1-2.4-9.3-1-11.7,3.1c-2.4,4.1-1,9.3,3.1,11.7
		c60.8,35.5,94.8,75.9,97.8,78c4.6,3.3,11.2,1.1,13-4.3c5.2-16.1,9.9-33.3,13.3-50.3c3.6-17.5,0-35.8-9.8-50.3
		c-14.7-21.6-34.2-38.6-57.1-50.2c22.9-23,54.8-31.7,86.2-24.8c5.3,1.2,9.6,5.4,10.1,11.9c0.5,6.9-4.5,13-11.3,13.7
		c-1.6,0.1-3.1,0.3-4.7,0.6c-4.7,0.7-7.8,5.1-7.1,9.7c0.7,4.2,4.3,7.2,8.4,7.2c1.2,0,1.7-0.3,5-0.6
		C505.8-55.6,517.8-69.9,516.6-86.1L516.6-86.1z"/>
	<path d="M103.9,308.7c-6.5,5.3-13.1,10.5-19.6,15.6c-3.7,2.9-4.4,8.2-1.5,12c2.9,3.7,8.2,4.4,12,1.5c6.7-5.2,13.4-10.5,20-15.9
		c3.7-3,4.2-8.4,1.2-12C112.9,306.2,107.6,305.7,103.9,308.7z"/>
	<path d="M288.7,129.9c2.7-3.8,1.8-9.2-2-11.9s-9.2-1.8-11.9,2c-43.5,60.9-89.2,112.2-115.1,137.6c-3.4,3.3-3.4,8.7-0.1,12.1
		c3.3,3.4,8.7,3.4,12.1,0.1C198,243.9,244.5,191.7,288.7,129.9L288.7,129.9z"/>
	<path d="M310.4,91c2.8,0,5.6-1.4,7.2-3.9c2.6-4,5.1-8,7.5-12c2.5-4,1.2-9.3-2.8-11.7c-4-2.5-9.3-1.2-11.7,2.8
		c-2.4,3.9-4.8,7.8-7.3,11.7C299.5,83.7,303.8,91,310.4,91L310.4,91z"/>
</g>
<g id="Layer_2">
	<path class="st0" d="M101.2,165.3c-4-2.1-8.4-4.7-13-6.7c-6.4-2.7-12.9-5.2-19.4-7.3c-7.5-2.4-12.1-7.5-12-14.3
		c0-2.6,0.5-5.2,1-7.7c2.3-10.7,2.5-21.5,2.6-32.4c0.1-7.7,4.9-13.2,12.5-14.5c3.1-0.5,6.2-1.1,9.3-1.4c9.1-0.9,17.6-4.1,26.3-6.7
		c8.6-2.6,14.9,0.1,18.9,8c2.4,4.7,4.5,9.6,7.2,14.1c3.3,5.4,7,10.6,10.6,15.7c2.3,3.4,4.2,6.8,3.8,11.1c-0.3,3.4-1.4,6.4-3.8,8.8
		c-3,3.1-5.9,6.1-9.1,9c-5.4,4.9-9.3,10.9-13.7,16.6c-1.3,1.6-2.4,3.4-3.8,4.9C114.1,167.1,107.9,168.2,101.2,165.3z M90,134.8
		c0.7-2.8,1.5-5.7,2.2-8.7c0.3-1.2,0-2.2-1.4-2.7c-6-2.2-12.1-3.1-18.4-1.6c-3.1,0.8-5.3,2.9-6.3,5.9c-2.2,6.6,1.1,13.8,7.4,16.7
		c4.9,2.2,9.4,1.2,12.6-3.1C87.4,139.3,88.6,137.2,90,134.8z M69.2,97.6c-3,7-0.6,12.8,6.4,15.1c5,1.6,10.2,1.7,15.4,1
		c1.8-0.3,2.5-1.3,2.5-3c0-5.1-0.9-10.1-2.9-14.8c-1.1-2.4-2.6-4.5-5.1-5.6C79.6,87.5,72.1,90.9,69.2,97.6z M96.6,137
		c-0.9,2.7-1.5,4.5-2,6.3c-1.4,5.4,0.3,10,4.7,12.2c5.1,2.5,10.2,2.3,14.9-1.2c4.8-3.6,6.1-8.9,3.3-13.5c-3.2-5.2-7.8-8.8-13.2-11.5
		c-1.3-0.7-2.3-0.4-3.1,0.8C99.5,132.5,97.8,135.1,96.6,137z M115.5,83.6c-2-0.3-3.9-0.7-5.9-0.7C103,83,99.1,86.9,99,93.5
		c0,5.2,1.5,10.1,3.6,14.8c0.9,1.9,2.1,2.4,4,1.7c4.8-1.6,9.3-3.8,12.9-7.4c1.5-1.5,3-3.4,3.5-5.4C124.5,92,121.1,86.4,115.5,83.6z
		 M137.5,126.9c2-4.2,1.5-8.3-0.7-12.3c-2.4-4.4-6.6-6.2-11.5-4.8c-5.4,1.5-9.9,4.5-13.9,8.3c-1.5,1.4-1.7,2.9-0.3,4.3
		c3,3,5.8,6.3,9.1,8.8c2.1,1.6,4.9,2.6,7.5,2.8C132.7,134.4,135.6,131,137.5,126.9z"/>
	<path d="M163.8,78.4c-4.2-1.8-8.7-4-13.5-5.6c-6.6-2.2-13.2-4.1-20-5.7c-7.6-1.8-12.6-6.5-13.1-13.3c-0.2-2.6,0-5.2,0.4-7.8
		c1.5-10.8,0.7-21.7,0-32.5C117,5.8,121.4-0.2,128.8-2c3-0.8,6.1-1.6,9.1-2.2c9-1.6,17.2-5.5,25.7-8.8c8.3-3.3,14.8-1.2,19.5,6.5
		c2.7,4.5,5.2,9.2,8.3,13.4c3.7,5.1,7.8,10,11.8,14.8c2.6,3.2,4.7,6.5,4.7,10.7c0,3.4-0.9,6.5-3.1,9.1c-2.7,3.3-5.4,6.6-8.3,9.7
		c-5,5.3-8.4,11.6-12.3,17.6c-1.1,1.7-2.1,3.6-3.4,5.2C176.8,79.2,170.7,80.7,163.8,78.4z M150.2,48.9c0.5-2.8,1-5.8,1.5-8.9
		c0.2-1.2-0.2-2.2-1.6-2.6c-6.2-1.7-12.4-2.1-18.5-0.1c-3,1-5.1,3.3-5.8,6.4c-1.6,6.7,2.2,13.7,8.7,16.1c5,1.8,9.5,0.4,12.3-4.1
		C148,53.6,149,51.4,150.2,48.9z M126.5,13.5c-2.4,7.2,0.4,12.8,7.6,14.5c5.1,1.2,10.3,0.9,15.4-0.3c1.7-0.4,2.4-1.5,2.3-3.2
		c-0.4-5.1-1.7-10-4.1-14.5c-1.2-2.3-2.9-4.3-5.5-5.2C136.1,2.6,128.8,6.6,126.5,13.5z M157,50.5c-0.6,2.7-1.2,4.6-1.5,6.5
		c-1,5.5,1.2,10,5.7,11.7c5.3,2.1,10.3,1.5,14.7-2.4c4.5-3.9,5.4-9.3,2.2-13.7c-3.6-4.9-8.5-8.2-14.1-10.4c-1.4-0.6-2.4-0.2-3,1
		C159.4,45.8,158,48.5,157,50.5z M171.5-4.2c-2-0.1-4-0.4-5.9-0.2c-6.6,0.6-10.2,4.8-9.7,11.4c0.4,5.2,2.3,10,4.8,14.5
		c1,1.8,2.3,2.2,4.1,1.4c4.7-2,8.9-4.6,12.3-8.4c1.4-1.6,2.7-3.6,3.1-5.6C181.2,3.4,177.3-1.9,171.5-4.2z M196.9,37.2
		c1.6-4.4,0.8-8.4-1.7-12.2c-2.8-4.2-7.1-5.6-11.8-3.9c-5.2,1.9-9.5,5.3-13.2,9.4c-1.4,1.5-1.4,3,0.1,4.3c3.2,2.8,6.3,5.8,9.8,8
		c2.2,1.4,5.1,2.2,7.7,2.2C192.8,45.1,195.3,41.5,196.9,37.2z"/>
	<path d="M100.7,69.4c-4.4,0.9-9.5,1.5-14.3,2.8c-6.7,1.8-13.3,4-19.8,6.4c-7.4,2.7-14.1,1.6-18.3-3.8c-1.6-2-2.9-4.3-4-6.7
		c-4.8-9.8-11.4-18.4-18.1-27C21.5,35.1,21.8,27.7,27,22c2.1-2.3,4.2-4.7,6.4-6.9C40,8.8,44.7,1,49.8-6.4c5.1-7.3,11.7-9.2,19.8-5.5
		c4.8,2.2,9.5,4.7,14.4,6.5c5.9,2.2,12,3.9,18.1,5.7c3.9,1.2,7.5,2.8,9.9,6.3c1.9,2.8,2.8,5.9,2.5,9.3c-0.4,4.2-0.8,8.5-1.5,12.7
		c-1.2,7.2-0.5,14.3-0.5,21.5c0,2.1,0.2,4.1,0,6.2C112,62.8,107.8,67.5,100.7,69.4z M73,52.5c-1.2-2.6-2.4-5.4-3.7-8.2
		c-0.5-1.1-1.4-1.7-2.8-1.3c-6.1,2-11.4,5.1-15.4,10.2c-2,2.5-2.4,5.5-1.3,8.5c2.4,6.5,9.5,10.1,16.2,8.5c5.2-1.3,8.1-4.9,7.9-10.3
		C73.8,57.6,73.4,55.2,73,52.5z M33.6,36.2c2,7.4,7.5,10.4,14.4,7.8c4.9-1.9,9.1-5,12.7-8.8c1.2-1.3,1.2-2.5,0.1-3.9
		c-3.2-4-6.9-7.4-11.5-9.8c-2.3-1.2-4.8-1.9-7.5-1.3C35.5,21.9,31.7,29.2,33.6,36.2z M79.6,50c1,2.6,1.6,4.5,2.3,6.2
		c2.2,5.1,6.5,7.6,11.3,6.6c5.6-1.2,9.4-4.5,10.9-10.2c1.5-5.8-0.7-10.8-5.8-12.6c-5.7-2.1-11.6-2-17.5-0.8c-1.4,0.3-2.1,1.1-2,2.5
		C79,44.8,79.4,47.8,79.6,50z M61.2-3.5c-1.7,1-3.5,1.9-5.1,3.1c-5.2,4.2-5.8,9.7-1.7,14.9c3.2,4.1,7.4,7,12.1,9.3
		c1.8,0.9,3.1,0.6,4.2-1.1c2.8-4.2,4.9-8.8,5.5-13.8c0.3-2.1,0.2-4.5-0.6-6.4C73.5-2.6,67.3-4.8,61.2-3.5z M105.3,16.7
		c-1.1-4.5-4-7.4-8.2-9.2c-4.6-2-9-0.7-12,3.4c-3.3,4.5-4.9,9.7-5.7,15.2c-0.3,2,0.5,3.3,2.5,3.6c4.2,0.5,8.4,1.3,12.6,1.2
		c2.6-0.1,5.5-1,7.6-2.4C106.3,25.6,106.4,21.2,105.3,16.7z"/>
</g>
</svg>
