<svg id="Layer_1" enable-background="new 0 0 479.995 479.995" height="512" viewBox="0 0 479.995 479.995" width="512" xmlns="http://www.w3.org/2000/svg"><g><path d="m181.453 385.099c1.591 0 3.197-.474 4.597-1.458 66.069-46.492 120.349-105.297 161.333-174.781 2.245-3.806.979-8.711-2.826-10.955-3.809-2.247-8.71-.979-10.955 2.826-39.82 67.513-92.563 124.65-156.759 169.824-6.399 4.504-3.147 14.544 4.61 14.544z"/><path d="m139.863 394.421c-1.56.92-3.124 1.833-4.693 2.737-3.828 2.207-5.142 7.099-2.935 10.927 2.204 3.822 7.096 5.144 10.926 2.935 1.615-.932 3.226-1.87 4.832-2.817 3.805-2.245 5.07-7.15 2.825-10.955-2.246-3.809-7.151-5.073-10.955-2.827z"/><path d="m478.652 28.066c-1.019-13.282-10.243-22.951-21.986-25.532-36.589-8.042-74.172 3.157-99.886 32.172-1.245-.453-2.487-.914-3.749-1.334-28.458-9.493-59.663 2.913-74.202 29.501-74.277 135.835-165.445 254.691-266.927 355.822-23.304 23.224-5.681 63.086 27.208 61.238 152.929-8.611 291.127-94.1 361.253-241.229 1.901-3.989.209-8.763-3.779-10.664-3.989-1.898-8.764-.207-10.664 3.779-66.342 139.193-197.632 223.687-347.709 232.14-18.152 1.059-27.968-21.022-15.015-33.93 102.313-101.962 194.481-221.977 269.672-359.48 10.819-19.789 33.992-29.041 55.1-21.999 26.621 8.882 49.002 25.801 64.723 48.927 6.809 10.017 9.277 22.757 6.772 34.955-2.21 10.767-4.939 21.708-8.13 32.665-26.418-26.333-54.812-47.782-84.495-65.12-3.819-2.229-8.715-.94-10.943 2.873-2.229 3.815-.941 8.715 2.873 10.943 56.996 33.289 88.913 71.177 91.665 73.099 4.358 3.052 10.522 1.047 12.189-4.071 4.904-15.054 9.248-31.254 12.515-47.172 3.368-16.407.01-33.599-9.214-47.167-13.748-20.225-32.029-36.208-53.536-47.038 21.44-21.566 51.35-29.765 80.844-23.284 4.967 1.092 9.007 5.106 9.472 11.16.495 6.458-4.262 12.204-10.601 12.809-1.462.139-2.943.324-4.402.551-4.366.678-7.355 4.767-6.678 9.133.613 3.95 4.019 6.773 7.896 6.773 1.166 0 1.633-.237 4.7-.529 14.962-1.425 26.195-14.865 25.034-29.991z"/><path d="m91.785 398.114c-6.059 4.941-12.253 9.863-18.412 14.63-3.494 2.704-4.134 7.729-1.43 11.223s7.73 4.134 11.223 1.43c6.265-4.849 12.567-9.855 18.731-14.882 3.424-2.793 3.936-7.832 1.144-11.256s-7.832-3.937-11.256-1.145z"/><path d="m264.998 230.497c2.565-3.597 1.73-8.593-1.866-11.159s-8.594-1.731-11.159 1.866c-40.769 57.14-83.627 105.214-107.941 129.021-3.157 3.091-3.21 8.155-.12 11.313 3.089 3.155 8.155 3.212 11.313.119 24.78-24.263 68.398-73.171 109.773-131.16z"/><path d="m285.359 194.104c2.643 0 5.229-1.309 6.755-3.702 2.396-3.762 4.759-7.54 7.021-11.231 2.309-3.767 1.126-8.692-2.642-11.001-3.766-2.308-8.691-1.124-11.001 2.642-2.213 3.611-4.525 7.31-6.872 10.993-3.428 5.381.535 12.299 6.739 12.299z"/></g></svg>