<svg id="Layer_1" enable-background="new 0 0 48 48" height="512" viewBox="0 0 48 48" width="512" xmlns="http://www.w3.org/2000/svg"><path d="m42.163 9.15c-2.801-2.801-6.622-4.138-10.75-3.77-1.567.14-3.105.529-4.555 1.108-2.495-2.275-5.539-3.488-8.858-3.488-8.374 0-14 7.756-14 15 0 14.956 9.847 27 18 27 3.074 0 5.785-1.258 7.65-3.537l11.806-11.805c5.122-5.124 6.628-14.586.707-20.508zm-36.163 8.85c0-6.278 4.822-13 12-13 3.03 0 5.302 1.17 6.879 2.422-1.188.673-2.278 1.492-3.222 2.436-.351.351-.676.716-1.007 1.077l-9.357 9.357c-.391.391-.391 1.023 0 1.414s1.023.391 1.414 0l2.2-2.2c-3.12 6.679-3.681 13.607-1.935 18.376-3.956-4.56-6.972-11.754-6.972-19.882zm34.042 10.243-12.021 12.021c-2.349 2.349-7.411 3.902-11.313 0-5.124-5.124-3.428-19.199 6.364-28.991 4.439-4.438 12.602-5.783 17.678-.708 5.074 5.076 3.731 13.239-.708 17.678zm-9.042 2.757c0 .553-.447 1-1 1h-11c-.553 0-1-.447-1-1s.447-1 1-1h11c.553 0 1 .447 1 1zm4-6c0 .553-.447 1-1 1h-11c-.553 0-1-.447-1-1s.447-1 1-1h11c.553 0 1 .447 1 1zm4-6c0 .553-.447 1-1 1h-11c-.553 0-1-.447-1-1s.447-1 1-1h11c.553 0 1 .447 1 1z"/></svg>