<svg id="Capa_1" enable-background="new 0 0 512.002 512.002" height="512" viewBox="0 0 512.002 512.002" width="512" xmlns="http://www.w3.org/2000/svg"><path d="m1.625 237.752c.491 2.758 2.115 5.184 4.479 6.687 1.619 1.03 3.483 1.562 5.367 1.562.866 0 1.736-.112 2.588-.341 41.962-11.244 83.656-34.617 115.535-64.593 27.174 14.264 61.685 26.354 100.341 34.844 36.208 7.953 72.977 11.977 107.172 11.977 25.318 0 49.227-2.207 70.438-6.657 52.963-11.112 88.816-35.793 103.684-71.375 1.031-2.467 1.031-5.244 0-7.711-14.867-35.582-50.721-60.263-103.684-71.375-49.859-10.461-114.595-8.522-177.61 5.32-38.658 8.492-73.172 20.582-100.346 34.847-3.909-3.678-7.967-7.283-12.15-10.755-4.25-3.526-10.554-2.941-14.082 1.31-3.527 4.25-2.94 10.555 1.31 14.082 2.32 1.925 4.59 3.9 6.824 5.899-8.559 5.543-16.056 11.327-22.31 17.289-1.98 1.887-3.101 4.503-3.101 7.239s1.121 5.352 3.101 7.239c6.256 5.962 13.754 11.747 22.314 17.291-25.983 23.221-58.295 41.788-91.416 52.499-1.15-26.367 9.974-52.191 30.437-69.371 2.263-1.9 3.57-4.704 3.57-7.659s-1.307-5.759-3.57-7.659c-20.464-17.181-31.588-43.004-30.437-69.373 3.188 1.029 6.374 2.131 9.541 3.301 5.179 1.915 10.931-.734 12.846-5.915 1.914-5.181-.734-10.932-5.915-12.846-7.458-2.756-15.026-5.167-22.493-7.168-2.707-.727-5.592-.283-7.955 1.221-2.364 1.503-3.988 3.929-4.479 6.687-5.941 33.406 4.65 67.604 27.842 91.751-23.191 24.149-33.782 58.347-27.841 91.753zm232.601-142.128c60.347-13.255 122.023-15.18 169.212-5.28 31.092 6.523 70.957 21.468 87.595 55.656-16.638 34.188-56.503 49.133-87.595 55.656-47.189 9.9-108.864 7.977-169.212-5.28-51.616-11.338-96.374-29.809-122.803-50.376 26.429-20.567 71.187-39.038 122.803-50.376z"/><path d="m364.069 192.961c.856 0 1.728-.111 2.595-.343 5.334-1.43 8.5-6.913 7.07-12.248-3.003-11.204-4.525-22.768-4.525-34.369s1.522-23.165 4.525-34.369c1.43-5.335-1.736-10.818-7.07-12.248-5.338-1.43-10.818 1.737-12.248 7.07-3.455 12.892-5.207 26.198-5.207 39.546s1.752 26.654 5.207 39.546c1.197 4.469 5.237 7.415 9.653 7.415z"/><path d="m428.956 139.971c5.522 0 10-4.477 10-10s-4.478-10-10-10h-.008c-5.522 0-9.996 4.477-9.996 10s4.481 10 10.004 10z"/><path d="m510.378 274.251c-.49-2.758-2.115-5.184-4.479-6.687s-5.25-1.947-7.955-1.221c-41.962 11.243-83.655 34.617-115.535 64.593-27.173-14.264-61.685-26.354-100.341-34.845-63.014-13.842-127.75-15.78-177.61-5.32-52.963 11.112-88.817 35.793-103.685 71.375-1.031 2.467-1.031 5.244 0 7.711 15.893 38.034 55.42 63.409 114.309 73.383 18.663 3.161 38.871 4.727 60.028 4.727 34.421 0 71.347-4.147 108.153-12.323 5.391-1.198 8.791-6.54 7.593-11.931-1.197-5.392-6.541-8.79-11.931-7.594-56.141 12.47-114.642 15.168-160.503 7.402-34.914-5.913-79.562-20.704-97.453-57.518 16.638-34.189 56.504-49.135 87.596-55.658 47.188-9.901 108.863-7.976 169.212 5.28 51.623 11.339 96.385 29.813 122.813 50.384-6.073 4.742-13.124 9.371-21.095 13.864-.123.064-.243.137-.364.206-5.21 2.923-10.807 5.788-16.791 8.586-5.003 2.339-7.163 8.291-4.823 13.294 2.339 5.002 8.291 7.164 13.294 4.823 4.011-1.875 7.87-3.786 11.582-5.729 31.882 29.983 73.581 53.362 115.551 64.608.852.229 1.722.341 2.588.341 1.883 0 3.748-.532 5.367-1.562 2.363-1.503 3.988-3.929 4.479-6.687 5.94-33.407-4.65-67.604-27.843-91.751 23.192-24.147 33.783-58.344 27.843-91.751zm-48.891 84.093c-2.264 1.9-3.57 4.704-3.57 7.659s1.307 5.759 3.57 7.659c20.462 17.179 31.586 43.003 30.437 69.371-33.118-10.71-65.428-29.276-91.409-52.494 8.599-5.561 16.057-11.339 22.308-17.297 1.979-1.887 3.101-4.503 3.101-7.239 0-2.735-1.12-5.352-3.101-7.239-6.256-5.962-13.754-11.747-22.314-17.291 25.981-23.221 58.294-41.789 91.415-52.499 1.149 26.366-9.975 52.19-30.437 69.37z"/><path d="m145.34 412.619c.867.232 1.737.343 2.594.343 4.415 0 8.456-2.947 9.653-7.415 3.455-12.894 5.207-26.199 5.207-39.545s-1.751-26.651-5.207-39.545c-1.429-5.335-6.912-8.503-12.247-7.071-5.335 1.429-8.501 6.913-7.071 12.247 3.002 11.207 4.525 22.771 4.525 34.37s-1.522 23.163-4.525 34.37c-1.43 5.333 1.736 10.817 7.071 12.246z"/><path d="m73.047 349.973c0 5.523 4.477 10 10 10h.007c5.523 0 9.997-4.477 9.997-10s-4.481-10-10.004-10-10 4.477-10 10z"/><path d="m69.281 90.954c1.508.812 3.131 1.197 4.732 1.197 3.56 0 7.007-1.907 8.813-5.261 2.618-4.862.799-10.927-4.064-13.545l-.006-.003c-4.86-2.618-10.924-.797-13.542 4.065-2.619 4.862-.796 10.928 4.067 13.547z"/><path d="m321.222 404.674c-5.201 1.858-7.911 7.58-6.054 12.781 1.46 4.09 5.31 6.639 9.417 6.639 1.116 0 2.252-.188 3.363-.585l.007-.002c5.201-1.858 7.908-7.579 6.051-12.78-1.858-5.201-7.585-7.908-12.784-6.053z"/></svg>