<svg id="Capa_1" enable-background="new 0 0 502.738 502.738" height="512" viewBox="0 0 502.738 502.738" width="512" xmlns="http://www.w3.org/2000/svg"><path d="m38.005 88.303c43.254 32.483 95.052 44.35 148.467 43.181 4.142-.091 7.425-3.521 7.334-7.662-.089-4.081-3.441-7.408-7.662-7.334-50.579 1.097-99.013-10.051-139.132-40.179-3.741-2.811-3.523-6.423.023-9.233 66.089-52.381 160.865-53.803 243.233-32.598 4.017 1.036 8.1-1.382 9.133-5.393 1.033-4.012-1.382-8.101-5.393-9.133-87.776-22.599-186.705-19.786-256.289 35.367-11.335 8.984-11.235 24.333.286 32.984z"/><path d="m318.651 42.703c19.377 6.229 39.412 13.918 59.644 22.89-48.806 23.779-107.65 42.961-162.873 48.953-4.118.446-7.095 4.147-6.647 8.265.45 4.151 4.187 7.097 8.265 6.647 48.497-5.261 93.504-19.38 126.955-32.5l112.905 27.151c10.63 2.609 19.663-7.963 15.551-17.998-5.426-13.252-16.197-33.442-34.168-43.456 17.575-10.696 27.563-31.284 32.476-44.733 3.736-10.221-5.735-20.4-16.25-17.383l-115.082 33.366c-5.437-1.932-10.836-3.763-16.187-5.483-3.941-1.267-8.168.901-9.436 4.846-1.267 3.943.903 8.168 4.847 9.435zm136.837-26.831c-5.848 14.729-17.881 36.407-38.537 38.59-10.467 1.106-10.177 16.49.332 17.2 20.738 1.389 33.597 22.617 40.001 37.112l-89.841-21.605c9.613-4.263 17.493-8.076 23.266-10.99 8.952-4.524 8.763-17.472-.447-21.655-9.208-4.186-18.386-8.105-27.5-11.768z"/><ellipse cx="100.415" cy="66.073" rx="12.844" ry="12.844" transform="matrix(1 -.019 .019 1 -1.249 1.938)"/><path d="m131.359 102.984c3.13 2.712 7.868 2.372 10.579-.759 10.72-12.377 15.436-24.958 14.019-37.394-1.997-17.525-15.731-27.727-16.315-28.152-3.346-2.442-8.039-1.707-10.479 1.641-2.44 3.347-1.706 8.038 1.641 10.479.09.065 9.01 6.851 10.25 17.732.923 8.094-2.595 16.8-10.453 25.874-2.713 3.131-2.373 7.868.758 10.579z"/><path d="m45.803 309.711 112.971-27.167c15.995 6.262 34.637 12.751 55.123 18.434 3.994 1.105 8.125-1.232 9.232-5.223 1.106-3.991-1.231-8.125-5.223-9.232-41.861-11.611-76.369-27.043-93.455-35.34 158.524-70.308 271.099-46.191 331.252 1.484 3.54 2.806 3.775 6.417.022 9.234-59.551 44.722-136.559 47.049-209.12 31.656-4.051-.859-8.034 1.728-8.894 5.78-.859 4.052 1.729 8.034 5.78 8.894 76.856 16.304 157.938 13.205 221.241-34.336 11.522-8.652 11.62-24.002.286-32.984-22.987-18.22-73.91-48.785-156.68-48.785-45.197 0-93.798 9.193-145.016 27.375l-115.114-33.377c-10.499-3.005-19.958 7.18-16.229 17.391 4.914 13.449 14.902 34.038 32.477 44.733-17.972 10.014-28.742 30.203-34.168 43.454-4.125 10.076 4.975 20.6 15.515 18.009zm39.657-52.456c4.517-.306 7.984-3.941 8.066-8.444.089-4.516-3.238-8.28-7.74-8.757-20.656-2.182-32.688-23.861-38.537-38.59l92.718 26.883c-9.089 3.652-18.251 7.571-27.488 11.77-4.343 1.974-7.04 6.165-7.04 10.939 0 4.556 2.525 8.662 6.594 10.718 5.842 2.948 13.716 6.753 23.273 10.986l-89.851 21.607c6.404-14.493 19.263-35.723 40.005-37.112z"/><ellipse cx="402.324" cy="251.666" rx="12.844" ry="12.844" transform="matrix(.019 -1 1 .019 142.984 649.087)"/><path d="m371.972 234.365c3.315-2.448 4.037-7.119 1.604-10.454-2.441-3.347-7.133-4.082-10.479-1.64-.583.426-14.317 10.627-16.314 28.153-1.417 12.436 3.299 25.017 14.019 37.394 2.706 3.127 7.443 3.474 10.579.759 3.131-2.711 3.471-7.448.759-10.579-7.811-9.02-11.333-17.676-10.47-25.728 1.165-10.868 10.084-17.74 10.302-17.905z"/><path d="m472.45 477.296c-5.426-13.25-16.197-33.439-34.17-43.454 17.575-10.696 27.564-31.285 32.479-44.734 3.733-10.223-5.736-20.401-16.251-17.384l-115.08 33.366c-67.886-24.139-130.841-32.387-187.701-24.494-59.159 8.212-96.823 32.288-114.009 45.908-11.365 9.009-11.203 24.355.286 32.984 85.88 64.495 205.931 47.801 305.932 8.64l112.964 27.166c10.608 2.609 19.667-7.947 15.55-17.998zm-425.437-29.802c-3.791-2.846-3.474-6.463.022-9.234 60.217-47.723 172.995-71.693 331.251-1.485-102.294 49.621-240.454 78.925-331.273 10.719zm320.402 10.853c9.857-4.362 17.781-8.199 23.292-10.981 8.996-4.544 8.723-17.488-.446-21.656-9.247-4.204-18.408-8.116-27.492-11.77l92.72-26.884c-5.848 14.729-17.88 36.407-38.525 38.589-10.5 1.094-10.176 16.509.319 17.201 20.738 1.39 33.597 22.619 40.001 37.113z"/><ellipse cx="100.415" cy="437.259" rx="12.844" ry="12.844" transform="matrix(1 -.019 .019 1 -8.37 2.007)"/><path d="m139.642 407.864c-3.348-2.441-8.038-1.706-10.479 1.64-2.44 3.347-1.706 8.039 1.64 10.479.09.065 9.011 6.851 10.251 17.732.923 8.095-2.595 16.801-10.453 25.875-2.712 3.131-2.372 7.868.759 10.579 3.13 2.712 7.868 2.372 10.579-.759 10.72-12.377 15.436-24.958 14.019-37.394-1.999-17.525-15.733-27.726-16.316-28.152z"/></svg>