<?xml version="1.0" encoding="utf-8"?>
<!-- Generator: Adobe Illustrator 19.1.0, SVG Export Plug-In . SVG Version: 6.00 Build 0)  -->
<svg version="1.1" xmlns="http://www.w3.org/2000/svg" xmlns:xlink="http://www.w3.org/1999/xlink" x="0px" y="0px"
	 viewBox="0 0 500 280" style="enable-background:new 0 0 500 280;" xml:space="preserve">
<style type="text/css">
	.st0{fill:none;stroke:#000000;stroke-width:4;stroke-miterlimit:10;}
	.st1{fill:#FFFFFF;stroke:#000000;stroke-width:4;stroke-miterlimit:10;}
	.st2{stroke:#000000;stroke-width:0.7935;stroke-miterlimit:10;}
	.st3{fill:#FFFFFF;stroke:#000000;stroke-width:0.7935;stroke-miterlimit:10;}
	.st4{stroke:#000000;stroke-width:1.6;stroke-miterlimit:10;}
	.st5{fill:#FFFFFF;stroke:#000000;stroke-width:1.6;stroke-miterlimit:10;}
	.st6{stroke:#000000;stroke-width:1.1336;stroke-miterlimit:10;}
	.st7{fill:#FFFFFF;stroke:#000000;stroke-width:1.1336;stroke-miterlimit:10;}
	.st8{fill:#FFFFFF;}
	.st9{fill:#414042;stroke:#000000;stroke-width:1.5;stroke-miterlimit:10;}
	.st10{fill:#414042;stroke:#FFFFFF;stroke-miterlimit:10;}
	.st11{fill:#414042;stroke:#000000;stroke-miterlimit:10;}
	.st12{fill:#58595B;stroke:#000000;stroke-width:1.5;stroke-miterlimit:10;}
	.st13{fill:#58595B;stroke:#FFFFFF;stroke-miterlimit:10;}
	.st14{fill:#58595B;stroke:#000000;stroke-miterlimit:10;}
	.st15{fill:#6D6E71;stroke:#000000;stroke-width:1.5;stroke-miterlimit:10;}
	.st16{fill:#6D6E71;stroke:#FFFFFF;stroke-miterlimit:10;}
	.st17{fill:#6D6E71;stroke:#000000;stroke-miterlimit:10;}
	.st18{fill:#808285;stroke:#000000;stroke-width:1.5;stroke-miterlimit:10;}
	.st19{fill:#808285;stroke:#FFFFFF;stroke-miterlimit:10;}
	.st20{fill:#808285;stroke:#000000;stroke-miterlimit:10;}
	.st21{fill:#D1D3D4;stroke:#000000;stroke-width:1.5;stroke-miterlimit:10;}
	.st22{fill:#D1D3D4;stroke:#FFFFFF;stroke-miterlimit:10;}
	.st23{fill:#D1D3D4;stroke:#000000;stroke-miterlimit:10;}
	.st24{fill:#A7A9AC;stroke:#000000;stroke-width:1.5;stroke-miterlimit:10;}
	.st25{stroke:#FFFFFF;stroke-miterlimit:10;}
	.st26{fill:none;stroke:#000000;stroke-miterlimit:10;}
</style>
<g id="nshima">
</g>
<g id="VUNKWALA">
	<g>
		<g id="_x34_drmx3.tif_8_">
			<g>
				<path class="st2" d="M290.8,161.9c0,0.6-0.1,1-0.7,1.3c-1.7,1-3.5,2-5.2,2.9c-0.3,0.2-0.4,0.4-0.4,0.7c0.2,1.3,0,2.5-0.6,3.7
					c-0.3,0.6-0.2,0.9,0.2,1.4c1.2,1.4,2.3,2.8,3.4,4.2c0.4,0.4,0.4,0.9-0.1,1.3c-0.4,0.4-1,0.3-1.4,0c-0.2-0.2-0.3-0.4-0.5-0.6
					c-0.9-1.2-1.9-2.3-2.8-3.5c-0.1-0.1-0.2-0.2-0.4-0.4c-0.3,0.2-0.6,0.5-0.9,0.7c-2.4,1.8-5.7,1.9-8.2,0.3
					c-0.5-0.3-0.8-0.3-1.2,0.1c-2.6,2.1-5.6,2.6-8.8,1.5c-0.4-0.1-0.6,0-0.8,0.2c-1.8,1.9-4.1,2.9-6.7,2.9c-0.4,0-0.5,0.1-0.7,0.5
					c-0.8,2.3-2.3,4.1-4.5,5.2c-0.2,0.1-0.4,0.4-0.3,0.5c0.2,2.2-0.3,4.1-1.6,5.9c-0.1,0.1-0.1,0.4,0,0.6c1,1.5,1.6,3.1,1.7,4.9
					c0.8,0.2,1.5,0.3,2.2,0.6c0.7,0.3,1.4,0.6,1.9,1c0.7,0.6,1.3,0.6,2.2,0.4c3.4-0.9,7.9,0.8,10,3.7c1.9,2.7,1.8,6.1-0.4,8.5
					c-1.2,1.4-2.9,2.2-4.7,2.6c-2.5,0.6-4.9,0.8-7.3-0.5c-0.2-0.1-0.5,0-0.7,0.1c-4.4,2.3-9.7,0.7-12-3.7c-0.6-1.1-0.8-2.5-1.3-3.8
					c0.1,0,0,0-0.1,0c-6.6-1.1-9.7-8.1-6-13.6c0.3-0.4,0.2-0.7-0.1-1c-2.9-4.1-1.3-10.4,3.2-12.6c0.5-0.2,0.6-0.5,0.5-1
					c-0.3-4.9,3.8-9.3,8.7-9.2c0.5,0,0.8-0.2,0.9-0.7c1.5-4.3,6-6.8,10.4-5.6c1.1,0.3,1.7,0.2,2.6-0.6c3.5-3.2,8.6-3,12.1,0.3
					c0.3,0.3,0.5,0.3,0.9,0.1c2.6-1.5,5.9-1.3,8.2,0.6c0.9,0.7,1.5,1.7,2.3,2.6c0,0,0.1,0,0.2-0.1c1.5-0.8,3-1.7,4.5-2.6
					c0.5-0.3,1-0.5,1.6-0.3C290.6,161.6,290.7,161.7,290.8,161.9z M264.8,202.6c-1.9-2.1-4.3-2.9-7.1-2.6c-0.5,0.1-1.1,0.3-1.6,0.6
					c-0.7,0.4-1.2,0.4-1.8-0.2c-1.4-1.3-3-2-4.8-2c-0.8,0-1.1-0.4-1.1-1.2c0.1-1.9-0.5-3.5-1.7-4.9c-0.7-0.8-0.7-1.1,0-1.9
					c1.4-1.6,1.8-3.5,1.5-5.6c-0.2-1.2-0.1-1.3,1-1.8c2.3-0.9,3.7-2.6,4.2-5c0.3-1.2,0.5-1.3,1.7-1.2c2.6,0.3,4.7-0.7,6.3-2.7
					c0.8-1,0.9-1,2-0.5c2.8,1.3,6.1,0.6,8.1-1.6c0.8-0.8,1.1-0.9,2-0.1c2.1,1.9,5,1.9,7.3,0c2-1.7,2.4-4.8,0.9-7.2
					c-1.3-2.1-4.3-3-6.7-1.9c-0.4,0.2-0.8,0.5-1.2,0.8c-0.6,0.5-1.1,0.4-1.6-0.2c-2.2-2.9-5.5-3.6-8.7-2.1c-1,0.5-1.8,1.3-2.5,2.2
					c-0.6,0.8-0.8,0.8-1.7,0.4c-4.1-2.1-8.9,0.2-9.8,4.7c-0.3,1.2-0.5,1.4-1.7,1.2c-4.4-0.5-8.2,3.5-7.5,7.9c0.2,1.2,0.1,1.4-1,1.8
					c-4.2,1.7-5.6,6.7-3.1,10.4c1,1.4,1,1.4,0,2.9c-1.5,2.2-1.6,4.5-0.5,6.9c1.2,2.4,3.2,3.7,5.9,3.8c1.2,0.1,1.3,0.2,1.3,1.5
					c0,2.8,1.3,4.9,3.7,6.2c2.4,1.3,4.8,1.1,7-0.4c0.7-0.5,0.9-0.4,1.7,0.1c0.7,0.4,1.5,0.7,2.2,0.8c2.4,0.3,4.7-0.3,6.4-1.4
					C266.7,208,267,204.9,264.8,202.6z"/>
				<path class="st3" d="M263.9,210.1c2.7-2.1,3-5.1,0.9-7.5c-1.9-2.1-4.3-2.9-7.1-2.6c-0.5,0.1-1.1,0.3-1.6,0.6
					c-0.7,0.4-1.2,0.4-1.8-0.2c-1.4-1.3-3-2-4.8-2c-0.8,0-1.1-0.4-1.1-1.2c0.1-1.9-0.5-3.5-1.7-4.9c-0.7-0.8-0.7-1.1,0-1.9
					c1.4-1.6,1.8-3.5,1.5-5.6c-0.2-1.2-0.1-1.3,1-1.8c2.3-0.9,3.7-2.6,4.2-5c0.3-1.2,0.5-1.3,1.7-1.2c2.6,0.3,4.7-0.7,6.3-2.7
					c0.8-1,0.9-1,2-0.5c2.8,1.3,6.1,0.6,8.1-1.6c0.8-0.8,1.1-0.9,2-0.1c2.1,1.9,5,1.9,7.3,0c2-1.7,2.4-4.8,0.9-7.2
					c-1.3-2.1-4.3-3-6.7-1.9c-0.4,0.2-0.8,0.5-1.2,0.8c-0.6,0.5-1.1,0.4-1.6-0.2c-2.2-2.9-5.5-3.6-8.7-2.1c-1,0.5-1.8,1.3-2.5,2.2
					c-0.6,0.8-0.8,0.8-1.7,0.4c-4.1-2.1-8.9,0.2-9.8,4.7c-0.3,1.2-0.5,1.4-1.7,1.2c-4.4-0.5-8.2,3.5-7.5,7.9c0.2,1.2,0.1,1.4-1,1.8
					c-4.2,1.7-5.6,6.7-3.1,10.4c1,1.4,1,1.4,0,2.9c-1.5,2.2-1.6,4.5-0.5,6.9c1.2,2.4,3.2,3.7,5.9,3.8c1.2,0.1,1.3,0.2,1.3,1.5
					c0,2.8,1.3,4.9,3.7,6.2c2.4,1.3,4.8,1.1,7-0.4c0.7-0.5,0.9-0.4,1.7,0.1c0.7,0.4,1.5,0.7,2.2,0.8
					C260,211.8,262.3,211.2,263.9,210.1z"/>
			</g>
		</g>
		<g id="_x34_drmx3.tif_9_">
			<g>
				<path class="st2" d="M250.7,41.5c0.4,0.4,0.6,0.8,0.4,1.4c-0.6,1.9-1.1,3.8-1.7,5.7c-0.1,0.4-0.1,0.6,0.2,0.8
					c1,0.8,1.8,1.8,2.1,3c0.2,0.6,0.5,0.8,1.1,0.8c1.8,0.2,3.6,0.4,5.4,0.7c0.6,0.1,0.9,0.4,0.9,1c0,0.5-0.5,0.9-1,0.9
					c-0.2,0-0.5-0.1-0.7-0.1c-1.5-0.2-3-0.4-4.5-0.6c-0.2,0-0.3,0-0.5,0c-0.1,0.4-0.1,0.8-0.2,1.1c-0.5,3-2.8,5.3-5.7,5.9
					c-0.6,0.1-0.7,0.3-0.8,0.9c-0.5,3.3-2.2,5.8-5.3,7.2c-0.4,0.2-0.4,0.4-0.4,0.7c0,2.6-0.9,4.9-2.8,6.7c-0.3,0.3-0.3,0.5-0.1,0.8
					c1.1,2.2,1.2,4.5,0.4,6.9c-0.1,0.2,0,0.5,0.1,0.6c1.7,1.4,2.6,3.2,3,5.3c0,0.2,0.2,0.4,0.4,0.4c1.7,0.4,3.3,1.2,4.6,2.3
					c0.7-0.4,1.3-0.8,2-1.1c0.7-0.3,1.4-0.6,2.1-0.6c0.9-0.1,1.3-0.5,1.8-1.2c1.8-3,6.2-4.9,9.7-4.3c3.3,0.6,5.5,3.1,5.7,6.4
					c0.1,1.9-0.5,3.6-1.6,5.1c-1.4,2.1-3,4-5.6,4.7c-0.2,0-0.3,0.3-0.4,0.5c-1.6,4.7-6.4,7.2-11.2,5.7c-1.2-0.4-2.3-1.2-3.5-1.9
					c0.1,0,0,0-0.1,0.1c-5.4,3.8-12.6,0.9-13.8-5.6c-0.1-0.5-0.3-0.6-0.7-0.7c-4.9-0.9-8.1-6.6-6.4-11.3c0.2-0.5,0.1-0.8-0.3-1.1
					c-3.7-3.3-3.7-9.3-0.1-12.7c0.4-0.4,0.4-0.6,0.2-1.1c-1.9-4.1-0.4-9.1,3.6-11.3c1-0.5,1.4-1,1.4-2.2c0.3-4.8,4.1-8.1,8.9-8.1
					c0.4,0,0.6-0.1,0.7-0.5c0.8-2.8,3.4-5,6.3-5.2c1.1-0.1,2.3,0.1,3.4,0.2c0,0,0.1-0.1,0.1-0.2c0.5-1.7,1-3.3,1.5-5
					c0.2-0.6,0.3-1,0.9-1.3C250.3,41.4,250.5,41.5,250.7,41.5z M260.2,88.8c-2.8-0.2-5.1,0.9-6.9,3c-0.3,0.4-0.5,1-0.7,1.5
					c-0.3,0.8-0.6,1.1-1.4,1.1c-1.9,0-3.5,0.6-4.9,1.9c-0.6,0.5-1.1,0.5-1.6-0.1c-1.2-1.4-2.8-2.2-4.6-2.4c-1.1-0.1-1.2-0.3-1.3-1.4
					c-0.2-2.1-1.1-3.8-2.8-5.1c-0.9-0.7-1-0.9-0.5-2c1-2.3,0.9-4.4-0.4-6.5c-0.6-1-0.6-1.3,0.4-2.1c2.1-1.6,2.9-3.8,2.6-6.3
					c-0.1-1.2-0.1-1.3,1.1-1.7c2.9-1,4.8-3.8,4.7-6.8c0-1.1,0.2-1.4,1.4-1.5c2.8-0.1,4.9-2.2,5.2-5.1c0.3-2.6-1.6-5.1-4.3-5.7
					c-2.4-0.6-5.2,0.9-6.2,3.3c-0.2,0.5-0.3,0.9-0.3,1.4c-0.1,0.8-0.5,1.1-1.3,1c-3.6-0.5-6.5,1.2-7.7,4.6c-0.4,1.1-0.5,2.2-0.3,3.3
					c0.1,1,0,1.2-0.9,1.5c-4.4,1.3-6.2,6.3-3.8,10.2c0.7,1.1,0.6,1.3-0.4,2.1c-3.5,2.7-3.5,8.2,0.1,10.9c0.9,0.7,1,0.9,0.5,2
					c-1.8,4.1,0.6,8.7,5,9.6c1.7,0.3,1.7,0.3,2,2.1c0.5,2.6,2,4.4,4.4,5.3c2.5,1,4.8,0.4,6.9-1.3c0.9-0.8,1.1-0.8,2,0.1
					c1.9,2,4.3,2.6,6.9,1.9c2.6-0.7,4.2-2.5,4.8-5.2c0.2-0.9,0.3-0.9,1.2-1.1c0.8-0.2,1.6-0.5,2.2-0.9c2-1.5,3.2-3.5,3.6-5.4
					C265.3,91.4,263.4,89,260.2,88.8z"/>
				<path class="st3" d="M264.8,94.8c0.5-3.4-1.4-5.8-4.6-6c-2.8-0.2-5.1,0.9-6.9,3c-0.3,0.4-0.5,1-0.7,1.5
					c-0.3,0.8-0.6,1.1-1.4,1.1c-1.9,0-3.5,0.6-4.9,1.9c-0.6,0.5-1.1,0.5-1.6-0.1c-1.2-1.4-2.8-2.2-4.6-2.4c-1.1-0.1-1.2-0.3-1.3-1.4
					c-0.2-2.1-1.1-3.8-2.8-5.1c-0.9-0.7-1-0.9-0.5-2c1-2.3,0.9-4.4-0.4-6.5c-0.6-1-0.6-1.3,0.4-2.1c2.1-1.6,2.9-3.8,2.6-6.3
					c-0.1-1.2-0.1-1.3,1.1-1.7c2.9-1,4.8-3.8,4.7-6.8c0-1.1,0.2-1.4,1.4-1.5c2.8-0.1,4.9-2.2,5.2-5.1c0.3-2.6-1.6-5.1-4.3-5.7
					c-2.4-0.6-5.2,0.9-6.2,3.3c-0.2,0.5-0.3,0.9-0.3,1.4c-0.1,0.8-0.5,1.1-1.3,1c-3.6-0.5-6.5,1.2-7.7,4.6c-0.4,1.1-0.5,2.2-0.3,3.3
					c0.1,1,0,1.2-0.9,1.5c-4.4,1.3-6.2,6.3-3.8,10.2c0.7,1.1,0.6,1.3-0.4,2.1c-3.5,2.7-3.5,8.2,0.1,10.9c0.9,0.7,1,0.9,0.5,2
					c-1.8,4.1,0.6,8.7,5,9.6c1.7,0.3,1.7,0.3,2,2.1c0.5,2.6,2,4.4,4.4,5.3c2.5,1,4.8,0.4,6.9-1.3c0.9-0.8,1.1-0.8,2,0.1
					c1.9,2,4.3,2.6,6.9,1.9c2.6-0.7,4.2-2.5,4.8-5.2c0.2-0.9,0.3-0.9,1.2-1.1c0.8-0.2,1.6-0.5,2.2-0.9
					C263.1,98.8,264.4,96.8,264.8,94.8z"/>
			</g>
		</g>
		<g id="_x34_drmx3.tif_1_">
			<g>
				<path class="st4" d="M214,119.4c-0.8-0.2-1.3-0.8-1.8-1.5c-1.3-2.1-2.7-4.1-4-6.2c-0.1-0.1-0.2-0.2-0.2-0.2
					c-1.6,0.6-3.1,1.4-4.6,1.8c-4.1,0.9-8.5-1-10.8-4.5c-0.3-0.5-0.6-0.6-1.2-0.4c-6.6,2-13.2-1-15.5-7.4c-0.6-1.6-1.3-2.1-2.9-2.4
					c-6.3-1.3-10.5-7.5-9.6-13.9c0.1-0.8-0.1-1.1-0.8-1.5c-6.3-3.2-8.7-11.4-5.1-17.4c0.4-0.6,0.4-1-0.1-1.6
					c-4.3-5.7-2.2-14.8,4.1-18.1c0.5-0.3,0.8-0.5,0.7-1.2c-1-9.4,7.5-16.3,16.5-13.4c0.1,0,0.2,0.1,0.1,0c1.4-1.4,2.6-3,4.1-4
					c5.8-4.1,13.5-2.7,17.6,3.1c0.2,0.2,0.5,0.5,0.8,0.5c3.8-0.1,6.8,1.7,9.6,4.1c2,1.7,3.6,3.8,4.2,6.4c1.2,4.6-0.9,8.9-5.1,11.1
					c-4.5,2.3-11.3,1.6-15.1-1.8c-1-0.9-1.7-1.2-3-0.9c-1,0.2-2.1,0.1-3.1,0c-1-0.1-2.1-0.4-3.1-0.6c-1.3,2.2-3.1,3.9-5.3,5.1
					c-0.2,0.1-0.4,0.5-0.3,0.8c0.4,3.1-0.2,5.9-1.9,8.5c-0.1,0.2-0.1,0.7,0.1,0.9c2,2.9,2.8,6.1,2.3,9.5c-0.1,0.5,0,0.8,0.5,1
					c3.3,1.7,5.6,4.4,6.6,8c0.1,0.5,0.3,0.7,0.9,0.8c4.8,0.6,8.2,3.2,10.2,7.6c0.3,0.7,0.6,0.9,1.5,0.9c4.2-0.5,8.3,1.9,10.2,5.7
					c0.2,0.5,0.4,0.9,0.7,1.4c0.2-0.1,0.5-0.1,0.7-0.2c2-0.9,3.9-1.8,5.9-2.6c0.3-0.1,0.6-0.3,1-0.4c0.8-0.2,1.6,0.1,1.8,0.8
					c0.3,0.8,0,1.4-0.8,1.7c-2.4,1.1-4.7,2.1-7.1,3.1c-0.8,0.3-1.1,0.7-1.1,1.6c0,1.8-0.6,3.5-1.7,5c-0.3,0.4-0.3,0.7,0,1.2
					c1.6,2.4,3.1,4.8,4.7,7.1c0.5,0.8,0.4,1.4,0,2.1C214.6,119.2,214.3,119.3,214,119.4z M212,40.3c-1.4-2.5-3.9-4.8-7.2-5.9
					c-1-0.4-2.3-0.5-3.4-0.4c-1.3,0.1-1.5,0.1-2.1-1c-1.9-3.4-4.8-5.2-8.7-5.1c-3.9,0.1-6.9,1.9-8.7,5.4c-0.8,1.6-1.1,1.7-2.6,1
					c-3.5-1.5-6.9-1.3-10,1.1c-2.9,2.3-4.3,5.3-3.8,9.1c0.3,2.5,0.3,2.5-1.9,3.7c-5.7,3-7.1,10.3-2.9,15.2c1.1,1.2,1.1,1.6,0.1,2.9
					c-3.8,5.1-1.6,12.7,4.4,14.9c1.7,0.6,1.9,1,1.4,2.7c-1.7,6.3,2.9,12.3,9.4,12.3c1.4,0,1.7,0.3,1.9,1.6c0.2,1.6,0.8,3.1,1.8,4.4
					c3.1,4.1,7.8,5.2,12.5,3c1-0.5,1.7-0.2,2.2,0.8c0.3,0.6,0.6,1.3,1.1,1.8c2.3,2.9,6.7,3.8,9.8,2c3.5-2,5-6.2,3.6-9.6
					c-1.6-3.9-5.3-5.8-9.2-4.8c-1.6,0.4-2.1,0.1-2.5-1.4c-1.1-4.2-4.9-7.2-9.3-7.3c-1.8-0.1-1.9-0.2-2.2-1.9
					c-0.7-3.6-2.7-6.2-6.2-7.6c-1.6-0.6-1.8-1-1.4-2.7c0.9-3.4,0.2-6.5-2.1-9.1c-1.1-1.3-1.1-1.5-0.1-2.9c1.8-2.4,2.4-5.1,1.7-8.1
					c-0.3-1.5-0.2-1.8,1.2-2.4c2.4-1,4.2-2.7,5.3-5.1c0.5-1.1,1.1-1.3,2.1-0.8c2.4,1.2,4.9,1.4,7.5,0.6c1.1-0.3,1.7,0,2.4,0.9
					c0.5,0.6,1,1.3,1.6,1.7c3.3,2.2,7,2.7,10.7,1.2C212.5,48.8,214.1,44.7,212,40.3z"/>
				<path class="st5" d="M212,40.3c2.1,4.4,0.5,8.5-3.7,10.1c-3.7,1.4-7.4,1-10.7-1.2c-0.6-0.4-1.1-1.1-1.6-1.7
					c-0.7-0.9-1.3-1.2-2.4-0.9c-2.6,0.8-5,0.6-7.5-0.6c-1-0.5-1.7-0.3-2.1,0.8c-1.1,2.4-2.9,4.1-5.3,5.1c-1.4,0.6-1.6,0.9-1.2,2.4
					c0.7,3,0,5.6-1.7,8.1c-1,1.3-1,1.6,0.1,2.9c2.3,2.7,3,5.7,2.1,9.1c-0.4,1.7-0.2,2,1.4,2.7c3.5,1.4,5.5,3.9,6.2,7.6
					c0.3,1.7,0.4,1.9,2.2,1.9c4.4,0.2,8.1,3.2,9.3,7.3c0.4,1.6,0.9,1.8,2.5,1.4c3.9-1,7.6,0.9,9.2,4.8c1.4,3.5-0.1,7.6-3.6,9.6
					c-3.1,1.8-7.5,1-9.8-2c-0.4-0.5-0.7-1.2-1.1-1.8c-0.5-1-1.1-1.3-2.2-0.8c-4.7,2.2-9.4,1.1-12.5-3c-1-1.3-1.5-2.8-1.8-4.4
					c-0.2-1.4-0.5-1.6-1.9-1.6c-6.6,0-11.1-6-9.4-12.3c0.5-1.7,0.3-2.1-1.4-2.7c-5.9-2.3-8.1-9.8-4.4-14.9c1-1.3,1-1.7-0.1-2.9
					c-4.2-4.9-2.8-12.2,2.9-15.2c2.2-1.2,2.2-1.2,1.9-3.7c-0.5-3.8,0.9-6.8,3.8-9.1c3.1-2.4,6.4-2.6,10-1.1c1.6,0.7,1.9,0.6,2.6-1
					c1.8-3.6,4.8-5.4,8.7-5.4c3.9-0.1,6.8,1.7,8.7,5.1c0.6,1.1,0.8,1.1,2.1,1c1.1-0.1,2.3,0,3.4,0.4C208.1,35.5,210.6,37.7,212,40.3
					z"/>
			</g>
		</g>
		<g id="_x34_drmx3.tif_2_">
			<g>
				<path class="st6" d="M216.8,237.2c0.3-0.8,0.8-1.3,1.7-1.3c2.8-0.3,5.7-0.6,8.5-0.9c0.5-0.1,0.8-0.2,0.9-0.7
					c0.5-1.8,1.4-3.3,2.8-4.5c0.7-0.6,0.8-1.1,0.5-1.9c-0.8-2.5-1.5-5-2.2-7.5c-0.2-0.8,0-1.4,0.8-1.7c0.7-0.3,1.5,0.1,1.8,0.8
					c0.1,0.3,0.2,0.7,0.3,1c0.6,2.1,1.2,4.1,1.8,6.2c0.1,0.2,0.2,0.4,0.3,0.7c0.6-0.1,1.1-0.3,1.6-0.4c4.2-1,8.6,0.6,10.9,4.2
					c0.5,0.7,0.8,0.8,1.6,0.6c4.6-1.3,8.8-0.4,12.4,2.9c0.4,0.4,0.7,0.3,1.2,0.1c3.5-1.5,6.9-1.5,10.4-0.1c0.5,0.2,0.8,0.1,1.1-0.3
					c2.3-2.6,5.3-4.1,8.8-4.4c0.3,0,0.7-0.3,0.7-0.5c0.9-3,2.7-5.3,5.3-6.9c0.2-0.1,0.4-0.5,0.4-0.7c-0.5-2.5-0.3-5,0.5-7.3
					c-0.9-0.7-1.8-1.3-2.5-2c-0.7-0.7-1.5-1.5-2-2.4c-0.6-1.1-1.4-1.5-2.6-1.7c-5-0.7-10-5.4-11.1-10.4c-1-4.6,1-9,5.2-11
					c2.4-1.2,5-1.3,7.6-0.8c3.6,0.6,6.9,1.7,9.3,4.7c0.2,0.2,0.6,0.3,0.9,0.2c7.1-0.5,13.1,4.4,13.7,11.5c0.2,1.8-0.3,3.7-0.5,5.7
					c-0.1-0.1,0,0,0.1,0.1c8,5,8.2,16,0.3,21.3c-0.6,0.4-0.6,0.8-0.4,1.3c1.6,7-4.1,14.4-11.2,14.8c-0.7,0-1,0.3-1.3,1
					c-2.3,6.7-10.1,10.1-16.6,7.3c-0.7-0.3-1.1-0.2-1.6,0.4c-4.3,4.9-11.7,5.6-16.8,1.6c-1.3-1-2.1-1.2-3.7-0.6
					c-6.4,2.3-13-0.8-15.7-7.1c-0.2-0.5-0.4-0.7-1.1-0.6c-4.2,0.5-8.5-1.6-10.4-5.4c-0.7-1.4-1.1-3-1.6-4.7c0,0-0.2,0-0.3,0
					c-2.4,0.3-4.9,0.5-7.3,0.9c-0.8,0.1-1.6,0.1-2.3-0.4C217,237.8,216.9,237.5,216.8,237.2z M273.6,198.2c1.3,3.8,4,6.3,7.8,7.4
					c0.7,0.2,1.6,0.2,2.4,0.1c1.1-0.1,1.7,0.2,2.2,1.3c1.1,2.5,2.8,4.2,5.2,5.3c1.1,0.5,1.3,1.1,0.7,2.2c-1.2,2.4-1.3,4.8-0.5,7.4
					c0.5,1.5,0.3,1.8-1.1,2.5c-2.7,1.4-4.4,3.6-5.1,6.5c-0.4,1.6-0.6,1.8-2.3,1.8c-3.5,0-6.3,1.4-8.3,4.2c-1,1.4-1.4,1.5-2.9,0.7
					c-3.3-1.8-6.6-1.7-9.8,0.1c-1.5,0.9-1.7,0.9-2.9-0.4c-2.9-3.2-7.6-4.2-11.6-2.4c-1.5,0.7-2,0.5-2.7-1c-1.7-3.6-5.6-5.3-9.6-4
					c-3.6,1.1-5.8,5-5.1,8.9c0.6,3.5,4.1,6.3,7.8,6.2c0.7,0,1.4-0.2,2.1-0.4c1.1-0.3,1.7,0,2,1.1c1.3,5,5.2,7.9,10.3,7.6
					c1.6-0.1,3.1-0.6,4.5-1.5c1.2-0.7,1.6-0.7,2.4,0.4c4.2,5,11.8,4.7,15.5-0.7c1-1.5,1.4-1.6,3-0.7c5.5,3.1,12.8-0.1,14.2-6.3
					c0.4-1.6,0.6-1.8,2.3-1.8c6.5,0,11.1-5.7,9.8-12c-0.5-2.4-0.5-2.4,1.6-3.8c3.2-2.1,4.7-5.1,4.5-8.8c-0.2-3.8-2.1-6.6-5.6-8.3
					c-1.5-0.8-1.6-1.1-0.9-2.7c1.6-3.7,1.1-7.1-1.4-10.2c-2.4-3-5.7-4.1-9.5-3.3c-1.2,0.2-1.4,0.1-2.2-1c-0.7-0.9-1.5-1.8-2.5-2.3
					c-3-1.8-6.3-2.2-9.2-1.7C274.2,190,272.2,193.9,273.6,198.2z"/>
				<path class="st7" d="M279,188.8c-4.8,1.2-6.8,5.1-5.4,9.4c1.3,3.8,4,6.3,7.8,7.4c0.7,0.2,1.6,0.2,2.4,0.1
					c1.1-0.1,1.7,0.2,2.2,1.3c1.1,2.5,2.8,4.2,5.2,5.3c1.1,0.5,1.3,1.1,0.7,2.2c-1.2,2.4-1.3,4.8-0.5,7.4c0.5,1.5,0.3,1.8-1.1,2.5
					c-2.7,1.4-4.4,3.6-5.1,6.5c-0.4,1.6-0.6,1.8-2.3,1.8c-3.5,0-6.3,1.4-8.3,4.2c-1,1.4-1.4,1.5-2.9,0.7c-3.3-1.8-6.6-1.7-9.8,0.1
					c-1.5,0.9-1.7,0.9-2.9-0.4c-2.9-3.2-7.6-4.2-11.6-2.4c-1.5,0.7-2,0.5-2.7-1c-1.7-3.6-5.6-5.3-9.6-4c-3.6,1.1-5.8,5-5.1,8.9
					c0.6,3.5,4.1,6.3,7.8,6.2c0.7,0,1.4-0.2,2.1-0.4c1.1-0.3,1.7,0,2,1.1c1.3,5,5.2,7.9,10.3,7.6c1.6-0.1,3.1-0.6,4.5-1.5
					c1.2-0.7,1.6-0.7,2.4,0.4c4.2,5,11.8,4.7,15.5-0.7c1-1.5,1.4-1.6,3-0.7c5.5,3.1,12.8-0.1,14.2-6.3c0.4-1.6,0.6-1.8,2.3-1.8
					c6.5,0,11.1-5.7,9.8-12c-0.5-2.4-0.5-2.4,1.6-3.8c3.2-2.1,4.7-5.1,4.5-8.8c-0.2-3.8-2.1-6.6-5.6-8.3c-1.5-0.8-1.6-1.1-0.9-2.7
					c1.6-3.7,1.1-7.1-1.4-10.2c-2.4-3-5.7-4.1-9.5-3.3c-1.2,0.2-1.4,0.1-2.2-1c-0.7-0.9-1.5-1.8-2.5-2.3
					C285.1,188.7,281.8,188.2,279,188.8z"/>
			</g>
		</g>
		<g id="_x34_drmx3.tif_3_">
			<g>
				<path class="st6" d="M254.9,38.5c0.7-0.5,1.4-0.5,2.3-0.4c2.4,0.3,4.9,0.6,7.3,0.9c0.2,0,0.3,0,0.3,0c0.5-1.6,0.9-3.2,1.6-4.7
					c1.9-3.7,6.2-5.9,10.4-5.4c0.6,0.1,0.9-0.1,1.1-0.6c2.7-6.3,9.3-9.4,15.7-7.1c1.6,0.6,2.5,0.4,3.7-0.6c5.1-4,12.5-3.2,16.8,1.6
					c0.5,0.6,0.9,0.7,1.6,0.4c6.5-2.8,14.3,0.6,16.6,7.3c0.2,0.7,0.5,0.9,1.3,1c7.1,0.4,12.7,7.8,11.2,14.8
					c-0.1,0.6-0.2,0.9,0.4,1.3c7.9,5.2,7.7,16.3-0.3,21.3c-0.1,0.1-0.2,0.1-0.1,0.1c0.2,2,0.6,3.9,0.5,5.7
					c-0.6,7.1-6.6,12.1-13.7,11.5c-0.3,0-0.8,0-0.9,0.2c-2.4,3-5.7,4.1-9.3,4.7c-2.6,0.4-5.2,0.3-7.6-0.8c-4.2-2.1-6.3-6.4-5.2-11
					c1.1-5,6.1-9.7,11.1-10.4c1.3-0.2,2-0.6,2.6-1.7c0.5-0.9,1.2-1.7,2-2.4c0.7-0.7,1.6-1.3,2.5-2c-0.8-2.4-1-4.8-0.5-7.3
					c0-0.2-0.2-0.6-0.4-0.7c-2.6-1.6-4.4-3.9-5.3-6.9c-0.1-0.2-0.5-0.5-0.7-0.5c-3.5-0.3-6.4-1.7-8.8-4.4c-0.3-0.4-0.6-0.5-1.1-0.3
					c-3.5,1.4-7,1.5-10.4-0.1c-0.4-0.2-0.8-0.3-1.2,0.1c-3.6,3.3-7.7,4.2-12.4,2.9c-0.8-0.2-1.1-0.1-1.6,0.6
					c-2.4,3.5-6.8,5.2-10.9,4.2c-0.5-0.1-1-0.3-1.6-0.4c-0.1,0.2-0.2,0.5-0.3,0.7c-0.6,2.1-1.2,4.1-1.8,6.2c-0.1,0.3-0.2,0.7-0.3,1
					c-0.3,0.8-1.1,1.1-1.8,0.8c-0.8-0.3-1-0.9-0.8-1.7c0.7-2.5,1.4-5,2.2-7.5c0.3-0.8,0.2-1.3-0.5-1.9c-1.4-1.2-2.3-2.8-2.8-4.5
					c-0.1-0.5-0.4-0.7-0.9-0.7c-2.8-0.3-5.6-0.7-8.5-0.9c-0.9-0.1-1.4-0.6-1.7-1.3C254.7,39.2,254.8,38.9,254.9,38.5z M316.8,87.9
					c2.8,0.6,6.1,0.1,9.2-1.7c1-0.6,1.8-1.4,2.5-2.3c0.8-1.1,0.9-1.2,2.2-1c3.8,0.8,7.1-0.4,9.5-3.3c2.5-3,3-6.5,1.4-10.2
					c-0.7-1.6-0.6-1.9,0.9-2.7c3.4-1.7,5.4-4.5,5.6-8.3c0.2-3.7-1.3-6.7-4.5-8.8c-2.1-1.4-2.1-1.4-1.6-3.8c1.3-6.3-3.4-12-9.8-12
					c-1.6,0-1.9-0.2-2.3-1.8c-1.4-6.2-8.7-9.3-14.2-6.3c-1.6,0.9-2,0.8-3-0.7c-3.8-5.4-11.3-5.7-15.5-0.7c-0.9,1-1.3,1.1-2.4,0.4
					c-1.4-0.9-2.9-1.4-4.5-1.5c-5.1-0.3-9,2.6-10.3,7.6c-0.3,1.1-0.9,1.4-2,1.1c-0.7-0.2-1.4-0.3-2.1-0.4c-3.7-0.1-7.2,2.7-7.8,6.2
					c-0.7,4,1.5,7.8,5.1,8.9c4,1.3,7.9-0.4,9.6-4c0.7-1.5,1.2-1.7,2.7-1c3.9,1.8,8.7,0.9,11.6-2.4c1.2-1.3,1.4-1.3,2.9-0.4
					c3.2,1.8,6.5,1.9,9.8,0.1c1.5-0.8,1.9-0.7,2.9,0.7c2,2.9,4.8,4.3,8.3,4.2c1.7,0,1.9,0.1,2.3,1.8c0.7,2.9,2.4,5.1,5.1,6.5
					c1.4,0.7,1.5,1,1.1,2.5c-0.8,2.5-0.7,5,0.5,7.4c0.5,1.1,0.3,1.7-0.7,2.2c-2.5,1.1-4.2,2.9-5.2,5.3c-0.5,1.1-1.1,1.3-2.2,1.3
					c-0.8,0-1.6-0.1-2.4,0.1c-3.8,1.2-6.5,3.6-7.8,7.4C310,82.8,312.1,86.7,316.8,87.9z"/>
				<path class="st7" d="M316.8,87.9c-4.8-1.2-6.8-5.1-5.4-9.4c1.3-3.8,4-6.3,7.8-7.4c0.7-0.2,1.6-0.2,2.4-0.1
					c1.1,0.1,1.7-0.2,2.2-1.3c1.1-2.5,2.8-4.2,5.2-5.3c1.1-0.5,1.3-1.1,0.7-2.2c-1.2-2.4-1.3-4.8-0.5-7.4c0.5-1.5,0.3-1.8-1.1-2.5
					c-2.7-1.4-4.4-3.6-5.1-6.5c-0.4-1.6-0.6-1.8-2.3-1.8c-3.5,0-6.3-1.4-8.3-4.2c-1-1.4-1.4-1.5-2.9-0.7c-3.3,1.8-6.6,1.7-9.8-0.1
					c-1.5-0.9-1.7-0.9-2.9,0.4c-2.9,3.2-7.6,4.2-11.6,2.4c-1.5-0.7-2-0.5-2.7,1c-1.7,3.6-5.6,5.3-9.6,4c-3.6-1.1-5.8-5-5.1-8.9
					c0.6-3.5,4.1-6.3,7.8-6.2c0.7,0,1.4,0.2,2.1,0.4c1.1,0.3,1.7,0,2-1.1c1.3-5,5.2-7.9,10.3-7.6c1.6,0.1,3.1,0.6,4.5,1.5
					c1.2,0.7,1.6,0.7,2.4-0.4c4.2-5,11.8-4.7,15.5,0.7c1,1.5,1.4,1.6,3,0.7c5.5-3.1,12.8,0.1,14.2,6.3c0.4,1.6,0.6,1.8,2.3,1.8
					c6.5,0,11.1,5.7,9.8,12c-0.5,2.4-0.5,2.4,1.6,3.8c3.2,2.1,4.7,5.1,4.5,8.8c-0.2,3.8-2.1,6.6-5.6,8.3c-1.5,0.8-1.6,1.1-0.9,2.7
					c1.6,3.7,1.1,7.1-1.4,10.2c-2.4,3-5.7,4.1-9.5,3.3c-1.2-0.2-1.4-0.1-2.2,1c-0.7,0.9-1.5,1.8-2.5,2.3
					C323,88,319.7,88.4,316.8,87.9z"/>
			</g>
		</g>
		<g id="_x34_drmx3.tif_4_">
			<g>
				<path class="st6" d="M313.3,99.6c0.8,0.1,1.4,0.5,1.7,1.4c0.8,2.7,1.8,5.4,2.6,8.1c0.2,0.5,0.4,0.7,0.9,0.7
					c1.8,0.1,3.5,0.7,5,1.8c0.7,0.5,1.2,0.5,2,0.1c2.3-1.3,4.6-2.4,6.9-3.6c0.7-0.4,1.4-0.3,1.8,0.5c0.4,0.6,0.2,1.5-0.5,1.9
					c-0.3,0.2-0.6,0.3-0.9,0.5c-1.9,1-3.8,2-5.7,3c-0.2,0.1-0.4,0.3-0.6,0.4c0.3,0.5,0.5,1,0.7,1.4c1.8,3.9,1.1,8.5-1.9,11.6
					c-0.6,0.6-0.6,1-0.2,1.7c2.2,4.3,2.1,8.5-0.3,12.7c-0.3,0.5-0.2,0.8,0.1,1.2c2.2,3.1,2.9,6.5,2.2,10.2c-0.1,0.5,0,0.8,0.5,1.1
					c3.1,1.8,5.1,4.3,6.1,7.7c0.1,0.3,0.4,0.6,0.7,0.6c3.1,0.3,5.7,1.6,7.8,3.8c0.2,0.2,0.6,0.3,0.8,0.2c2.4-1,4.8-1.3,7.3-1
					c0.5-1,0.9-2,1.5-2.9c0.6-0.9,1.2-1.8,2-2.4c1-0.8,1.2-1.6,1.1-2.9c-0.4-5.1,3.3-10.8,7.9-13c4.3-2,9-0.9,11.9,2.9
					c1.6,2.1,2.3,4.6,2.4,7.3c0.1,3.6-0.3,7.1-2.7,10c-0.2,0.2-0.1,0.7-0.1,0.9c2,6.9-1.6,13.7-8.5,15.8c-1.8,0.5-3.7,0.5-5.7,0.7
					c0-0.1,0,0-0.1,0.1c-3.3,8.9-14,11.3-20.8,4.7c-0.5-0.5-0.9-0.4-1.4-0.2c-6.5,2.9-14.9-1-16.8-7.9c-0.2-0.7-0.5-0.9-1.2-1
					c-7-0.9-12-7.9-10.5-14.8c0.2-0.8,0-1.1-0.7-1.5c-5.6-3.2-7.9-10.3-5-16.1c0.7-1.4,0.7-2.3-0.1-3.8c-3.5-5.8-1.8-12.9,3.8-16.8
					c0.4-0.3,0.6-0.6,0.4-1.2c-1.4-4-0.1-8.7,3.1-11.3c1.2-1,2.8-1.7,4.2-2.5c0,0,0-0.2,0-0.3c-0.8-2.3-1.5-4.7-2.3-7
					c-0.3-0.8-0.4-1.5-0.1-2.3C312.7,99.9,313,99.8,313.3,99.6z M363.1,147.4c-3.4,2-5.3,5.2-5.7,9.2c-0.1,0.8,0.1,1.6,0.4,2.3
					c0.3,1.1,0.2,1.7-0.8,2.4c-2.2,1.5-3.6,3.6-4.2,6.2c-0.2,1.1-0.8,1.5-2,1.2c-2.6-0.7-5-0.3-7.3,1c-1.3,0.7-1.7,0.6-2.7-0.5
					c-1.9-2.3-4.4-3.5-7.4-3.7c-1.7-0.1-1.9-0.3-2.2-1.9c-0.7-3.5-2.6-5.9-5.8-7.3c-1.6-0.7-1.7-1.1-1.3-2.7
					c1.1-3.6,0.3-6.8-2.1-9.6c-1.2-1.3-1.2-1.5-0.1-2.9c2.6-3.5,2.6-8.3,0-11.8c-1-1.3-0.9-1.8,0.4-2.8c3.2-2.4,4-6.6,2-10.2
					c-1.8-3.3-6-4.6-9.8-3.2c-3.3,1.3-5.4,5.3-4.5,8.9c0.2,0.7,0.5,1.3,0.8,2c0.5,1,0.3,1.7-0.7,2.2c-4.6,2.3-6.6,6.7-5.4,11.7
					c0.4,1.6,1.3,2.9,2.4,4.1c1,1,1,1.4,0.1,2.5c-4.1,5.2-2.2,12.5,3.8,15c1.6,0.7,1.8,1.1,1.3,2.8c-1.9,6.1,2.7,12.5,9,12.7
					c1.7,0,1.9,0.3,2.2,1.8c1.3,6.3,7.8,9.8,13.7,7.2c2.3-1,2.3-1,4,0.8c2.7,2.7,5.9,3.5,9.5,2.6c3.7-0.9,6-3.4,7-7.2
					c0.4-1.7,0.7-1.8,2.4-1.5c3.9,0.8,7.2-0.4,9.7-3.5c2.4-3,2.9-6.4,1.3-10c-0.5-1.2-0.3-1.3,0.5-2.3c0.8-0.8,1.4-1.8,1.8-2.9
					c1.1-3.3,0.9-6.7-0.2-9.3C371.2,146.3,367,145.1,363.1,147.4z"/>
				<path class="st7" d="M373.3,150.7c-2.2-4.4-6.4-5.7-10.3-3.3c-3.4,2-5.3,5.2-5.7,9.2c-0.1,0.8,0.1,1.6,0.4,2.3
					c0.3,1.1,0.2,1.7-0.8,2.4c-2.2,1.5-3.6,3.6-4.2,6.2c-0.2,1.1-0.8,1.5-2,1.2c-2.6-0.7-5-0.3-7.3,1c-1.3,0.7-1.7,0.6-2.7-0.5
					c-1.9-2.3-4.4-3.5-7.4-3.7c-1.7-0.1-1.9-0.3-2.2-1.9c-0.7-3.5-2.6-5.9-5.8-7.3c-1.6-0.7-1.7-1.1-1.3-2.7
					c1.1-3.6,0.3-6.8-2.1-9.6c-1.2-1.3-1.2-1.5-0.1-2.9c2.6-3.5,2.6-8.3,0-11.8c-1-1.3-0.9-1.8,0.4-2.8c3.2-2.4,4-6.6,2-10.2
					c-1.8-3.3-6-4.6-9.8-3.2c-3.3,1.3-5.4,5.3-4.5,8.9c0.2,0.7,0.5,1.3,0.8,2c0.5,1,0.3,1.7-0.7,2.2c-4.6,2.3-6.6,6.7-5.4,11.7
					c0.4,1.6,1.3,2.9,2.4,4.1c1,1,1,1.4,0.1,2.5c-4.1,5.2-2.2,12.5,3.8,15c1.6,0.7,1.8,1.1,1.3,2.8c-1.9,6.1,2.7,12.5,9,12.7
					c1.7,0,1.9,0.3,2.2,1.8c1.3,6.3,7.8,9.8,13.7,7.2c2.3-1,2.3-1,4,0.8c2.7,2.7,5.9,3.5,9.5,2.6c3.7-0.9,6-3.4,7-7.2
					c0.4-1.7,0.7-1.8,2.4-1.5c3.9,0.8,7.2-0.4,9.7-3.5c2.4-3,2.9-6.4,1.3-10c-0.5-1.2-0.3-1.3,0.5-2.3c0.8-0.8,1.4-1.8,1.8-2.9
					C374.7,156.7,374.5,153.4,373.3,150.7z"/>
			</g>
		</g>
		<g id="_x34_drmx3.tif_7_">
			<g>
				<path class="st6" d="M222.2,136c0-0.8,0.2-1.4,1-1.9c2.5-1.3,5-2.8,7.5-4.1c0.5-0.3,0.6-0.5,0.6-1c-0.2-1.8,0-3.6,0.8-5.2
					c0.4-0.8,0.3-1.3-0.3-1.9c-1.7-2-3.2-4-4.9-6.1c-0.5-0.6-0.5-1.3,0.1-1.9c0.6-0.5,1.4-0.5,2,0.1c0.3,0.2,0.4,0.5,0.7,0.8
					c1.3,1.7,2.7,3.4,4,5c0.1,0.2,0.3,0.3,0.5,0.5c0.5-0.4,0.9-0.7,1.3-1c3.5-2.5,8.2-2.7,11.7-0.3c0.7,0.5,1.1,0.4,1.7-0.1
					c3.8-3,8-3.7,12.5-2c0.5,0.2,0.8,0,1.1-0.3c2.6-2.7,5.8-4.1,9.6-4c0.6,0,0.8-0.2,0.9-0.7c1.2-3.3,3.3-5.8,6.4-7.4
					c0.2-0.1,0.5-0.5,0.5-0.8c-0.3-3.1,0.5-5.9,2.3-8.4c0.1-0.2,0.2-0.6,0.1-0.8c-1.4-2.1-2.2-4.5-2.3-7c-1.1-0.3-2.1-0.5-3.1-0.9
					c-1-0.4-2-0.8-2.8-1.5c-1-0.8-1.8-0.9-3.1-0.6c-4.9,1.3-11.3-1.2-14.2-5.3c-2.7-3.9-2.5-8.7,0.6-12.2c1.8-2,4.1-3.1,6.7-3.7
					c3.5-0.8,7-1,10.4,0.8c0.2,0.1,0.7,0,0.9-0.1c6.4-3.2,13.8-1,17.1,5.4c0.8,1.6,1.2,3.5,1.8,5.5c-0.1,0,0,0,0.1,0
					c9.3,1.6,13.7,11.7,8.5,19.5c-0.4,0.6-0.2,0.9,0.1,1.4c4.1,5.8,1.7,14.8-4.7,17.9c-0.7,0.3-0.8,0.7-0.8,1.4
					c0.4,7-5.5,13.2-12.6,13.1c-0.8,0-1.1,0.2-1.3,0.9c-2.1,6.1-8.7,9.7-14.9,7.9c-1.5-0.4-2.4-0.3-3.7,0.8
					c-5.1,4.6-12.3,4.2-17.2-0.6c-0.4-0.4-0.7-0.5-1.2-0.2c-3.7,2.1-8.5,1.7-11.7-1c-1.2-1-2.2-2.4-3.3-3.7c0,0-0.2,0-0.3,0.1
					c-2.2,1.2-4.3,2.4-6.4,3.6c-0.7,0.4-1.4,0.7-2.2,0.5C222.6,136.6,222.4,136.3,222.2,136z M259.8,78.3c2.6,3,6.1,4.3,10.1,3.9
					c0.8-0.1,1.5-0.4,2.2-0.8c1-0.5,1.7-0.5,2.5,0.3c1.9,1.9,4.2,2.9,6.9,2.9c1.1,0,1.6,0.5,1.5,1.7c-0.2,2.7,0.7,5,2.3,7
					c1,1.2,1,1.6,0,2.7c-1.9,2.3-2.7,5-2.2,8c0.2,1.6,0.1,1.9-1.4,2.5c-3.3,1.3-5.3,3.7-6.1,7.1c-0.4,1.7-0.7,1.9-2.4,1.7
					c-3.7-0.4-6.7,0.9-9,3.9c-1.1,1.4-1.2,1.5-2.8,0.7c-3.9-1.9-8.7-1-11.6,2.2c-1.1,1.2-1.6,1.2-2.9,0.1c-3-2.7-7.2-2.7-10.4,0
					c-2.9,2.4-3.4,6.8-1.3,10.2c1.9,3,6.2,4.3,9.6,2.8c0.6-0.3,1.2-0.7,1.8-1.1c0.9-0.7,1.6-0.6,2.3,0.3c3.2,4.1,7.8,5.3,12.4,3.1
					c1.5-0.7,2.6-1.8,3.6-3.1c0.8-1.1,1.2-1.2,2.4-0.6c5.8,3,12.7-0.2,14.1-6.6c0.4-1.7,0.7-2,2.5-1.8c6.3,0.7,11.8-5,10.8-11.2
					c-0.3-1.6-0.1-1.9,1.4-2.6c6-2.4,8.1-9.5,4.5-14.8c-1.4-2.1-1.4-2,0.1-4.1c2.1-3.1,2.4-6.5,0.8-9.8c-1.6-3.5-4.5-5.3-8.3-5.6
					c-1.7-0.1-1.9-0.3-1.9-2.1c0.1-4-1.7-7-5.2-8.8c-3.4-1.8-6.8-1.6-10.1,0.5c-1.1,0.7-1.3,0.6-2.4-0.1c-1-0.6-2.1-1.1-3.2-1.2
					c-3.5-0.5-6.7,0.3-9.1,1.9C257.3,70.5,256.8,74.9,259.8,78.3z"/>
				<path class="st7" d="M261.2,67.6c-3.9,2.9-4.4,7.3-1.4,10.7c2.6,3,6.1,4.3,10.1,3.9c0.8-0.1,1.5-0.4,2.2-0.8
					c1-0.5,1.7-0.5,2.5,0.3c1.9,1.9,4.2,2.9,6.9,2.9c1.1,0,1.6,0.5,1.5,1.7c-0.2,2.7,0.7,5,2.3,7c1,1.2,1,1.6,0,2.7
					c-1.9,2.3-2.7,5-2.2,8c0.2,1.6,0.1,1.9-1.4,2.5c-3.3,1.3-5.3,3.7-6.1,7.1c-0.4,1.7-0.7,1.9-2.4,1.7c-3.7-0.4-6.7,0.9-9,3.9
					c-1.1,1.4-1.2,1.5-2.8,0.7c-3.9-1.9-8.7-1-11.6,2.2c-1.1,1.2-1.6,1.2-2.9,0.1c-3-2.7-7.2-2.7-10.4,0c-2.9,2.4-3.4,6.8-1.3,10.2
					c1.9,3,6.2,4.3,9.6,2.8c0.6-0.3,1.2-0.7,1.8-1.1c0.9-0.7,1.6-0.6,2.3,0.3c3.2,4.1,7.8,5.3,12.4,3.1c1.5-0.7,2.6-1.8,3.6-3.1
					c0.8-1.1,1.2-1.2,2.4-0.6c5.8,3,12.7-0.2,14.1-6.6c0.4-1.7,0.7-2,2.5-1.8c6.3,0.7,11.8-5,10.8-11.2c-0.3-1.6-0.1-1.9,1.4-2.6
					c6-2.4,8.1-9.5,4.5-14.8c-1.4-2.1-1.4-2,0.1-4.1c2.1-3.1,2.4-6.5,0.8-9.8c-1.6-3.5-4.5-5.3-8.3-5.6c-1.7-0.1-1.9-0.3-1.9-2.1
					c0.1-4-1.7-7-5.2-8.8c-3.4-1.8-6.8-1.6-10.1,0.5c-1.1,0.7-1.3,0.6-2.4-0.1c-1-0.6-2.1-1.1-3.2-1.2
					C266.9,65.1,263.6,66,261.2,67.6z"/>
			</g>
		</g>
		<g id="_x34_drmx3.tif_5_">
			<g>
				<path class="st6" d="M144.6,121.7c0.8-0.3,1.5,0,2.2,0.4c2.2,1.2,4.3,2.3,6.5,3.4c0.1,0.1,0.3,0.1,0.3,0.1
					c1.1-1.3,2-2.7,3.2-3.8c3.1-2.8,7.9-3.3,11.7-1.3c0.6,0.3,0.8,0.2,1.2-0.2c4.8-4.9,12-5.5,17.2-1c1.3,1.1,2.2,1.2,3.7,0.7
					c6.2-1.9,12.8,1.5,15.1,7.6c0.3,0.7,0.6,0.9,1.4,0.9c7.1-0.3,13.1,5.7,12.9,12.8c0,0.7,0.2,1.1,0.8,1.4
					c6.5,2.9,9.1,11.9,5.1,17.8c-0.3,0.5-0.5,0.8-0.1,1.4c5.5,7.7,1.3,17.9-8,19.7c-0.1,0-0.2,0.1-0.1,0c-0.6,1.9-0.8,3.8-1.6,5.5
					c-3.1,6.4-10.5,8.9-16.9,5.8c-0.3-0.1-0.7-0.2-0.9-0.1c-3.3,1.9-6.8,1.8-10.3,1.1c-2.6-0.5-5-1.6-6.8-3.5
					c-3.2-3.4-3.5-8.2-0.9-12.2c2.8-4.2,9.1-6.9,14.1-5.7c1.3,0.3,2.1,0.2,3.1-0.6c0.8-0.7,1.8-1.1,2.7-1.5c1-0.4,2-0.6,3.1-1
					c0.1-2.5,0.8-4.9,2.2-7c0.1-0.2,0.1-0.6-0.1-0.8c-1.9-2.5-2.7-5.3-2.5-8.4c0-0.2-0.3-0.6-0.5-0.8c-3.2-1.5-5.4-3.9-6.6-7.2
					c-0.2-0.5-0.4-0.7-1-0.7c-3.8,0.1-7-1.2-9.7-3.8c-0.3-0.3-0.6-0.5-1.2-0.3c-4.5,1.8-8.7,1.1-12.6-1.7c-0.6-0.5-1-0.5-1.7,0
					c-3.5,2.4-8.2,2.4-11.7,0c-0.4-0.3-0.8-0.6-1.3-0.9c-0.2,0.2-0.4,0.3-0.5,0.5c-1.3,1.7-2.6,3.4-3.9,5.1
					c-0.2,0.3-0.4,0.6-0.6,0.8c-0.6,0.6-1.4,0.6-2,0.1c-0.6-0.6-0.6-1.2-0.1-1.9c1.6-2.1,3.1-4.2,4.7-6.2c0.5-0.7,0.6-1.2,0.2-1.9
					c-0.9-1.6-1.1-3.4-1-5.2c0.1-0.5-0.1-0.8-0.6-1c-2.5-1.3-5-2.6-7.6-3.9c-0.8-0.4-1.1-1-1.1-1.9
					C144.2,122.3,144.4,122,144.6,121.7z M184.6,190c2.5,1.5,5.7,2.3,9.2,1.7c1.1-0.2,2.2-0.7,3.1-1.3c1.1-0.7,1.3-0.8,2.4-0.2
					c3.3,2.1,6.7,2.2,10.1,0.3c3.4-1.9,5.1-5,5-9c-0.1-1.8,0.1-2,1.8-2.1c3.8-0.4,6.7-2.2,8.2-5.7c1.5-3.4,1.2-6.7-1-9.8
					c-1.5-2-1.5-2-0.2-4.1c3.5-5.4,1.2-12.4-4.9-14.7c-1.5-0.6-1.7-0.9-1.5-2.5c0.9-6.3-4.7-11.8-11-11c-1.8,0.3-2.1,0-2.6-1.7
					c-1.6-6.4-8.5-9.4-14.2-6.2c-1.2,0.7-1.6,0.6-2.4-0.5c-1-1.3-2.2-2.4-3.7-3c-4.7-2.1-9.3-0.8-12.4,3.4c-0.7,0.9-1.4,1-2.3,0.3
					c-0.6-0.4-1.2-0.8-1.8-1.1c-3.4-1.4-7.7-0.1-9.5,3c-2,3.5-1.4,7.8,1.5,10.2c3.3,2.6,7.5,2.5,10.4-0.3c1.2-1.1,1.7-1.1,2.9,0.1
					c3,3.1,7.8,3.9,11.7,1.9c1.6-0.8,1.7-0.7,2.9,0.6c2.4,2.9,5.4,4.1,9.1,3.6c1.7-0.2,2.1,0,2.5,1.7c0.9,3.4,3,5.7,6.3,7
					c1.6,0.6,1.7,0.8,1.5,2.5c-0.4,3,0.4,5.6,2.4,7.9c1,1.1,1.1,1.5,0.1,2.7c-1.6,2.1-2.4,4.4-2.2,7.1c0.1,1.2-0.3,1.7-1.5,1.8
					c-2.7,0.1-4.9,1.2-6.8,3.1c-0.8,0.8-1.5,0.9-2.5,0.4c-0.7-0.3-1.5-0.7-2.2-0.7c-4-0.3-7.4,1-10,4.1
					C180.1,182.8,180.6,187.2,184.6,190z"/>
				<path class="st7" d="M184.6,190c-4-2.9-4.5-7.2-1.6-10.7c2.6-3.1,6-4.4,10-4.1c0.8,0.1,1.5,0.4,2.2,0.7c1,0.5,1.7,0.4,2.5-0.4
					c1.9-1.9,4.1-3,6.8-3.1c1.1-0.1,1.6-0.6,1.5-1.8c-0.2-2.7,0.5-5,2.2-7.1c1-1.2,0.9-1.6-0.1-2.7c-2-2.3-2.8-4.9-2.4-7.9
					c0.2-1.7,0.1-1.9-1.5-2.5c-3.3-1.2-5.4-3.5-6.3-7c-0.4-1.7-0.8-1.9-2.5-1.7c-3.7,0.5-6.7-0.8-9.1-3.6c-1.1-1.4-1.3-1.4-2.9-0.6
					c-3.9,2-8.6,1.2-11.7-1.9c-1.1-1.2-1.7-1.2-2.9-0.1c-2.9,2.8-7.1,2.9-10.4,0.3c-2.9-2.3-3.6-6.7-1.5-10.2c1.8-3.1,6.1-4.4,9.5-3
					c0.6,0.3,1.2,0.7,1.8,1.1c0.9,0.7,1.6,0.6,2.3-0.3c3.1-4.2,7.7-5.5,12.4-3.4c1.5,0.7,2.7,1.7,3.7,3c0.8,1.1,1.2,1.2,2.4,0.5
					c5.8-3.2,12.7-0.1,14.2,6.2c0.4,1.7,0.8,2,2.6,1.7c6.3-0.9,11.9,4.7,11,11c-0.2,1.7-0.1,1.9,1.5,2.5c6,2.3,8.4,9.3,4.9,14.7
					c-1.3,2.1-1.3,2.1,0.2,4.1c2.2,3.1,2.5,6.4,1,9.8c-1.5,3.5-4.4,5.4-8.2,5.7c-1.7,0.2-1.9,0.4-1.8,2.1c0.2,4-1.6,7-5,9
					c-3.4,1.9-6.8,1.8-10.1-0.3c-1.1-0.7-1.3-0.6-2.4,0.2c-0.9,0.6-2,1.1-3.1,1.3C190.3,192.4,187.1,191.6,184.6,190z"/>
			</g>
		</g>
		<g id="_x34_drmx3.tif_6_">
			<g>
				<path class="st6" d="M144.8,160.2c0.8,0.1,1.4,0.4,1.8,1.2c1.1,2.6,2.3,5.2,3.3,7.8c0.2,0.5,0.4,0.7,1,0.7
					c1.8,0,3.6,0.4,5.1,1.3c0.7,0.5,1.3,0.4,2-0.1c2.1-1.5,4.3-2.8,6.5-4.2c0.7-0.4,1.4-0.4,1.9,0.3c0.5,0.6,0.3,1.4-0.3,2
					c-0.3,0.2-0.6,0.4-0.9,0.6c-1.8,1.2-3.6,2.3-5.4,3.5c-0.2,0.1-0.4,0.3-0.6,0.5c0.3,0.5,0.6,0.9,0.8,1.4
					c2.2,3.7,1.9,8.4-0.8,11.7c-0.5,0.6-0.5,1-0.1,1.7c2.6,4.1,2.9,8.3,0.8,12.7c-0.3,0.5-0.1,0.8,0.2,1.2c2.5,2.9,3.5,6.2,3.1,10
					c-0.1,0.6,0.1,0.8,0.6,1c3.2,1.5,5.4,3.9,6.7,7.1c0.1,0.2,0.5,0.6,0.7,0.6c3.1,0,5.8,1.1,8.1,3.1c0.2,0.2,0.6,0.3,0.8,0.2
					c2.3-1.2,4.7-1.7,7.2-1.6c0.4-1,0.7-2.1,1.2-3c0.5-0.9,1-1.9,1.7-2.6c0.9-0.9,1.1-1.7,0.9-3c-0.8-5,2.3-11.1,6.7-13.6
					c4.1-2.3,8.9-1.7,12.1,1.8c1.8,2,2.7,4.4,3,7c0.5,3.6,0.3,7.1-1.8,10.2c-0.1,0.2-0.1,0.7,0,0.9c2.6,6.7-0.4,13.8-7.1,16.4
					c-1.7,0.7-3.6,0.8-5.6,1.2c0-0.1,0,0,0,0.1c-2.5,9.1-13,12.5-20.3,6.5c-0.6-0.5-0.9-0.3-1.4,0c-6.2,3.5-14.9,0.3-17.4-6.4
					c-0.2-0.7-0.6-0.9-1.3-0.9c-7.1-0.3-12.6-6.8-11.8-13.8c0.1-0.8-0.1-1.1-0.8-1.4c-5.9-2.7-8.8-9.6-6.4-15.6
					c0.6-1.5,0.5-2.4-0.5-3.7c-4-5.5-3-12.6,2.3-17.1c0.4-0.4,0.5-0.6,0.3-1.2c-1.7-3.9-0.9-8.6,2.1-11.5c1.2-1.1,2.6-1.9,4-2.9
					c0,0,0-0.2-0.1-0.3c-1-2.3-1.9-4.5-2.9-6.8c-0.3-0.8-0.6-1.5-0.3-2.3C144.3,160.6,144.6,160.4,144.8,160.2z M198.6,203.4
					c-3.2,2.3-4.8,5.6-4.8,9.6c0,0.8,0.3,1.6,0.6,2.3c0.4,1.1,0.3,1.7-0.6,2.5c-2.1,1.7-3.3,3.9-3.6,6.6c-0.1,1.1-0.7,1.5-1.9,1.3
					c-2.6-0.4-5,0.2-7.2,1.6c-1.3,0.9-1.6,0.8-2.7-0.3c-2.1-2.2-4.7-3.1-7.7-3c-1.7,0.1-1.9-0.1-2.3-1.7c-1-3.4-3.1-5.7-6.5-6.8
					c-1.6-0.5-1.8-0.9-1.5-2.6c0.8-3.7-0.3-6.8-2.9-9.3c-1.3-1.2-1.3-1.4-0.4-2.9c2.3-3.7,1.8-8.5-1.1-11.8c-1.1-1.2-1-1.8,0.2-2.9
					c3-2.7,3.4-6.9,1.1-10.3c-2.1-3.1-6.4-4.1-10-2.3c-3.2,1.6-4.9,5.7-3.7,9.3c0.2,0.7,0.6,1.3,0.9,1.9c0.6,1,0.5,1.6-0.5,2.3
					c-4.4,2.7-6,7.3-4.3,12.1c0.5,1.5,1.5,2.8,2.7,3.9c1,0.9,1.1,1.3,0.3,2.4c-3.6,5.5-1.1,12.6,5.1,14.6c1.7,0.6,1.9,0.9,1.5,2.7
					c-1.4,6.2,3.8,12.2,10.1,11.8c1.7-0.1,1.9,0.1,2.4,1.6c1.8,6.2,8.6,9,14.3,5.9c2.2-1.2,2.2-1.2,4.1,0.5c2.9,2.4,6.2,3,9.7,1.8
					c3.6-1.3,5.7-4,6.3-7.7c0.3-1.7,0.5-1.9,2.3-1.7c4,0.5,7.1-1,9.3-4.3c2.2-3.2,2.3-6.6,0.5-10.1c-0.6-1.1-0.5-1.3,0.3-2.3
					c0.7-0.9,1.3-1.9,1.5-3c0.8-3.4,0.3-6.7-1-9.3C206.6,201.6,202.3,200.7,198.6,203.4z"/>
				<path class="st7" d="M209.1,205.8c-2.5-4.2-6.8-5.1-10.5-2.4c-3.2,2.3-4.8,5.6-4.8,9.6c0,0.8,0.3,1.6,0.6,2.3
					c0.4,1.1,0.3,1.7-0.6,2.5c-2.1,1.7-3.3,3.9-3.6,6.6c-0.1,1.1-0.7,1.5-1.9,1.3c-2.6-0.4-5,0.2-7.2,1.6c-1.3,0.9-1.6,0.8-2.7-0.3
					c-2.1-2.2-4.7-3.1-7.7-3c-1.7,0.1-1.9-0.1-2.3-1.7c-1-3.4-3.1-5.7-6.5-6.8c-1.6-0.5-1.8-0.9-1.5-2.6c0.8-3.7-0.3-6.8-2.9-9.3
					c-1.3-1.2-1.3-1.4-0.4-2.9c2.3-3.7,1.8-8.5-1.1-11.8c-1.1-1.2-1-1.8,0.2-2.9c3-2.7,3.4-6.9,1.1-10.3c-2.1-3.1-6.4-4.1-10-2.3
					c-3.2,1.6-4.9,5.7-3.7,9.3c0.2,0.7,0.6,1.3,0.9,1.9c0.6,1,0.5,1.6-0.5,2.3c-4.4,2.7-6,7.3-4.3,12.1c0.5,1.5,1.5,2.8,2.7,3.9
					c1,0.9,1.1,1.3,0.3,2.4c-3.6,5.5-1.1,12.6,5.1,14.6c1.7,0.6,1.9,0.9,1.5,2.7c-1.4,6.2,3.8,12.2,10.1,11.8
					c1.7-0.1,1.9,0.1,2.4,1.6c1.8,6.2,8.6,9,14.3,5.9c2.2-1.2,2.2-1.2,4.1,0.5c2.9,2.4,6.2,3,9.7,1.8c3.6-1.3,5.7-4,6.3-7.7
					c0.3-1.7,0.5-1.9,2.3-1.7c4,0.5,7.1-1,9.3-4.3c2.2-3.2,2.3-6.6,0.5-10.1c-0.6-1.1-0.5-1.3,0.3-2.3c0.7-0.9,1.3-1.9,1.5-3
					C211,211.7,210.5,208.4,209.1,205.8z"/>
			</g>
		</g>
		<g id="_x34_drmx3.tif_19_">
			<g>
				<path class="st4" d="M127.4,172.1c-0.8-0.4-1.1-1.1-1.3-1.9c-0.7-2.4-1.5-4.7-2.2-7c0-0.1-0.1-0.3-0.1-0.3
					c-1.7,0.2-3.3,0.5-4.9,0.4c-4.2-0.2-7.9-3.3-9.2-7.3c-0.2-0.6-0.5-0.7-1-0.7c-6.9,0.1-12.4-4.6-12.9-11.4
					c-0.1-1.7-0.7-2.4-2.1-3.1c-5.7-3-8-10.1-5.4-16c0.3-0.7,0.2-1.1-0.3-1.6c-5.2-4.8-5.3-13.3-0.1-18.2c0.5-0.5,0.6-0.9,0.4-1.6
					c-2.5-6.7,2-14.8,8.9-16.3c0.6-0.1,0.9-0.2,1-1c1.6-9.3,11.7-13.7,19.6-8.4c0.1,0.1,0.2,0.1,0.1,0.1c1.8-1,3.3-2.1,5-2.8
					c6.7-2.4,13.7,1.1,16.1,7.8c0.1,0.3,0.3,0.7,0.6,0.7c3.7,0.9,6.1,3.5,8.1,6.5c1.5,2.2,2.4,4.6,2.3,7.3c-0.1,4.7-3.3,8.3-7.9,9.3
					c-5,1-11.3-1.6-14-5.9c-0.7-1.1-1.3-1.6-2.6-1.7c-1-0.1-2.1-0.4-3-0.8c-1-0.4-1.9-1-2.9-1.5c-1.8,1.7-4,2.9-6.5,3.5
					c-0.2,0.1-0.5,0.4-0.5,0.6c-0.4,3.1-1.8,5.6-4.1,7.7c-0.2,0.2-0.3,0.6-0.2,0.9c1.2,3.3,1,6.6-0.4,9.8c-0.2,0.5-0.2,0.8,0.2,1.2
					c2.7,2.6,4.2,5.8,4.2,9.5c0,0.5,0.1,0.8,0.6,1c4.4,1.9,7,5.3,7.7,10.1c0.1,0.8,0.4,1.1,1.2,1.2c4.2,0.7,7.5,4.1,8.3,8.3
					c0.1,0.5,0.2,1,0.3,1.6c0.3,0,0.5,0,0.7,0c2.1-0.3,4.2-0.6,6.4-0.9c0.3-0.1,0.7-0.1,1-0.1c0.8,0,1.5,0.5,1.5,1.3
					c0,0.8-0.4,1.3-1.2,1.4c-2.6,0.4-5.1,0.8-7.7,1.1c-0.8,0.1-1.3,0.4-1.5,1.2c-0.5,1.8-1.6,3.2-3,4.4c-0.4,0.3-0.5,0.6-0.3,1.1
					c0.9,2.7,1.7,5.4,2.6,8.1c0.3,0.9,0,1.5-0.5,2.1C128.1,172,127.7,172,127.4,172.1z M147.2,95.4c-0.6-2.8-2.4-5.7-5.3-7.7
					c-0.9-0.6-2-1.1-3.1-1.3c-1.3-0.3-1.5-0.3-1.8-1.6c-0.9-3.8-3.2-6.3-6.9-7.3c-3.8-1-7.2-0.1-9.9,2.9c-1.2,1.3-1.5,1.3-2.8,0.2
					c-3-2.4-6.3-3.1-9.9-1.7c-3.5,1.4-5.6,4-6.2,7.7c-0.4,2.5-0.4,2.5-2.8,3c-6.3,1.4-9.6,8-6.9,13.9c0.7,1.5,0.6,1.8-0.7,2.8
					c-5,3.8-5,11.7,0.1,15.5c1.5,1.1,1.5,1.5,0.6,3c-3.4,5.6-0.6,12.6,5.7,14.4c1.3,0.4,1.5,0.7,1.3,2.1c-0.2,1.6-0.1,3.2,0.5,4.7
					c1.8,4.8,6.1,7.1,11.2,6.3c1.1-0.2,1.7,0.2,1.9,1.4c0.1,0.7,0.2,1.4,0.5,2c1.4,3.5,5.4,5.5,8.9,4.6c3.9-1,6.5-4.6,6.1-8.3
					c-0.5-4.2-3.5-7-7.6-7.1c-1.6,0-2-0.4-2-2.1c0.1-4.3-2.7-8.2-6.9-9.6c-1.7-0.6-1.8-0.7-1.6-2.5c0.3-3.7-0.9-6.7-3.9-9
					c-1.4-1-1.5-1.4-0.6-2.9c1.8-3,1.9-6.2,0.5-9.4c-0.7-1.5-0.6-1.8,0.7-2.8c2.4-1.9,3.7-4.3,3.9-7.3c0.1-1.5,0.3-1.8,1.8-2
					c2.6-0.3,4.8-1.4,6.5-3.5c0.8-0.9,1.4-1,2.3-0.2c2,1.8,4.3,2.7,7,2.6c1.2,0,1.6,0.4,2,1.5c0.3,0.7,0.6,1.5,1.1,2.1
					c2.6,3,6,4.5,10,4.1C145.3,103.7,148,100.2,147.2,95.4z"/>
				<path class="st5" d="M147.2,95.4c0.8,4.9-1.9,8.3-6.4,8.7c-4,0.4-7.3-1.1-10-4.1c-0.5-0.6-0.8-1.4-1.1-2.1
					c-0.4-1.1-0.9-1.5-2-1.5c-2.7,0-5-0.8-7-2.6c-0.9-0.8-1.5-0.7-2.3,0.2c-1.7,2.1-3.9,3.2-6.5,3.5c-1.5,0.2-1.8,0.5-1.8,2
					c-0.2,3-1.5,5.4-3.9,7.3c-1.3,1-1.4,1.3-0.7,2.8c1.5,3.2,1.3,6.3-0.5,9.4c-0.9,1.5-0.8,1.9,0.6,2.9c3,2.3,4.2,5.3,3.9,9
					c-0.2,1.8-0.1,1.9,1.6,2.5c4.2,1.3,7,5.3,6.9,9.6c0,1.6,0.4,2,2,2.1c4,0.1,7.1,3,7.6,7.1c0.4,3.7-2.2,7.3-6.1,8.3
					c-3.5,0.9-7.4-1.1-8.9-4.6c-0.3-0.6-0.4-1.3-0.5-2c-0.2-1.1-0.7-1.5-1.9-1.4c-5.1,0.8-9.3-1.6-11.2-6.3
					c-0.6-1.5-0.7-3.1-0.5-4.7c0.2-1.4,0-1.7-1.3-2.1c-6.3-1.8-9.1-8.8-5.7-14.4c0.9-1.5,0.8-1.9-0.6-3c-5.1-3.8-5.1-11.7-0.1-15.5
					c1.3-1,1.4-1.3,0.7-2.8c-2.7-5.9,0.6-12.5,6.9-13.9c2.4-0.5,2.4-0.5,2.8-3c0.6-3.7,2.7-6.3,6.2-7.7c3.6-1.4,6.9-0.7,9.9,1.7
					c1.3,1.1,1.6,1.1,2.8-0.2c2.7-2.9,6.1-3.9,9.9-2.9c3.7,1,6.1,3.5,6.9,7.3c0.3,1.2,0.5,1.3,1.8,1.6c1.1,0.2,2.2,0.6,3.1,1.3
					C144.7,89.7,146.5,92.6,147.2,95.4z"/>
			</g>
		</g>
	</g>
</g>
<g id="NSOMBA">
</g>
<g id="Layer_4">
</g>
</svg>
