<?xml version="1.0" encoding="utf-8"?>
<svg version="1.1" x="0px" y="0px" viewBox="0 0 500 280" style="enable-background:new 0 0 500 280;" xmlns="http://www.w3.org/2000/svg">
  <style type="text/css">
	.st0{fill:none;stroke:#000000;stroke-width:4;stroke-miterlimit:10;}
	.st1{fill:#FFFFFF;stroke:#000000;stroke-width:4;stroke-miterlimit:10;}
	.st2{stroke:#000000;stroke-width:0.7935;stroke-miterlimit:10;}
	.st3{fill:#FFFFFF;stroke:#000000;stroke-width:0.7935;stroke-miterlimit:10;}
	.st4{stroke:#000000;stroke-width:1.6;stroke-miterlimit:10;}
	.st5{fill:#FFFFFF;stroke:#000000;stroke-width:1.6;stroke-miterlimit:10;}
	.st6{stroke:#000000;stroke-width:1.1336;stroke-miterlimit:10;}
	.st7{fill:#FFFFFF;stroke:#000000;stroke-width:1.1336;stroke-miterlimit:10;}
	.st8{fill:#FFFFFF;}
	.st9{fill:#414042;stroke:#000000;stroke-width:1.5;stroke-miterlimit:10;}
	.st10{fill:#414042;stroke:#FFFFFF;stroke-miterlimit:10;}
	.st11{fill:#414042;stroke:#000000;stroke-miterlimit:10;}
	.st12{fill:#58595B;stroke:#000000;stroke-width:1.5;stroke-miterlimit:10;}
	.st13{fill:#58595B;stroke:#FFFFFF;stroke-miterlimit:10;}
	.st14{fill:#58595B;stroke:#000000;stroke-miterlimit:10;}
	.st15{fill:#6D6E71;stroke:#000000;stroke-width:1.5;stroke-miterlimit:10;}
	.st16{fill:#6D6E71;stroke:#FFFFFF;stroke-miterlimit:10;}
	.st17{fill:#6D6E71;stroke:#000000;stroke-miterlimit:10;}
	.st18{fill:#808285;stroke:#000000;stroke-width:1.5;stroke-miterlimit:10;}
	.st19{fill:#808285;stroke:#FFFFFF;stroke-miterlimit:10;}
	.st20{fill:#808285;stroke:#000000;stroke-miterlimit:10;}
	.st21{fill:#D1D3D4;stroke:#000000;stroke-width:1.5;stroke-miterlimit:10;}
	.st22{fill:#D1D3D4;stroke:#FFFFFF;stroke-miterlimit:10;}
	.st23{fill:#D1D3D4;stroke:#000000;stroke-miterlimit:10;}
	.st24{fill:#A7A9AC;stroke:#000000;stroke-width:1.5;stroke-miterlimit:10;}
	.st25{stroke:#FFFFFF;stroke-miterlimit:10;}
	.st26{fill:none;stroke:#000000;stroke-miterlimit:10;}
</style>
  <g id="nshima"/>
  <g id="VUNKWALA"/>
  <g id="Layer_4">
    <g>
      <path class="st9" d="M85.6,33.3c0,0-1-5.1,0.6-4.2c1.6,0.9,10,13.7,12.2,20.8c2.2,7.1,3.1,12.2,4.5,20.2c1.3,8,2.6,38.5,2.6,38.5 l-0.4,23.8l-2.2,24.5l-2.2,25.2l0.3,22.4l0.6,5.6c0,0,12.5,27.1,9.5,33.5c-3.1,6.3-7.9-22.6-16.5-20.8S78.9,239.8,77.4,242 c-6.2-1.7,8-25,9.5-28.8c1.5-3.9-0.3-20.3-0.3-20.3l-4.9-24.4c0,0-5.7-33.9-6.9-43.3c-1.2-9.4-0.5-56,2.6-63.7l3.2-22.4 c0,0,1.1-6.8,3.4-6.3c3.3,1,5.7,4.8,5.7,4.8"/>
      <path class="st10" d="M86.6,50.6c2.2,0,3.9-1.8,3.9-4c0-2.2-1.8-3.9-4-3.9c-2.2,0-3.9,1.8-3.9,4C82.7,48.9,84.4,50.7,86.6,50.6z M84.2,46.7c0-1.3,1-2.4,2.3-2.4c1.3,0,2.4,1,2.4,2.3c0,1.3-1,2.4-2.3,2.4C85.3,49.1,84.2,48,84.2,46.7z"/>
      <path class="st11" d="M92.8,48.2c0,0,3.1,6.5-1.9,11.6c-4.9,5.1-12.8,0.3-12.7-3.3"/>
    </g>
    <g>
      <path class="st12" d="M142,45.4c0,0,1.8-4.8,2.7-3.3s1.1,16.9-0.9,24.1c-2,7.2-3.9,12-7,19.5c-3.2,7.5-18.3,33.9-18.3,33.9 l-13,19.9l-15,19.5l-15.4,20.1l-11.7,19.1l-2.5,5c0,0-3.9,29.6-9.9,33.4c-6,3.7,5.5-23.3-2.8-26.3s-22.3,6-24.7,7.1 c-4.3-4.7,20.1-16.8,23.5-19.3c3.4-2.5,10.6-17.3,10.6-17.3l8.9-23.3c0,0,13.2-31.7,17.3-40.3s29.5-47.6,36.2-52.5l14.7-17.3 c0,0,4.6-5.2,6.3-3.5c2.3,2.6,2.2,7.1,2.2,7.1"/>
      <path class="st13" d="M133.6,60.6c1.8,1.1,4.3,0.5,5.4-1.3c1.1-1.8,0.5-4.3-1.3-5.4c-1.8-1.1-4.3-0.5-5.4,1.3 C131.2,57.1,131.7,59.5,133.6,60.6z M133.6,56c0.7-1.1,2.1-1.5,3.2-0.8c1.1,0.7,1.5,2.1,0.8,3.2c-0.7,1.1-2.1,1.5-3.2,0.8 C133.3,58.6,133,57.1,133.6,56z"/>
      <path class="st14" d="M140.1,61.9c0,0-0.9,7.2-7.8,8.8c-6.9,1.7-10.9-6.6-9-9.6"/>
    </g>
    <g>
      <path class="st15" d="M26,47.9c0,0-4.1-3.2-2.3-3.6c1.8-0.4,16.5,3.9,22.8,7.9S56.7,59.5,63,64.8c6.2,5.2,27,27.5,27,27.5 l15.2,18.3l14.2,20.1l14.7,20.6l14.8,16.8l4.1,3.9c0,0,27.1,12.5,28.9,19.3s-20.7-12.1-26-5.1c-5.3,7-0.9,23-0.6,25.6 c-5.8,2.7-10.1-24.2-11.5-28.1c-1.4-3.9-13.4-15.2-13.4-15.2l-19.6-15.4c0,0-26.4-22-33.4-28.4c-7-6.4-36.7-42.3-39.4-50.2 L25.9,55.5c0,0-3.6-5.9-1.5-7c3.2-1.4,7.4,0,7.4,0"/>
      <path class="st16" d="M38,60.5c1.6-1.4,1.8-3.9,0.4-5.5c-1.4-1.6-3.9-1.8-5.5-0.4c-1.6,1.4-1.8,3.9-0.4,5.5 C33.9,61.7,36.4,61.9,38,60.5z M33.7,59.1c-0.9-1-0.8-2.5,0.2-3.3c1-0.9,2.5-0.8,3.3,0.2c0.9,1,0.8,2.5-0.2,3.3 C36,60.1,34.5,60,33.7,59.1z"/>
      <path class="st17" d="M41.2,54.6c0,0,6.6,3,6.1,10c-0.5,7.1-9.5,8.5-11.8,5.7"/>
    </g>
    <g>
      <path class="st18" d="M69.8,231.1c0,0-1.9,4.8-2.8,3.2c-0.9-1.6-0.9-16.9,1.1-24.1s4-11.9,7.3-19.4s18.7-33.7,18.7-33.7l13.3-19.8 l15.2-19.4l15.6-20l11.9-19l2.6-5c0,0,4.2-29.6,10.3-33.2c6-3.7-5.7,23.3,2.5,26.4s22.3-5.7,24.7-6.8c4.3,4.8-20.3,16.6-23.7,19 c-3.4,2.4-10.8,17.2-10.8,17.2l-9.2,23.2c0,0-13.6,31.5-17.8,40.1S98.8,207.1,92,211.9L77.1,229c0,0-4.7,5.1-6.3,3.5 c-2.3-2.7-2.1-7.1-2.1-7.1"/>
      <path class="st19" d="M78.4,216c-1.8-1.2-4.3-0.6-5.4,1.2c-1.2,1.8-0.6,4.3,1.2,5.4c1.8,1.2,4.3,0.6,5.4-1.2 C80.8,219.5,80.3,217.1,78.4,216z M78.4,220.5c-0.7,1.1-2.1,1.4-3.2,0.7c-1.1-0.7-1.4-2.1-0.7-3.2c0.7-1.1,2.1-1.4,3.2-0.7 C78.7,218,79,219.4,78.4,220.5z"/>
      <path class="st20" d="M72,214.6c0,0,1-7.2,7.9-8.7c6.9-1.6,10.9,6.7,8.9,9.7"/>
    </g>
    <g>
      <path class="st21" d="M197.9,239.8c0,0,1.5,4.9,2.5,3.4s2.1-16.8,0.5-24.1c-1.5-7.3-3.2-12.2-5.9-19.9 c-2.7-7.7-16.3-34.9-16.3-34.9l-11.9-20.6L153,123.3l-14.2-21l-10.6-19.7l-2.2-5.2c0,0-2.2-29.8-7.9-33.9s4.1,23.6-4.3,26.1 s-21.9-7.2-24.2-8.5c-4.6,4.4,19.1,17.9,22.3,20.6s9.6,17.9,9.6,17.9l7.6,23.7c0,0,11.4,32.4,14.9,41.2 c3.5,8.8,26.8,49.2,33.2,54.5l13.7,18.1c0,0,4.3,5.4,6.1,3.9c2.4-2.5,2.6-7,2.6-7"/>
      <path class="st22" d="M188.8,229.4c1,1.9,3.4,2.6,5.3,1.6c1.9-1,2.6-3.4,1.6-5.3c-1-1.9-3.4-2.6-5.3-1.6 C188.5,225.1,187.8,227.5,188.8,229.4z M191.1,225.5c1.1-0.6,2.6-0.2,3.2,1c0.6,1.1,0.2,2.6-1,3.2c-1.1,0.6-2.6,0.2-3.2-1 C189.5,227.5,190,226.1,191.1,225.5z"/>
      <path class="st23" d="M196.9,223.2c0,0-0.5-7.2-7.3-9.3c-6.8-2-11.3,5.9-9.5,9.1"/>
    </g>
    <g>
      <path class="st24" d="M225.9,49.5c0,0,2.6-4.5,0.8-4.2s-13.8,9.8-18.2,15.8s-6.9,10.6-10.7,17.7c-3.8,7.2-14.8,35.6-14.8,35.6 l-7.3,22.7l-5.7,24l-6,24.6l-7.5,21.1l-2.3,5.1c0,0-20.6,21.7-19.7,28.7c0.9,7,14.7-18.9,22.2-14.4c7.5,4.5,9.4,21.1,10,23.6 c6.4,0.4,0.4-26.2,0.2-30.4c-0.2-4.2,6.8-19.1,6.8-19.1l12.5-21.6c0,0,16.3-30.2,20.4-38.8c4.1-8.6,18.4-52.9,18-61.2l4.2-22.3 c0,0,1.1-6.8-1.2-7.1c-3.5-0.1-6.9,2.7-6.9,2.7"/>
      <path class="st25" d="M224.4,63.2c0.7-2-0.3-4.3-2.4-5c-2-0.7-4.3,0.3-5,2.4c-0.7,2,0.3,4.3,2.4,5 C221.4,66.4,223.6,65.3,224.4,63.2z M219.9,64.2c-1.2-0.4-1.9-1.8-1.4-3c0.4-1.2,1.8-1.9,3-1.4c1.2,0.4,1.9,1.8,1.4,3 C222.5,63.9,221.1,64.6,219.9,64.2z"/>
      <path class="st26" d="M214.3,61.4c0,0-5,5.2-2,11.6c3,6.4,12,4.4,13.1,0.9"/>
    </g>
    <g>
      <path class="st24" d="M193.9,31.5c0,0-0.7-5.1-1.9-3.8c-1.2,1.3-4.9,16.2-4.7,23.7c0.3,7.5,1,12.6,2.4,20.6 c1.4,8,10.1,37.2,10.1,37.2l8.2,22.4l10.2,22.4l10.4,23.1l7,21.3l1.3,5.5c0,0-3,29.7,2,34.7c5,5,0-24,8.7-25 c8.7-1,20.3,10.9,22.4,12.5c5.3-3.6-15.8-21-18.5-24.1c-2.7-3.2-6.4-19.3-6.4-19.3l-3.4-24.7c0,0-5.7-33.9-7.7-43.2 c-2-9.3-17.9-53-23.4-59.4l-10.4-20.2c0,0-3.3-6.1-5.3-4.9c-2.8,2-3.8,6.4-3.8,6.4"/>
      <path class="st25" d="M201.1,43.3c-0.7-2.1-2.9-3.2-5-2.5c-2.1,0.7-3.2,2.9-2.5,5c0.7,2.1,2.9,3.2,5,2.5 C200.7,47.6,201.8,45.4,201.1,43.3z M198.1,46.8c-1.2,0.4-2.6-0.3-3-1.5c-0.4-1.2,0.3-2.6,1.5-3c1.2-0.4,2.6,0.3,3,1.5 C200.1,45.1,199.4,46.4,198.1,46.8z"/>
      <path class="st26" d="M192,48c0,0-0.8,7.2,5.6,10.4c6.3,3.2,12.2-3.9,10.9-7.3"/>
    </g>
    <g>
      <path class="st18" d="M220.5,240.6c0,0,0.8,5.1,2,3.7c1.2-1.4,4.4-16.3,4-23.8c-0.5-7.5-1.4-12.5-3-20.5 c-1.6-8-11.2-36.9-11.2-36.9l-8.8-22.1l-10.8-22.1l-11.1-22.8l-7.7-21l-1.4-5.4c0,0,2.1-29.8-3-34.7s0.7,24-8,25.3 c-8.7,1.3-20.6-10.3-22.8-11.8c-5.2,3.7,16.4,20.5,19.2,23.6c2.8,3.1,6.9,19.1,6.9,19.1l4.1,24.6c0,0,6.7,33.7,8.9,42.9 c2.2,9.2,19.5,52.5,25.1,58.7l10.9,19.9c0,0,3.5,6,5.4,4.7c2.8-2.1,3.6-6.5,3.6-6.5"/>
      <path class="st19" d="M212.9,229c0.7,2,3,3.1,5,2.3c2-0.7,3.1-3,2.3-5c-0.7-2-3-3.1-5-2.3C213.2,224.7,212.2,226.9,212.9,229z M215.8,225.4c1.2-0.4,2.6,0.2,3,1.4c0.4,1.2-0.2,2.6-1.4,3c-1.2,0.4-2.6-0.2-3-1.4C213.9,227.2,214.6,225.9,215.8,225.4z"/>
      <path class="st20" d="M221.9,224c0,0,0.6-7.2-5.9-10.2c-6.4-3-12,4.2-10.7,7.6"/>
    </g>
    <g>
      <path class="st9" d="M279.6,33.3c0,0-1-5.1,0.6-4.2c1.6,0.9,10,13.7,12.2,20.8c2.2,7.1,3.1,12.2,4.5,20.2c1.3,8,2.6,38.5,2.6,38.5 l-0.4,23.8l-2.2,24.5l-2.2,25.2l0.3,22.4l0.6,5.6c0,0,12.5,27.1,9.5,33.5s-7.9-22.6-16.5-20.8s-15.6,16.9-17.1,19.1 c-6.2-1.7,8-25,9.5-28.8c1.5-3.9-0.3-20.3-0.3-20.3l-4.9-24.4c0,0-5.7-33.9-6.9-43.3s-0.5-56,2.6-63.7l3.2-22.4 c0,0,1.1-6.8,3.4-6.3c3.3,1,5.7,4.8,5.7,4.8"/>
      <path class="st10" d="M280.6,50.6c2.2,0,3.9-1.8,3.9-4c0-2.2-1.8-3.9-4-3.9c-2.2,0-3.9,1.8-3.9,4 C276.7,48.9,278.4,50.7,280.6,50.6z M278.2,46.7c0-1.3,1-2.4,2.3-2.4c1.3,0,2.4,1,2.4,2.3c0,1.3-1,2.4-2.3,2.4 C279.3,49.1,278.2,48,278.2,46.7z"/>
      <path class="st11" d="M286.8,48.2c0,0,3.1,6.5-1.9,11.6c-4.9,5.1-12.8,0.3-12.7-3.3"/>
    </g>
    <g>
      <path class="st12" d="M336,45.4c0,0,1.8-4.8,2.7-3.3s1.1,16.9-0.9,24.1c-2,7.2-3.9,12-7,19.5c-3.2,7.5-18.3,33.9-18.3,33.9 l-13,19.9l-15,19.5l-15.4,20.1l-11.7,19.1l-2.5,5c0,0-3.9,29.6-9.9,33.4c-6,3.7,5.5-23.3-2.8-26.3c-8.3-3-22.3,6-24.7,7.1 c-4.3-4.7,20.1-16.8,23.5-19.3c3.4-2.5,10.6-17.3,10.6-17.3l8.9-23.3c0,0,13.2-31.7,17.3-40.3c4-8.6,29.5-47.6,36.2-52.5 l14.7-17.3c0,0,4.6-5.2,6.3-3.5c2.3,2.6,2.2,7.1,2.2,7.1"/>
      <path class="st13" d="M327.6,60.6c1.8,1.1,4.3,0.5,5.4-1.3c1.1-1.8,0.5-4.3-1.3-5.4c-1.8-1.1-4.3-0.5-5.4,1.3 C325.2,57.1,325.7,59.5,327.6,60.6z M327.6,56c0.7-1.1,2.1-1.5,3.2-0.8c1.1,0.7,1.5,2.1,0.8,3.2c-0.7,1.1-2.1,1.5-3.2,0.8 C327.3,58.6,327,57.1,327.6,56z"/>
      <path class="st14" d="M334.1,61.9c0,0-0.9,7.2-7.8,8.8c-6.9,1.7-10.9-6.6-9-9.6"/>
    </g>
    <g>
      <path class="st15" d="M220,47.9c0,0-4.1-3.2-2.3-3.6c1.8-0.4,16.5,3.9,22.8,7.9s10.3,7.3,16.5,12.5c6.2,5.2,27,27.5,27,27.5 l15.2,18.3l14.2,20.1l14.7,20.6l14.8,16.8l4.1,3.9c0,0,27.1,12.5,28.9,19.3c1.8,6.8-20.7-12.1-26-5.1c-5.3,7-0.9,23-0.6,25.6 c-5.8,2.7-10.1-24.2-11.5-28.1c-1.4-3.9-13.4-15.2-13.4-15.2l-19.6-15.4c0,0-26.4-22-33.4-28.4S234.7,82.5,232,74.6l-12.2-19.1 c0,0-3.6-5.9-1.5-7c3.2-1.4,7.4,0,7.4,0"/>
      <path class="st16" d="M232,60.5c1.6-1.4,1.8-3.9,0.4-5.5c-1.4-1.6-3.9-1.8-5.5-0.4c-1.6,1.4-1.8,3.9-0.4,5.5 C227.9,61.7,230.4,61.9,232,60.5z M227.7,59.1c-0.9-1-0.8-2.5,0.2-3.3c1-0.9,2.5-0.8,3.3,0.2c0.9,1,0.8,2.5-0.2,3.3 C230,60.1,228.5,60,227.7,59.1z"/>
      <path class="st17" d="M235.2,54.6c0,0,6.6,3,6.1,10c-0.5,7.1-9.5,8.5-11.8,5.7"/>
    </g>
    <g>
      <path class="st18" d="M263.8,231.1c0,0-1.9,4.8-2.8,3.2c-0.9-1.6-0.9-16.9,1.1-24.1c2-7.2,4-11.9,7.3-19.4 c3.2-7.5,18.7-33.7,18.7-33.7l13.3-19.8l15.2-19.4l15.6-20l11.9-19l2.6-5c0,0,4.2-29.6,10.3-33.2c6-3.7-5.7,23.3,2.5,26.4 c8.2,3.1,22.3-5.7,24.7-6.8c4.3,4.8-20.3,16.6-23.7,19c-3.4,2.4-10.8,17.2-10.8,17.2l-9.2,23.2c0,0-13.6,31.5-17.8,40.1 c-4.1,8.6-30.1,47.2-36.9,52.1L271.1,229c0,0-4.7,5.1-6.3,3.5c-2.3-2.7-2.1-7.1-2.1-7.1"/>
      <path class="st19" d="M272.4,216c-1.8-1.2-4.3-0.6-5.4,1.2c-1.2,1.8-0.6,4.3,1.2,5.4c1.8,1.2,4.3,0.6,5.4-1.2 C274.8,219.5,274.3,217.1,272.4,216z M272.4,220.5c-0.7,1.1-2.1,1.4-3.2,0.7c-1.1-0.7-1.4-2.1-0.7-3.2c0.7-1.1,2.1-1.4,3.2-0.7 C272.7,218,273,219.4,272.4,220.5z"/>
      <path class="st20" d="M266,214.6c0,0,1-7.2,7.9-8.7c6.9-1.6,10.9,6.7,8.9,9.7"/>
    </g>
    <g>
      <path class="st21" d="M391.9,239.8c0,0,1.5,4.9,2.5,3.4c1-1.5,2.1-16.8,0.5-24.1s-3.2-12.2-5.9-19.9c-2.7-7.7-16.3-34.9-16.3-34.9 l-11.9-20.6L347,123.3l-14.2-21l-10.6-19.7l-2.2-5.2c0,0-2.2-29.8-7.9-33.9c-5.8-4.1,4.1,23.6-4.3,26.1 c-8.4,2.5-21.9-7.2-24.2-8.5c-4.6,4.4,19.1,17.9,22.3,20.6s9.6,17.9,9.6,17.9l7.6,23.7c0,0,11.4,32.4,14.9,41.2 c3.5,8.8,26.8,49.2,33.2,54.5l13.7,18.1c0,0,4.3,5.4,6.1,3.9c2.4-2.5,2.6-7,2.6-7"/>
      <path class="st22" d="M382.8,229.4c1,1.9,3.4,2.6,5.3,1.6c1.9-1,2.6-3.4,1.6-5.3c-1-1.9-3.4-2.6-5.3-1.6 C382.5,225.1,381.8,227.5,382.8,229.4z M385.1,225.5c1.1-0.6,2.6-0.2,3.2,1c0.6,1.1,0.2,2.6-1,3.2c-1.1,0.6-2.6,0.2-3.2-1 C383.5,227.5,384,226.1,385.1,225.5z"/>
      <path class="st23" d="M390.9,223.2c0,0-0.5-7.2-7.3-9.3c-6.8-2-11.3,5.9-9.5,9.1"/>
    </g>
    <g>
      <path class="st24" d="M419.9,49.5c0,0,2.6-4.5,0.8-4.2s-13.8,9.8-18.2,15.8c-4.4,6.1-6.9,10.6-10.7,17.7 c-3.8,7.2-14.8,35.6-14.8,35.6l-7.3,22.7l-5.7,24l-6,24.6l-7.5,21.1l-2.3,5.1c0,0-20.6,21.7-19.7,28.7c0.9,7,14.7-18.9,22.2-14.4 s9.4,21.1,10,23.6c6.4,0.4,0.4-26.2,0.2-30.4c-0.2-4.2,6.8-19.1,6.8-19.1l12.5-21.6c0,0,16.3-30.2,20.4-38.8s18.4-52.9,18-61.2 l4.2-22.3c0,0,1.1-6.8-1.2-7.1c-3.5-0.1-6.9,2.7-6.9,2.7"/>
      <path class="st25" d="M418.4,63.2c0.7-2-0.3-4.3-2.4-5c-2-0.7-4.3,0.3-5,2.4c-0.7,2,0.3,4.3,2.4,5 C415.4,66.4,417.6,65.3,418.4,63.2z M413.9,64.2c-1.2-0.4-1.9-1.8-1.4-3c0.4-1.2,1.8-1.9,3-1.4c1.2,0.4,1.9,1.8,1.4,3 C416.5,63.9,415.1,64.6,413.9,64.2z"/>
      <path class="st26" d="M408.3,61.4c0,0-5,5.2-2,11.6c3,6.4,12,4.4,13.1,0.9"/>
    </g>
    <g>
      <path class="st24" d="M387.9,31.5c0,0-0.7-5.1-1.9-3.8c-1.2,1.3-4.9,16.2-4.7,23.7s1,12.6,2.4,20.6s10.1,37.2,10.1,37.2l8.2,22.4 l10.2,22.4l10.4,23.1l7,21.3l1.3,5.5c0,0-3,29.7,2,34.7c5,5,0-24,8.7-25s20.3,10.9,22.4,12.5c5.3-3.6-15.8-21-18.5-24.1 s-6.4-19.3-6.4-19.3l-3.4-24.7c0,0-5.7-33.9-7.7-43.2c-2-9.3-17.9-53-23.4-59.4l-10.4-20.2c0,0-3.3-6.1-5.3-4.9 c-2.8,2-3.8,6.4-3.8,6.4"/>
      <path class="st25" d="M395.1,43.3c-0.7-2.1-2.9-3.2-5-2.5c-2.1,0.7-3.2,2.9-2.5,5c0.7,2.1,2.9,3.2,5,2.5 C394.7,47.6,395.8,45.4,395.1,43.3z M392.1,46.8c-1.2,0.4-2.6-0.3-3-1.5c-0.4-1.2,0.3-2.6,1.5-3c1.2-0.4,2.6,0.3,3,1.5 C394.1,45.1,393.4,46.4,392.1,46.8z"/>
      <path class="st26" d="M386,48c0,0-0.8,7.2,5.6,10.4c6.3,3.2,12.2-3.9,10.9-7.3"/>
    </g>
    <g>
      <path class="st18" d="M414.5,240.6c0,0,0.8,5.1,2,3.7c1.2-1.4,4.4-16.3,4-23.8c-0.5-7.5-1.4-12.5-3-20.5 c-1.6-8-11.2-36.9-11.2-36.9l-8.8-22.1l-10.8-22.1l-11.1-22.8l-7.7-21l-1.4-5.4c0,0,2.1-29.8-3-34.7s0.7,24-8,25.3 s-20.6-10.3-22.8-11.8c-5.2,3.7,16.4,20.5,19.2,23.6c2.8,3.1,6.9,19.1,6.9,19.1l4.1,24.6c0,0,6.7,33.7,8.9,42.9 c2.2,9.2,19.5,52.5,25.1,58.7l10.9,19.9c0,0,3.5,6,5.4,4.7c2.8-2.1,3.6-6.5,3.6-6.5"/>
      <path class="st19" d="M406.9,229c0.7,2,3,3.1,5,2.3c2-0.7,3.1-3,2.3-5c-0.7-2-3-3.1-5-2.3C407.2,224.7,406.2,226.9,406.9,229z M409.8,225.4c1.2-0.4,2.6,0.2,3,1.4c0.4,1.2-0.2,2.6-1.4,3c-1.2,0.4-2.6-0.2-3-1.4C407.9,227.2,408.6,225.9,409.8,225.4z"/>
      <path class="st20" d="M415.9,224c0,0,0.6-7.2-5.9-10.2c-6.4-3-12,4.2-10.7,7.6"/>
    </g>
  </g>
</svg>