<?xml version="1.0" encoding="utf-8"?>
<!-- Generator: Adobe Illustrator 19.1.0, SVG Export Plug-In . SVG Version: 6.00 Build 0)  -->
<svg version="1.1" xmlns="http://www.w3.org/2000/svg" xmlns:xlink="http://www.w3.org/1999/xlink" x="0px" y="0px"
	 viewBox="0 0 500 280" style="enable-background:new 0 0 500 280;" xml:space="preserve">
<style type="text/css">
	.st0{fill:none;stroke:#000000;stroke-width:4;stroke-miterlimit:10;}
	.st1{fill:#FFFFFF;stroke:#000000;stroke-width:4;stroke-miterlimit:10;}
	.st2{stroke:#000000;stroke-width:0.7935;stroke-miterlimit:10;}
	.st3{fill:#FFFFFF;stroke:#000000;stroke-width:0.7935;stroke-miterlimit:10;}
	.st4{stroke:#000000;stroke-width:1.6;stroke-miterlimit:10;}
	.st5{fill:#FFFFFF;stroke:#000000;stroke-width:1.6;stroke-miterlimit:10;}
	.st6{stroke:#000000;stroke-width:1.1336;stroke-miterlimit:10;}
	.st7{fill:#FFFFFF;stroke:#000000;stroke-width:1.1336;stroke-miterlimit:10;}
	.st8{fill:#FFFFFF;}
	.st9{fill:#414042;stroke:#000000;stroke-width:1.5;stroke-miterlimit:10;}
	.st10{fill:#414042;stroke:#FFFFFF;stroke-miterlimit:10;}
	.st11{fill:#414042;stroke:#000000;stroke-miterlimit:10;}
	.st12{fill:#58595B;stroke:#000000;stroke-width:1.5;stroke-miterlimit:10;}
	.st13{fill:#58595B;stroke:#FFFFFF;stroke-miterlimit:10;}
	.st14{fill:#58595B;stroke:#000000;stroke-miterlimit:10;}
	.st15{fill:#6D6E71;stroke:#000000;stroke-width:1.5;stroke-miterlimit:10;}
	.st16{fill:#6D6E71;stroke:#FFFFFF;stroke-miterlimit:10;}
	.st17{fill:#6D6E71;stroke:#000000;stroke-miterlimit:10;}
	.st18{fill:#808285;stroke:#000000;stroke-width:1.5;stroke-miterlimit:10;}
	.st19{fill:#808285;stroke:#FFFFFF;stroke-miterlimit:10;}
	.st20{fill:#808285;stroke:#000000;stroke-miterlimit:10;}
	.st21{fill:#D1D3D4;stroke:#000000;stroke-width:1.5;stroke-miterlimit:10;}
	.st22{fill:#D1D3D4;stroke:#FFFFFF;stroke-miterlimit:10;}
	.st23{fill:#D1D3D4;stroke:#000000;stroke-miterlimit:10;}
	.st24{fill:#A7A9AC;stroke:#000000;stroke-width:1.5;stroke-miterlimit:10;}
	.st25{stroke:#FFFFFF;stroke-miterlimit:10;}
	.st26{fill:none;stroke:#000000;stroke-miterlimit:10;}
	.st27{fill:#FFFFFF;stroke:#000000;stroke-width:2;stroke-miterlimit:10;}
	.st28{stroke:#FFFFFF;stroke-width:1.2;stroke-miterlimit:10;}
</style>
<g id="nshima">
</g>
<g id="VUNKWALA">
</g>
<g id="NSOMBA">
</g>
<g id="Layer_4">
</g>
<g id="placeholder">
	<g>
		<polygon class="st27" points="62.5,247.4 204,106 345.4,247.4 		"/>
		<polygon class="st27" points="138.5,247.4 280,106 421.4,247.4 		"/>
	</g>
	<circle class="st28" cx="384.3" cy="96.1" r="27.3"/>
	<g>
		<path d="M78.1,54.4c1.4,0.9,3.5,1.6,5.6,1.6c3.2,0,5.1-1.7,5.1-4.1c0-2.3-1.3-3.6-4.6-4.8c-4-1.4-6.4-3.5-6.4-6.9
			c0-3.8,3.1-6.6,7.8-6.6c2.5,0,4.3,0.6,5.4,1.2l-0.9,2.6c-0.8-0.4-2.4-1.2-4.6-1.2c-3.3,0-4.6,2-4.6,3.6c0,2.3,1.5,3.4,4.8,4.7
			C89.9,46,92,48,92,51.6c0,3.7-2.8,7-8.5,7c-2.3,0-4.9-0.7-6.2-1.5L78.1,54.4z"/>
		<path d="M101.6,58.2l-7.9-24.3h3.4l3.8,12c1,3.3,1.9,6.2,2.6,9.1h0.1c0.7-2.8,1.7-5.9,2.8-9l4.1-12h3.3l-8.7,24.3H101.6z"/>
		<path d="M134.8,57.1c-1.4,0.5-4.2,1.3-7.5,1.3c-3.7,0-6.7-0.9-9.1-3.2c-2.1-2-3.4-5.3-3.4-9c0-7.2,5-12.5,13.1-12.5
			c2.8,0,5,0.6,6,1.1l-0.8,2.6c-1.3-0.6-2.9-1-5.4-1c-5.9,0-9.8,3.7-9.8,9.8c0,6.2,3.7,9.8,9.4,9.8c2.1,0,3.5-0.3,4.2-0.6V48h-4.9
			v-2.5h8V57.1z"/>
		<path d="M147.3,34.2c1.5-0.3,3.5-0.5,6-0.5c3.1,0,5.4,0.7,6.8,2c1.3,1.2,2.1,2.9,2.1,5.1c0,2.2-0.6,3.9-1.9,5.2
			c-1.7,1.8-4.4,2.7-7.4,2.7c-0.9,0-1.8,0-2.5-0.2v9.7h-3.1V34.2z M150.4,45.9c0.7,0.2,1.5,0.3,2.6,0.3c3.8,0,6.1-1.8,6.1-5.2
			c0-3.2-2.3-4.8-5.7-4.8c-1.4,0-2.4,0.1-3,0.3V45.9z"/>
		<path d="M166.1,32.6h3.2v25.6h-3.2V32.6z"/>
		<path d="M184.3,58.2L184,56h-0.1c-1,1.4-2.8,2.6-5.3,2.6c-3.5,0-5.3-2.5-5.3-5c0-4.2,3.7-6.5,10.5-6.5v-0.4c0-1.4-0.4-4-4-4
			c-1.6,0-3.3,0.5-4.5,1.3l-0.7-2.1c1.4-0.9,3.5-1.5,5.7-1.5c5.3,0,6.6,3.6,6.6,7.1V54c0,1.5,0.1,3,0.3,4.2H184.3z M183.8,49.3
			c-3.5-0.1-7.4,0.5-7.4,3.9c0,2.1,1.4,3,3,3c2.3,0,3.7-1.4,4.2-2.9c0.1-0.3,0.2-0.7,0.2-1V49.3z"/>
		<path d="M204.4,57.5c-0.8,0.4-2.7,1-5,1c-5.3,0-8.7-3.6-8.7-8.9c0-5.4,3.7-9.3,9.4-9.3c1.9,0,3.5,0.5,4.4,0.9l-0.7,2.4
			c-0.8-0.4-1.9-0.8-3.7-0.8c-4,0-6.2,3-6.2,6.6c0,4,2.6,6.5,6,6.5c1.8,0,3-0.5,3.9-0.9L204.4,57.5z"/>
		<path d="M209.7,50.1c0.1,4.3,2.8,6,6,6c2.3,0,3.6-0.4,4.8-0.9l0.5,2.3c-1.1,0.5-3,1.1-5.8,1.1c-5.4,0-8.6-3.5-8.6-8.8
			c0-5.3,3.1-9.4,8.2-9.4c5.7,0,7.2,5,7.2,8.2c0,0.6-0.1,1.2-0.1,1.5H209.7z M218.9,47.8c0-2-0.8-5.1-4.4-5.1c-3.2,0-4.6,3-4.9,5.1
			H218.9z"/>
		<path d="M229.2,33.9v10.2h11.7V33.9h3.2v24.3h-3.2V46.8h-11.7v11.4H226V33.9H229.2z"/>
		<path d="M265.2,49.3c0,6.4-4.5,9.2-8.7,9.2c-4.7,0-8.4-3.5-8.4-9c0-5.8,3.8-9.2,8.6-9.2C261.8,40.4,265.2,44,265.2,49.3z
			 M251.3,49.5c0,3.8,2.2,6.7,5.3,6.7c3,0,5.3-2.8,5.3-6.8c0-3-1.5-6.7-5.2-6.7C253,42.7,251.3,46.2,251.3,49.5z"/>
		<path d="M269.2,32.6h3.2v25.6h-3.2V32.6z"/>
		<path d="M292.7,32.6v21.1c0,1.5,0,3.3,0.1,4.5H290l-0.1-3h-0.1c-1,1.9-3.1,3.4-5.9,3.4c-4.2,0-7.5-3.6-7.5-8.9
			c0-5.8,3.6-9.4,7.8-9.4c2.7,0,4.5,1.3,5.3,2.7h0.1V32.6H292.7z M289.5,47.9c0-0.4,0-0.9-0.1-1.3c-0.5-2-2.2-3.7-4.6-3.7
			c-3.3,0-5.2,2.9-5.2,6.7c0,3.5,1.7,6.4,5.1,6.4c2.1,0,4.1-1.4,4.6-3.8c0.1-0.4,0.1-0.9,0.1-1.4V47.9z"/>
		<path d="M299.7,50.1c0.1,4.3,2.8,6,6,6c2.3,0,3.6-0.4,4.8-0.9l0.5,2.3c-1.1,0.5-3,1.1-5.8,1.1c-5.4,0-8.6-3.5-8.6-8.8
			c0-5.3,3.1-9.4,8.2-9.4c5.7,0,7.2,5,7.2,8.2c0,0.6-0.1,1.2-0.1,1.5H299.7z M309,47.8c0-2-0.8-5.1-4.4-5.1c-3.2,0-4.6,3-4.9,5.1
			H309z"/>
		<path d="M316,46.2c0-2.1,0-3.8-0.1-5.4h2.8l0.1,3.4h0.1c0.8-2.3,2.7-3.8,4.8-3.8c0.4,0,0.6,0,0.9,0.1v3c-0.3-0.1-0.6-0.1-1.1-0.1
			c-2.2,0-3.8,1.7-4.2,4.1c-0.1,0.4-0.1,0.9-0.1,1.5v9.3H316V46.2z"/>
	</g>
</g>
</svg>
